<svg width="149" height="51" viewBox="0 0 149 51" fill="none" xmlns="http://www.w3.org/2000/svg">
<rect x="0.5" y="0.5" width="148" height="50" rx="25" fill="#F5B7FF" stroke="black"/>
<path d="M33.5811 33L29.5611 26.84H28.1811V33H25.0711V18.2H28.1811V24.03H29.5811L33.2811 18.2H36.5511L32.0011 25.36L36.9411 33H33.5811ZM37.0114 22.06H39.5514L39.7714 23.2H39.9114C40.2847 22.7667 40.7214 22.44 41.2214 22.22C41.7281 21.9933 42.2847 21.88 42.8914 21.88C43.9314 21.88 44.7547 22.2067 45.3614 22.86C45.9747 23.5067 46.2814 24.5367 46.2814 25.95V33H43.2214V26.16C43.2214 25.5867 43.1014 25.18 42.8614 24.94C42.6281 24.7 42.2881 24.58 41.8414 24.58C41.5081 24.58 41.1814 24.65 40.8614 24.79C40.5414 24.9233 40.2781 25.1233 40.0714 25.39V33H37.0114V22.06ZM52.8291 33.21C51.2491 33.21 50.0324 32.7433 49.1791 31.81C48.3257 30.8767 47.8991 29.4667 47.8991 27.58C47.8991 25.66 48.3224 24.23 49.1691 23.29C50.0224 22.35 51.2424 21.88 52.8291 21.88C54.4091 21.88 55.6257 22.3567 56.4791 23.31C57.3324 24.2567 57.7591 25.67 57.7591 27.55C57.7591 29.4433 57.3324 30.86 56.4791 31.8C55.6257 32.74 54.4091 33.21 52.8291 33.21ZM52.8291 30.9C53.2424 30.9 53.5791 30.8033 53.8391 30.61C54.0991 30.4167 54.2991 30.08 54.4391 29.6C54.5791 29.1133 54.6491 28.44 54.6491 27.58C54.6491 26.7 54.5791 26.0133 54.4391 25.52C54.2991 25.0267 54.0957 24.6833 53.8291 24.49C53.5691 24.29 53.2357 24.19 52.8291 24.19C52.4224 24.19 52.0857 24.29 51.8191 24.49C51.5591 24.6833 51.3591 25.0233 51.2191 25.51C51.0791 25.9967 51.0091 26.6733 51.0091 27.54C51.0091 28.4133 51.0791 29.0967 51.2191 29.59C51.3591 30.0767 51.5591 30.4167 51.8191 30.61C52.0791 30.8033 52.4157 30.9 52.8291 30.9ZM71.998 22.06H74.738L71.978 33H68.638L66.628 25.15L64.568 33H61.228L58.448 22.06H61.308L63.078 29.58L64.998 22.06H68.338L70.188 29.44L71.998 22.06ZM92.2009 21.88C93.2276 21.88 94.0409 22.2067 94.6409 22.86C95.2476 23.5067 95.5509 24.5433 95.5509 25.97V33H92.4909V26.14C92.4909 25.58 92.3776 25.18 92.1509 24.94C91.9243 24.7 91.6076 24.58 91.2009 24.58C90.9343 24.58 90.6643 24.6367 90.3909 24.75C90.1176 24.8633 89.8776 25.0333 89.6709 25.26C89.6843 25.5 89.6909 25.6867 89.6909 25.82V33H86.6909V26.14C86.6909 25.5733 86.5843 25.1733 86.3709 24.94C86.1576 24.7 85.8509 24.58 85.4509 24.58C85.1509 24.58 84.8543 24.65 84.5609 24.79C84.2676 24.93 84.0276 25.1367 83.8409 25.41V33H80.7809V22.06H83.3209L83.5409 23.21H83.6809C84.4143 22.3233 85.3776 21.88 86.5709 21.88C87.1376 21.88 87.6409 21.9967 88.0809 22.23C88.5276 22.4567 88.8876 22.81 89.1609 23.29C89.5609 22.8167 90.0243 22.4633 90.5509 22.23C91.0776 21.9967 91.6276 21.88 92.2009 21.88ZM102.106 33.21C100.526 33.21 99.3097 32.7433 98.4564 31.81C97.6031 30.8767 97.1764 29.4667 97.1764 27.58C97.1764 25.66 97.5997 24.23 98.4464 23.29C99.2997 22.35 100.52 21.88 102.106 21.88C103.686 21.88 104.903 22.3567 105.756 23.31C106.61 24.2567 107.036 25.67 107.036 27.55C107.036 29.4433 106.61 30.86 105.756 31.8C104.903 32.74 103.686 33.21 102.106 33.21ZM102.106 30.9C102.52 30.9 102.856 30.8033 103.116 30.61C103.376 30.4167 103.576 30.08 103.716 29.6C103.856 29.1133 103.926 28.44 103.926 27.58C103.926 26.7 103.856 26.0133 103.716 25.52C103.576 25.0267 103.373 24.6833 103.106 24.49C102.846 24.29 102.513 24.19 102.106 24.19C101.7 24.19 101.363 24.29 101.096 24.49C100.836 24.6833 100.636 25.0233 100.496 25.51C100.356 25.9967 100.286 26.6733 100.286 27.54C100.286 28.4133 100.356 29.0967 100.496 29.59C100.636 30.0767 100.836 30.4167 101.096 30.61C101.356 30.8033 101.693 30.9 102.106 30.9ZM108.73 22.06H111.24L111.48 23.54H111.62C111.893 22.98 112.267 22.5667 112.74 22.3C113.22 22.0333 113.767 21.9 114.38 21.9C114.627 21.9 114.903 21.9267 115.21 21.98V24.8C114.963 24.7467 114.62 24.72 114.18 24.72C113.713 24.72 113.257 24.8133 112.81 25C112.37 25.18 112.03 25.43 111.79 25.75V33H108.73V22.06ZM125.038 28.45H118.938C118.965 29.0433 119.075 29.51 119.268 29.85C119.468 30.1833 119.775 30.4267 120.188 30.58C120.602 30.7267 121.162 30.8 121.868 30.8C122.615 30.8 123.485 30.68 124.478 30.44V32.83C123.932 32.9633 123.415 33.06 122.928 33.12C122.448 33.18 121.962 33.21 121.468 33.21C120.162 33.21 119.095 33.0133 118.268 32.62C117.448 32.2267 116.838 31.61 116.438 30.77C116.045 29.93 115.848 28.84 115.848 27.5C115.848 25.68 116.258 24.29 117.078 23.33C117.905 22.3633 119.082 21.88 120.608 21.88C122.062 21.88 123.162 22.3667 123.908 23.34C124.662 24.3067 125.038 25.7233 125.038 27.59V28.45ZM120.588 23.88C120.222 23.88 119.918 23.9633 119.678 24.13C119.445 24.2967 119.262 24.58 119.128 24.98C119.002 25.38 118.935 25.9267 118.928 26.62H122.178C122.172 25.9267 122.108 25.38 121.988 24.98C121.868 24.58 121.695 24.2967 121.468 24.13C121.242 23.9633 120.948 23.88 120.588 23.88Z" fill="black"/>
</svg>
