<svg width="759" height="522" viewBox="0 0 759 522" fill="none" xmlns="http://www.w3.org/2000/svg">
<rect width="759" height="522" fill="#333131"/>
<rect width="759" height="33" fill="#D9D9D9"/>
<path d="M52.7125 22.117C51.3822 22.117 50.3682 21.7357 49.6705 20.973C48.9728 20.206 48.624 18.9493 48.624 17.203C48.624 15.487 48.9793 14.2347 49.69 13.446C50.4007 12.6573 51.4407 12.263 52.81 12.263C53.4643 12.263 54.097 12.3475 54.708 12.5165V13.4135C54.136 13.2402 53.5142 13.1535 52.8425 13.1535C52.1405 13.1535 51.5598 13.2835 51.1005 13.5435C50.6412 13.7992 50.2923 14.2217 50.054 14.811C49.82 15.4003 49.703 16.189 49.703 17.177C49.703 18.1867 49.8222 18.9883 50.0605 19.582C50.2988 20.1757 50.6412 20.5982 51.0875 20.8495C51.5382 21.1008 52.1037 21.2265 52.784 21.2265C53.109 21.2265 53.4232 21.2005 53.7265 21.1485C54.0342 21.0922 54.3613 21.0055 54.708 20.8885V21.792C54.0797 22.0087 53.4145 22.117 52.7125 22.117ZM56.4121 22.078C56.1911 22.078 56.0135 22.0152 55.8791 21.8895C55.7448 21.7638 55.6776 21.5927 55.6776 21.376C55.6776 21.1593 55.7448 20.986 55.8791 20.856C56.0135 20.726 56.1911 20.661 56.4121 20.661C56.6331 20.661 56.8108 20.726 56.9451 20.856C57.0795 20.986 57.1466 21.1593 57.1466 21.376C57.1466 21.5883 57.0795 21.7595 56.9451 21.8895C56.8108 22.0152 56.6331 22.078 56.4121 22.078ZM56.4121 16.28C56.1911 16.28 56.0135 16.2172 55.8791 16.0915C55.7448 15.9658 55.6776 15.7947 55.6776 15.578C55.6776 15.3613 55.7448 15.188 55.8791 15.058C56.0135 14.928 56.1911 14.863 56.4121 14.863C56.6331 14.863 56.8108 14.928 56.9451 15.058C57.0795 15.188 57.1466 15.3613 57.1466 15.578C57.1466 15.7903 57.0795 15.9615 56.9451 16.0915C56.8108 16.2172 56.6331 16.28 56.4121 16.28ZM60.4782 23.56L57.8262 11.496H58.8402L61.4857 23.56H60.4782ZM73.0784 12.38H74.0664L71.5314 22H70.1859L67.9499 13.524L65.6879 22H64.3359L61.8009 12.38H62.8539L65.0704 21.025L67.3519 12.38H68.5674L70.8294 21.051L73.0784 12.38ZM75.2844 22V14.9475H76.2984V22H75.2844ZM75.7914 13.407C75.5617 13.407 75.384 13.3507 75.2584 13.238C75.137 13.1253 75.0764 12.9672 75.0764 12.7635C75.0764 12.5598 75.137 12.4017 75.2584 12.289C75.384 12.172 75.5617 12.1135 75.7914 12.1135C76.0167 12.1135 76.19 12.172 76.3114 12.289C76.437 12.4017 76.4999 12.5598 76.4999 12.7635C76.4999 12.9672 76.437 13.1253 76.3114 13.238C76.19 13.3507 76.0167 13.407 75.7914 13.407ZM78.1027 14.9475H78.9542L79.0322 15.734H79.0972C79.3529 15.448 79.6562 15.2292 80.0072 15.0775C80.3582 14.9215 80.7352 14.8435 81.1382 14.8435C81.7882 14.8435 82.2974 15.0298 82.6657 15.4025C83.0384 15.7708 83.2247 16.3732 83.2247 17.2095V22H82.2107V17.2615C82.2107 16.7155 82.0959 16.3277 81.8662 16.098C81.6409 15.864 81.3159 15.747 80.8912 15.747C80.5662 15.747 80.2412 15.825 79.9162 15.981C79.5912 16.1327 79.3247 16.3732 79.1167 16.7025V22H78.1027V14.9475ZM87.2069 22.1235C86.4312 22.1235 85.805 21.8462 85.3284 21.2915C84.8517 20.7368 84.6134 19.8463 84.6134 18.62C84.6134 17.3503 84.8972 16.4035 85.4649 15.7795C86.0369 15.1512 86.8754 14.837 87.9804 14.837C88.2707 14.837 88.5979 14.8608 88.9619 14.9085V11.496H89.9759V22H89.1114L89.0399 21.272H88.9749C88.7799 21.5277 88.5307 21.7335 88.2274 21.8895C87.924 22.0455 87.5839 22.1235 87.2069 22.1235ZM87.4279 21.246C87.7312 21.246 88.0215 21.1745 88.2989 21.0315C88.5762 20.8842 88.7972 20.6718 88.9619 20.3945V15.7665C88.8189 15.7405 88.6564 15.7188 88.4744 15.7015C88.2924 15.6798 88.1212 15.669 87.9609 15.669C87.1852 15.669 86.6067 15.8943 86.2254 16.345C85.844 16.7957 85.6534 17.5237 85.6534 18.529C85.6534 19.2223 85.727 19.7683 85.8744 20.167C86.026 20.5657 86.2297 20.8452 86.4854 21.0055C86.7454 21.1658 87.0595 21.246 87.4279 21.246ZM94.2518 22.1235C93.3591 22.1235 92.6658 21.8288 92.1718 21.2395C91.6778 20.6458 91.4308 19.7272 91.4308 18.4835C91.4308 17.2312 91.6756 16.3125 92.1653 15.7275C92.6549 15.1382 93.3504 14.8435 94.2518 14.8435C95.1488 14.8435 95.8421 15.1382 96.3318 15.7275C96.8214 16.3168 97.0663 17.2333 97.0663 18.477C97.0663 19.7207 96.8193 20.6393 96.3253 21.233C95.8356 21.8267 95.1444 22.1235 94.2518 22.1235ZM94.2518 21.298C94.6331 21.298 94.9538 21.2113 95.2138 21.038C95.4781 20.8603 95.6796 20.5657 95.8183 20.154C95.9613 19.7423 96.0328 19.1898 96.0328 18.4965C96.0328 17.7902 95.9613 17.229 95.8183 16.813C95.6796 16.397 95.4803 16.1023 95.2203 15.929C94.9603 15.7557 94.6374 15.669 94.2518 15.669C93.8661 15.669 93.5433 15.7557 93.2833 15.929C93.0233 16.1023 92.8218 16.3948 92.6788 16.8065C92.5401 17.2138 92.4708 17.7642 92.4708 18.4575C92.4708 19.1638 92.5401 19.7272 92.6788 20.1475C92.8218 20.5635 93.0233 20.8603 93.2833 21.038C93.5433 21.2113 93.8661 21.298 94.2518 21.298ZM106.574 14.9475H107.529L105.599 22H104.403L102.68 15.955L100.938 22H99.7421L97.8051 14.9475H98.7996L100.392 20.9405L102.089 14.9475H103.291L104.975 20.9015L106.574 14.9475ZM110.194 22.1235C109.544 22.1235 108.946 22.0325 108.4 21.8505V21.025C109.015 21.2157 109.611 21.311 110.188 21.311C110.725 21.311 111.13 21.2092 111.403 21.0055C111.676 20.7975 111.813 20.5007 111.813 20.115C111.813 19.79 111.73 19.5408 111.566 19.3675C111.405 19.1898 111.147 19.0555 110.792 18.9645L109.967 18.776C109.36 18.6287 108.922 18.4012 108.654 18.0935C108.389 17.7815 108.257 17.372 108.257 16.865C108.257 16.4663 108.357 16.1153 108.556 15.812C108.755 15.5087 109.052 15.2725 109.447 15.1035C109.845 14.9302 110.331 14.8435 110.903 14.8435C111.44 14.8435 111.949 14.902 112.43 15.019V15.8445C111.953 15.7188 111.453 15.656 110.929 15.656C110.348 15.656 109.919 15.7643 109.642 15.981C109.369 16.1977 109.232 16.4815 109.232 16.8325C109.232 17.1315 109.31 17.3698 109.466 17.5475C109.622 17.7252 109.873 17.8573 110.22 17.944L111.046 18.126C111.665 18.2777 112.109 18.5095 112.378 18.8215C112.647 19.1292 112.781 19.5452 112.781 20.0695C112.781 20.4942 112.679 20.8603 112.476 21.168C112.276 21.4757 111.982 21.7118 111.592 21.8765C111.206 22.0412 110.74 22.1235 110.194 22.1235ZM115.83 23.56L113.178 11.496H114.192L116.837 23.56H115.83ZM119.59 22.117C119.23 22.117 118.86 22.0867 118.478 22.026C118.097 21.9653 117.74 21.8765 117.406 21.7595V20.869C117.77 20.9903 118.14 21.0835 118.517 21.1485C118.894 21.2092 119.258 21.2395 119.609 21.2395C121.061 21.2395 121.787 20.6523 121.787 19.478C121.787 19.1487 121.728 18.8735 121.611 18.6525C121.499 18.4315 121.315 18.243 121.059 18.087C120.808 17.931 120.463 17.7858 120.025 17.6515L119.538 17.5085C118.775 17.2832 118.205 16.9603 117.828 16.54C117.451 16.1153 117.263 15.5672 117.263 14.8955C117.263 14.0592 117.54 13.4113 118.095 12.952C118.65 12.4927 119.46 12.263 120.526 12.263C120.86 12.263 121.193 12.2868 121.527 12.3345C121.865 12.3778 122.164 12.4407 122.424 12.523V13.4135C121.848 13.2315 121.224 13.1405 120.552 13.1405C119.053 13.1405 118.303 13.706 118.303 14.837C118.303 15.1533 118.357 15.4198 118.465 15.6365C118.574 15.8488 118.747 16.033 118.985 16.189C119.224 16.3407 119.549 16.4793 119.96 16.605L120.441 16.748C121.256 16.9863 121.858 17.32 122.248 17.749C122.638 18.1737 122.833 18.7283 122.833 19.413C122.833 19.985 122.706 20.4725 122.45 20.8755C122.199 21.2785 121.83 21.5862 121.345 21.7985C120.86 22.0108 120.275 22.117 119.59 22.117ZM128.543 14.9475H129.576L126.079 24.86H125.065L126.086 22H125.78L123.297 14.9475H124.376L126.443 21.0965L128.543 14.9475ZM131.979 22.1235C131.329 22.1235 130.731 22.0325 130.185 21.8505V21.025C130.801 21.2157 131.396 21.311 131.973 21.311C132.51 21.311 132.915 21.2092 133.188 21.0055C133.461 20.7975 133.598 20.5007 133.598 20.115C133.598 19.79 133.515 19.5408 133.351 19.3675C133.19 19.1898 132.933 19.0555 132.577 18.9645L131.752 18.776C131.145 18.6287 130.707 18.4012 130.439 18.0935C130.174 17.7815 130.042 17.372 130.042 16.865C130.042 16.4663 130.142 16.1153 130.341 15.812C130.541 15.5087 130.837 15.2725 131.232 15.1035C131.63 14.9302 132.116 14.8435 132.688 14.8435C133.225 14.8435 133.734 14.902 134.215 15.019V15.8445C133.739 15.7188 133.238 15.656 132.714 15.656C132.133 15.656 131.704 15.7643 131.427 15.981C131.154 16.1977 131.017 16.4815 131.017 16.8325C131.017 17.1315 131.095 17.3698 131.251 17.5475C131.407 17.7252 131.659 17.8573 132.005 17.944L132.831 18.126C133.45 18.2777 133.895 18.5095 134.163 18.8215C134.432 19.1292 134.566 19.5452 134.566 20.0695C134.566 20.4942 134.464 20.8603 134.261 21.168C134.061 21.4757 133.767 21.7118 133.377 21.8765C132.991 22.0412 132.525 22.1235 131.979 22.1235ZM138.533 21.2395C138.763 21.2395 139.023 21.207 139.313 21.142V22.0065C138.98 22.0845 138.648 22.1235 138.319 22.1235C137.63 22.1235 137.103 21.9437 136.739 21.584C136.38 21.2243 136.2 20.661 136.2 19.894V15.7925H134.932V14.9475H136.2L136.362 12.38H137.214V14.9475H139.209V15.7925H137.214V19.738C137.214 20.2883 137.318 20.6762 137.526 20.9015C137.738 21.1268 138.074 21.2395 138.533 21.2395ZM145.102 18.815H140.91C140.923 19.4303 141.009 19.9178 141.17 20.2775C141.334 20.6372 141.575 20.8972 141.891 21.0575C142.212 21.2135 142.628 21.2915 143.139 21.2915C143.611 21.2915 144.153 21.2027 144.764 21.025V21.8635C144.17 22.0368 143.59 22.1235 143.022 22.1235C142.316 22.1235 141.731 22.0022 141.267 21.7595C140.808 21.5125 140.461 21.1203 140.227 20.583C139.993 20.0457 139.876 19.3415 139.876 18.4705C139.876 17.2398 140.112 16.3277 140.585 15.734C141.057 15.1403 141.716 14.8435 142.561 14.8435C143.384 14.8435 144.012 15.1382 144.446 15.7275C144.883 16.3168 145.102 17.2398 145.102 18.4965V18.815ZM142.554 15.5845C142.043 15.5845 141.644 15.7773 141.358 16.163C141.076 16.5487 140.927 17.1987 140.91 18.113H144.121C144.112 17.4847 144.043 16.9842 143.913 16.6115C143.787 16.2388 143.611 15.9745 143.386 15.8185C143.161 15.6625 142.883 15.5845 142.554 15.5845ZM153.142 14.8435C153.753 14.8435 154.239 15.032 154.598 15.409C154.958 15.7817 155.138 16.3883 155.138 17.229V22H154.13V17.268C154.13 16.254 153.719 15.747 152.895 15.747C152.609 15.747 152.321 15.8207 152.031 15.968C151.74 16.1153 151.498 16.3493 151.303 16.67C151.32 16.8217 151.329 16.9993 151.329 17.203V22H150.328V17.268C150.328 16.722 150.222 16.332 150.009 16.098C149.801 15.864 149.507 15.747 149.125 15.747C148.831 15.747 148.532 15.8272 148.228 15.9875C147.929 16.1478 147.684 16.3948 147.494 16.7285V22H146.48V14.9475H147.331L147.409 15.7405H147.474C147.726 15.4415 148.016 15.2183 148.345 15.071C148.675 14.9193 149.028 14.8435 149.405 14.8435C150.228 14.8435 150.789 15.1772 151.088 15.8445C151.374 15.4935 151.695 15.24 152.05 15.084C152.406 14.9237 152.77 14.8435 153.142 14.8435ZM159.666 17.0015C160.333 17.1445 160.842 17.424 161.193 17.84C161.544 18.256 161.72 18.789 161.72 19.439C161.72 20.0067 161.594 20.4898 161.343 20.8885C161.091 21.2872 160.723 21.5927 160.238 21.805C159.752 22.013 159.163 22.117 158.47 22.117C157.69 22.117 156.962 22.0022 156.286 21.7725V20.9275C156.628 21.0445 156.983 21.1333 157.352 21.194C157.724 21.2547 158.084 21.285 158.431 21.285C159.176 21.285 159.744 21.1268 160.134 20.8105C160.528 20.4898 160.725 20.0197 160.725 19.4C160.725 18.7847 160.53 18.3123 160.14 17.983C159.754 17.6493 159.159 17.4825 158.353 17.4825H157.371V16.644H157.917C158.732 16.644 159.349 16.4772 159.77 16.1435C160.194 15.8098 160.407 15.344 160.407 14.746C160.407 13.6453 159.746 13.095 158.424 13.095C157.731 13.095 157.079 13.2142 156.468 13.4525V12.614C156.732 12.5057 157.046 12.4212 157.41 12.3605C157.778 12.2955 158.142 12.263 158.502 12.263C159.451 12.263 160.173 12.4732 160.667 12.8935C161.165 13.3095 161.414 13.9075 161.414 14.6875C161.414 15.2465 161.26 15.7297 160.953 16.137C160.649 16.54 160.22 16.8282 159.666 17.0015ZM167.613 21.116V22H162.374V21.4345L164.961 17.6775C165.381 17.0665 165.68 16.5443 165.858 16.111C166.04 15.6733 166.131 15.253 166.131 14.85C166.131 14.2433 165.97 13.8078 165.65 13.5435C165.329 13.2748 164.839 13.1405 164.181 13.1405C163.492 13.1405 162.853 13.2618 162.263 13.5045V12.614C162.515 12.5057 162.822 12.4212 163.186 12.3605C163.555 12.2955 163.914 12.263 164.265 12.263C166.194 12.263 167.158 13.0885 167.158 14.7395C167.158 15.2508 167.058 15.7578 166.859 16.2605C166.664 16.7632 166.319 17.3655 165.825 18.0675L163.713 21.116H167.613ZM170.648 23.56L167.996 11.496H169.01L171.656 23.56H170.648ZM175.143 22.1235C174.168 22.1235 173.433 21.8332 172.939 21.2525C172.445 20.6718 172.198 19.7467 172.198 18.477C172.198 17.203 172.467 16.28 173.004 15.708C173.542 15.1317 174.343 14.8435 175.409 14.8435C175.89 14.8435 176.33 14.8955 176.729 14.9995V15.864C176.317 15.76 175.919 15.708 175.533 15.708C175 15.708 174.569 15.7947 174.239 15.968C173.91 16.1413 173.663 16.4273 173.498 16.826C173.338 17.2247 173.258 17.7663 173.258 18.451C173.258 19.1443 173.334 19.6968 173.485 20.1085C173.637 20.5202 173.86 20.8148 174.155 20.9925C174.45 21.1702 174.829 21.259 175.292 21.259C175.713 21.259 176.192 21.1702 176.729 20.9925V21.8505C176.209 22.0325 175.68 22.1235 175.143 22.1235ZM184.487 14.8435C185.098 14.8435 185.583 15.032 185.943 15.409C186.303 15.7817 186.482 16.3883 186.482 17.229V22H185.475V17.268C185.475 16.254 185.063 15.747 184.24 15.747C183.954 15.747 183.666 15.8207 183.375 15.968C183.085 16.1153 182.842 16.3493 182.647 16.67C182.665 16.8217 182.673 16.9993 182.673 17.203V22H181.672V17.268C181.672 16.722 181.566 16.332 181.354 16.098C181.146 15.864 180.851 15.747 180.47 15.747C180.175 15.747 179.876 15.8272 179.573 15.9875C179.274 16.1478 179.029 16.3948 178.838 16.7285V22H177.824V14.9475H178.676L178.754 15.7405H178.819C179.07 15.4415 179.361 15.2183 179.69 15.071C180.019 14.9193 180.372 14.8435 180.749 14.8435C181.573 14.8435 182.134 15.1772 182.433 15.8445C182.719 15.4935 183.04 15.24 183.395 15.084C183.75 14.9237 184.114 14.8435 184.487 14.8435ZM190.458 22.1235C189.682 22.1235 189.056 21.8462 188.579 21.2915C188.103 20.7368 187.864 19.8463 187.864 18.62C187.864 17.3503 188.148 16.4035 188.716 15.7795C189.288 15.1512 190.126 14.837 191.231 14.837C191.522 14.837 191.849 14.8608 192.213 14.9085V11.496H193.227V22H192.362L192.291 21.272H192.226C192.031 21.5277 191.782 21.7335 191.478 21.8895C191.175 22.0455 190.835 22.1235 190.458 22.1235ZM190.679 21.246C190.982 21.246 191.273 21.1745 191.55 21.0315C191.827 20.8842 192.048 20.6718 192.213 20.3945V15.7665C192.07 15.7405 191.907 15.7188 191.725 15.7015C191.543 15.6798 191.372 15.669 191.212 15.669C190.436 15.669 189.858 15.8943 189.476 16.345C189.095 16.7957 188.904 17.5237 188.904 18.529C188.904 19.2223 188.978 19.7683 189.125 20.167C189.277 20.5657 189.481 20.8452 189.736 21.0055C189.996 21.1658 190.311 21.246 190.679 21.246ZM195.553 22.078C195.332 22.078 195.154 22.0152 195.02 21.8895C194.885 21.7638 194.818 21.5927 194.818 21.376C194.818 21.1593 194.885 20.986 195.02 20.856C195.154 20.726 195.332 20.661 195.553 20.661C195.774 20.661 195.951 20.726 196.086 20.856C196.22 20.986 196.287 21.1593 196.287 21.376C196.287 21.5883 196.22 21.7595 196.086 21.8895C195.951 22.0152 195.774 22.078 195.553 22.078ZM202.548 18.815H198.356C198.369 19.4303 198.456 19.9178 198.616 20.2775C198.781 20.6372 199.021 20.8972 199.337 21.0575C199.658 21.2135 200.074 21.2915 200.585 21.2915C201.058 21.2915 201.599 21.2027 202.21 21.025V21.8635C201.617 22.0368 201.036 22.1235 200.468 22.1235C199.762 22.1235 199.177 22.0022 198.713 21.7595C198.254 21.5125 197.907 21.1203 197.673 20.583C197.439 20.0457 197.322 19.3415 197.322 18.4705C197.322 17.2398 197.559 16.3277 198.031 15.734C198.503 15.1403 199.162 14.8435 200.007 14.8435C200.83 14.8435 201.459 15.1382 201.892 15.7275C202.33 16.3168 202.548 17.2398 202.548 18.4965V18.815ZM200 15.5845C199.489 15.5845 199.09 15.7773 198.804 16.163C198.523 16.5487 198.373 17.1987 198.356 18.113H201.567C201.558 17.4847 201.489 16.9842 201.359 16.6115C201.233 16.2388 201.058 15.9745 200.832 15.8185C200.607 15.6625 200.33 15.5845 200 15.5845ZM206.471 18.4315L208.85 22H207.706L205.867 19.192L204.034 22H202.922L205.282 18.451L202.955 14.9475H204.099L205.893 17.6775L207.68 14.9475H208.792L206.471 18.4315ZM214.444 18.815H210.251C210.264 19.4303 210.351 19.9178 210.511 20.2775C210.676 20.6372 210.917 20.8972 211.233 21.0575C211.554 21.2135 211.97 21.2915 212.481 21.2915C212.953 21.2915 213.495 21.2027 214.106 21.025V21.8635C213.512 22.0368 212.932 22.1235 212.364 22.1235C211.658 22.1235 211.073 22.0022 210.609 21.7595C210.15 21.5125 209.803 21.1203 209.569 20.583C209.335 20.0457 209.218 19.3415 209.218 18.4705C209.218 17.2398 209.454 16.3277 209.926 15.734C210.399 15.1403 211.057 14.8435 211.902 14.8435C212.726 14.8435 213.354 15.1382 213.787 15.7275C214.225 16.3168 214.444 17.2398 214.444 18.4965V18.815ZM211.896 15.5845C211.385 15.5845 210.986 15.7773 210.7 16.163C210.418 16.5487 210.269 17.1987 210.251 18.113H213.462C213.454 17.4847 213.384 16.9842 213.254 16.6115C213.129 16.2388 212.953 15.9745 212.728 15.8185C212.503 15.6625 212.225 15.5845 211.896 15.5845Z" fill="black"/>
<rect x="10" y="6" width="30" height="21" fill="#181515"/>
<rect x="10" y="6" width="30" height="4" fill="#D9D9D9"/>
<rect x="10.5" y="6.5" width="29" height="3" stroke="black" stroke-opacity="0.6"/>
<path d="M17.135 24.1235C15.6227 24.1235 14.47 23.7313 13.677 22.947C12.884 22.1627 12.4875 20.9168 12.4875 19.2095C12.4875 17.5498 12.8992 16.3105 13.7225 15.4915C14.5458 14.6682 15.7245 14.2565 17.2585 14.2565C17.9518 14.2565 18.5953 14.3302 19.189 14.4775V16.174C18.5997 16.0267 18.0103 15.953 17.421 15.953C16.784 15.953 16.2597 16.0592 15.848 16.2715C15.4363 16.4838 15.1265 16.8283 14.9185 17.305C14.7105 17.7773 14.6065 18.4035 14.6065 19.1835C14.6065 19.9895 14.7083 20.6308 14.912 21.1075C15.12 21.5798 15.4255 21.9178 15.8285 22.1215C16.2315 22.3252 16.7493 22.427 17.382 22.427C17.9237 22.427 18.526 22.3208 19.189 22.1085V23.805C18.9073 23.9047 18.5867 23.9827 18.227 24.039C17.8673 24.0953 17.5033 24.1235 17.135 24.1235ZM21.2629 24.1105C20.8729 24.1105 20.5587 23.9978 20.3204 23.7725C20.0864 23.5472 19.9694 23.2417 19.9694 22.856C19.9694 22.4703 20.0864 22.1648 20.3204 21.9395C20.5544 21.7142 20.8686 21.6015 21.2629 21.6015C21.6572 21.6015 21.9714 21.7163 22.2054 21.946C22.4437 22.1757 22.5629 22.479 22.5629 22.856C22.5629 23.233 22.4437 23.5363 22.2054 23.766C21.9671 23.9957 21.6529 24.1105 21.2629 24.1105ZM21.2629 19.2875C20.8729 19.2875 20.5587 19.1748 20.3204 18.9495C20.0864 18.7242 19.9694 18.4187 19.9694 18.033C19.9694 17.6473 20.0864 17.3418 20.3204 17.1165C20.5544 16.8912 20.8686 16.7785 21.2629 16.7785C21.6572 16.7785 21.9714 16.8933 22.2054 17.123C22.4437 17.3527 22.5629 17.656 22.5629 18.033C22.5629 18.41 22.4437 18.7133 22.2054 18.943C21.9671 19.1727 21.6529 19.2875 21.2629 19.2875ZM25.7118 25.56L22.9688 13.496H24.9058L27.6423 25.56H25.7118ZM28.1931 25.5665V24H34.3876V25.5665H28.1931Z" fill="white"/>
<rect x="29" y="7" width="2" height="2" fill="#1D1A1A"/>
<rect x="33" y="7" width="2" height="2" fill="#1D1A1A"/>
<rect x="37" y="7" width="2" height="2" fill="#1D1A1A"/>
</svg>
