<svg width="60" height="61" viewBox="0 0 60 61" fill="none" xmlns="http://www.w3.org/2000/svg">
<path d="M57.7734 19.6016C59.1797 20.6562 60 22.2969 60 24.0547V53C60 57.2188 56.6016 60.5 52.5 60.5H7.5C3.28125 60.5 0 57.2188 0 53V24.0547C0 22.2969 0.703125 20.6562 2.10938 19.6016C5.03906 17.375 7.38281 15.5 21.3281 5.42188C23.3203 4.01562 27.1875 0.5 29.8828 0.5H30C32.6953 0.5 36.5625 4.01562 38.5547 5.42188C52.5 15.5 54.8438 17.375 57.7734 19.6016ZM54.375 53V32.9609L38.3203 46.2031C35.9766 48.1953 33.0469 49.25 30 49.25C26.8359 49.25 23.9062 48.1953 21.5625 46.3203L5.625 32.9609V53C5.625 54.0547 6.44531 54.875 7.5 54.875H52.5C53.4375 54.875 54.375 54.0547 54.375 53ZM54.375 25.6953V24.0547C51.5625 21.9453 49.3359 20.1875 35.2734 9.99219C34.8047 9.64062 34.4531 9.40625 33.9844 9.05469C33.0469 8.23438 31.0547 6.71094 30 6.24219C28.8281 6.71094 26.8359 8.23438 25.8984 9.05469C25.4297 9.40625 25.0781 9.64062 24.7266 9.99219C10.5469 20.1875 8.32031 21.9453 5.625 24.0547V25.6953L25.0781 41.8672C27.7734 44.0938 32.1094 44.0938 34.8047 41.8672L54.375 25.6953Z" fill="black"/>
<path d="M57.7734 19.6016L56.5632 21.1939L56.5734 21.2016L57.7734 19.6016ZM2.10938 19.6016L3.3094 21.2016L3.31954 21.1939L2.10938 19.6016ZM21.3281 5.42188L20.1748 3.78794L20.1657 3.79436L20.1566 3.80088L21.3281 5.42188ZM38.5547 5.42188L39.7262 3.80088L39.7171 3.79436L39.7081 3.78794L38.5547 5.42188ZM54.375 32.9609H56.375V28.7188L53.1024 31.4181L54.375 32.9609ZM38.3203 46.2031L37.0477 44.6602L37.0363 44.6697L37.025 44.6792L38.3203 46.2031ZM21.5625 46.3203L20.2777 47.8531L20.2952 47.8678L20.3131 47.8821L21.5625 46.3203ZM5.625 32.9609L6.9098 31.4282L3.625 28.6748V32.9609H5.625ZM54.375 25.6953L55.649 27.237L56.375 26.6371V25.6953H54.375ZM54.375 24.0547H56.375V23.0547L55.575 22.4547L54.375 24.0547ZM35.2734 9.99219L34.0734 11.5922L34.0864 11.6019L34.0995 11.6114L35.2734 9.99219ZM33.9844 9.05469L32.6674 10.5598L32.7241 10.6095L32.7844 10.6547L33.9844 9.05469ZM30 6.24219L30.8123 4.41456L30.0409 4.07175L29.2572 4.38523L30 6.24219ZM25.8984 9.05469L27.0984 10.6547L27.1587 10.6095L27.2154 10.5598L25.8984 9.05469ZM24.7266 9.99219L25.8941 11.616L26.026 11.5212L26.1408 11.4064L24.7266 9.99219ZM5.625 24.0547L4.39238 22.4797L3.625 23.0802V24.0547H5.625ZM5.625 25.6953H3.625V26.6335L4.34645 27.2333L5.625 25.6953ZM25.0781 41.8672L23.7996 43.4052L23.8044 43.4091L25.0781 41.8672ZM34.8047 41.8672L36.0785 43.4091L36.0787 43.4089L34.8047 41.8672ZM56.5734 21.2016C57.4761 21.8785 58 22.9264 58 24.0547H62C62 21.6674 60.8833 19.434 58.9734 18.0016L56.5734 21.2016ZM58 24.0547V53H62V24.0547H58ZM58 53C58 56.0939 55.5174 58.5 52.5 58.5V62.5C57.6857 62.5 62 58.3436 62 53H58ZM52.5 58.5H7.5V62.5H52.5V58.5ZM7.5 58.5C4.38582 58.5 2 56.1142 2 53H-2C-2 58.3233 2.17668 62.5 7.5 62.5V58.5ZM2 53V24.0547H-2V53H2ZM2 24.0547C2 22.8304 2.47891 21.8244 3.30938 21.2016L0.909375 18.0016C-1.07266 19.4881 -2 21.7634 -2 24.0547H2ZM3.31954 21.1939C6.2415 18.9732 8.57159 17.1085 22.4996 7.04287L20.1566 3.80088C6.19403 13.8915 3.83662 15.7768 0.899208 18.0092L3.31954 21.1939ZM22.4815 7.05581C23.0242 6.6727 23.6921 6.14807 24.3465 5.64419C25.026 5.12092 25.7412 4.58007 26.4656 4.08803C27.1945 3.59292 27.8885 3.1779 28.5175 2.89173C29.1663 2.59651 29.6139 2.5 29.8828 2.5V-1.5C28.8041 -1.5 27.7575 -1.15705 26.861 -0.749148C25.9445 -0.332196 25.0419 0.21958 24.218 0.77916C23.3897 1.3418 22.5961 1.94354 21.906 2.47495C21.1907 3.02576 20.6281 3.46792 20.1748 3.78794L22.4815 7.05581ZM29.8828 2.5H30V-1.5H29.8828V2.5ZM30 2.5C30.269 2.5 30.7165 2.59651 31.3653 2.89173C31.9943 3.1779 32.6883 3.59292 33.4172 4.08803C34.1417 4.58007 34.8568 5.12092 35.5364 5.64419C36.1907 6.14807 36.8586 6.6727 37.4013 7.05581L39.7081 3.78794C39.2547 3.46792 38.6921 3.02576 37.9768 2.47495C37.2867 1.94354 36.4931 1.3418 35.6648 0.77916C34.841 0.21958 33.9383 -0.332196 33.0219 -0.749148C32.1253 -1.15705 31.0787 -1.5 30 -1.5V2.5ZM37.3832 7.04287C51.3112 17.1085 53.6413 18.9732 56.5633 21.1939L58.9836 18.0092C56.0462 15.7768 53.6888 13.8915 39.7262 3.80088L37.3832 7.04287ZM56.375 53V32.9609H52.375V53H56.375ZM53.1024 31.4181L37.0477 44.6602L39.5929 47.746L55.6476 34.5038L53.1024 31.4181ZM37.025 44.6792C35.0486 46.3592 32.5798 47.25 30 47.25V51.25C33.5139 51.25 36.9046 50.0314 39.6156 47.727L37.025 44.6792ZM30 47.25C27.2894 47.25 24.8005 46.3495 22.8119 44.7586L20.3131 47.8821C23.012 50.0412 26.3825 51.25 30 51.25V47.25ZM22.8473 44.7876L6.9098 31.4282L4.3402 34.4937L20.2777 47.8531L22.8473 44.7876ZM3.625 32.9609V53H7.625V32.9609H3.625ZM3.625 53C3.625 55.1593 5.34074 56.875 7.5 56.875V52.875C7.49769 52.875 7.50909 52.875 7.52812 52.8829C7.5462 52.8904 7.56482 52.9024 7.58121 52.9188C7.59759 52.9352 7.60964 52.9538 7.61714 52.9719C7.62503 52.9909 7.625 53.0023 7.625 53H3.625ZM7.5 56.875H52.5V52.875H7.5V56.875ZM52.5 56.875C54.461 56.875 56.375 55.2386 56.375 53H52.375C52.375 52.9631 52.3839 52.9305 52.3936 52.9092C52.4021 52.8907 52.4083 52.8861 52.4053 52.889C52.4017 52.8924 52.3998 52.8924 52.4062 52.8897C52.4128 52.8869 52.4435 52.875 52.5 52.875V56.875ZM56.375 25.6953V24.0547H52.375V25.6953H56.375ZM55.575 22.4547C52.7609 20.3441 50.5236 18.5782 36.4474 8.37297L34.0995 11.6114C48.1483 21.7968 50.3641 23.5465 53.175 25.6547L55.575 22.4547ZM36.4734 8.39219C36.2181 8.20071 35.9955 8.04175 35.7914 7.89597C35.5853 7.74878 35.3978 7.61477 35.1844 7.45469L32.7844 10.6547C33.0397 10.8462 33.2623 11.0051 33.4664 11.1509C33.6725 11.2981 33.86 11.4321 34.0734 11.5922L36.4734 8.39219ZM35.3014 7.54953C34.7807 7.09395 33.9998 6.47032 33.2106 5.89776C32.4591 5.35252 31.5493 4.74212 30.8123 4.41456L29.1877 8.06981C29.5054 8.211 30.1191 8.59669 30.8617 9.13545C31.5666 9.64687 32.2505 10.1951 32.6674 10.5598L35.3014 7.54953ZM29.2572 4.38523C28.4334 4.71477 27.4771 5.33538 26.7018 5.88702C25.8882 6.46591 25.103 7.09317 24.5814 7.54953L27.2154 10.5598C27.6314 10.1959 28.311 9.65128 29.0208 9.14618C29.769 8.61384 30.3948 8.23835 30.7428 8.09914L29.2572 4.38523ZM24.6984 7.45469C24.3315 7.7299 23.7959 8.09439 23.3123 8.57797L26.1408 11.4064C26.3603 11.1869 26.5279 11.0826 27.0984 10.6547L24.6984 7.45469ZM23.559 8.36836C9.37084 18.5698 7.11905 20.3458 4.39238 22.4797L6.85762 25.6297C9.52158 23.5449 11.7229 21.8052 25.8941 11.616L23.559 8.36836ZM3.625 24.0547V25.6953H7.625V24.0547H3.625ZM4.34645 27.2333L23.7996 43.4051L26.3567 40.3292L6.90355 24.1574L4.34645 27.2333ZM23.8044 43.4091C27.239 46.2464 32.6438 46.2464 36.0785 43.4091L33.5309 40.3253C31.575 41.9411 28.3078 41.9411 26.3519 40.3253L23.8044 43.4091ZM36.0787 43.4089L55.649 27.237L53.101 24.1536L33.5307 40.3255L36.0787 43.4089Z" fill="black"/>
</svg>
