<svg width="56" height="56" viewBox="0 0 56 56" fill="none" xmlns="http://www.w3.org/2000/svg">
<g filter="url(#filter0_d_115_53)">
<path d="M50.2188 15.2812C51.3438 16.125 52 17.4375 52 18.8438V42C52 45.375 49.2812 48 46 48H10C6.625 48 4 45.375 4 42V18.8438C4 17.4375 4.5625 16.125 5.6875 15.2812C8.03125 13.5 9.90625 12 21.0625 3.9375C22.6562 2.8125 25.75 0 27.9062 0H28C30.1562 0 33.25 2.8125 34.8438 3.9375C46 12 47.875 13.5 50.2188 15.2812ZM47.5 42V25.9688L34.6562 36.5625C32.7812 38.1562 30.4375 39 28 39C25.4688 39 23.125 38.1562 21.25 36.6562L8.5 25.9688V42C8.5 42.8438 9.15625 43.5 10 43.5H46C46.75 43.5 47.5 42.8438 47.5 42ZM47.5 20.1562V18.8438C45.25 17.1562 43.4688 15.75 32.2188 7.59375C31.8438 7.3125 31.5625 7.125 31.1875 6.84375C30.4375 6.1875 28.8438 4.96875 28 4.59375C27.0625 4.96875 25.4688 6.1875 24.7188 6.84375C24.3438 7.125 24.0625 7.3125 23.7812 7.59375C12.4375 15.75 10.6562 17.1562 8.5 18.8438V20.1562L24.0625 33.0938C26.2188 34.875 29.6875 34.875 31.8438 33.0938L47.5 20.1562Z" fill="#F96FFC"/>
<path d="M50.2188 15.2812L49.0086 16.8736L49.0187 16.8813L50.2188 15.2812ZM5.6875 15.2812L6.88752 16.8813L6.89767 16.8736L5.6875 15.2812ZM21.0625 3.9375L19.9091 2.30356L19.9 2.30998L19.891 2.3165L21.0625 3.9375ZM34.8438 3.9375L36.0152 2.3165L36.0062 2.30998L35.9971 2.30356L34.8438 3.9375ZM47.5 25.9688H49.5V21.7266L46.2274 24.4259L47.5 25.9688ZM34.6562 36.5625L33.3837 35.0196L33.3722 35.029L33.361 35.0386L34.6562 36.5625ZM21.25 36.6562L19.9652 38.189L19.9827 38.2037L20.0006 38.218L21.25 36.6562ZM8.5 25.9688L9.7848 24.436L6.5 21.6826V25.9688H8.5ZM47.5 20.1562L48.774 21.698L49.5 21.098V20.1562H47.5ZM47.5 18.8438H49.5V17.8438L48.7 17.2437L47.5 18.8438ZM32.2188 7.59375L31.0187 9.19375L31.0317 9.20347L31.0448 9.21297L32.2188 7.59375ZM31.1875 6.84375L29.8705 8.3489L29.9272 8.39853L29.9875 8.44375L31.1875 6.84375ZM28 4.59375L28.8123 2.76613L28.0409 2.42331L27.2572 2.7368L28 4.59375ZM24.7188 6.84375L25.9188 8.44375L25.979 8.39853L26.0358 8.3489L24.7188 6.84375ZM23.7812 7.59375L24.9488 9.21758L25.0806 9.12279L25.1955 9.00796L23.7812 7.59375ZM8.5 18.8438L7.26738 17.2687L6.5 17.8693V18.8438H8.5ZM8.5 20.1562H6.5V21.0944L7.22145 21.6942L8.5 20.1562ZM24.0625 33.0938L22.7839 34.6317L22.7887 34.6357L24.0625 33.0938ZM31.8438 33.0938L33.1175 34.6357L33.1178 34.6355L31.8438 33.0938ZM49.0187 16.8813C49.6401 17.3473 50 18.067 50 18.8438H54C54 16.808 53.0474 14.9027 51.4188 13.6812L49.0187 16.8813ZM50 18.8438V42H54V18.8438H50ZM50 42C50 44.2501 48.1971 46 46 46V50C50.3654 50 54 46.4999 54 42H50ZM46 46H10V50H46V46ZM10 46C7.72957 46 6 44.2704 6 42H2C2 46.4796 5.52043 50 10 50V46ZM6 42V18.8438H2V42H6ZM6 18.8438C6 17.971 6.33828 17.2932 6.8875 16.8813L4.4875 13.6812C2.78672 14.9568 2 16.904 2 18.8438H6ZM6.89767 16.8736C9.23369 15.0982 11.095 13.6085 22.234 5.5585L19.891 2.3165C8.71747 10.3915 6.82881 11.9018 4.47733 13.6889L6.89767 16.8736ZM22.2159 5.57144C22.659 5.25864 23.2038 4.83068 23.7212 4.43227C24.2638 4.01447 24.8281 3.58789 25.3972 3.20131C25.9708 2.81167 26.5052 2.49333 26.9796 2.27747C27.4739 2.05256 27.7721 2 27.9062 2V-2C26.9623 -2 26.0651 -1.701 25.3231 -1.36341C24.5612 -1.01677 23.8182 -0.56167 23.1497 -0.107558C22.4766 0.349613 21.8339 0.837092 21.2807 1.26304C20.7024 1.70838 20.2629 2.05386 19.9091 2.30356L22.2159 5.57144ZM27.9062 2H28V-2H27.9062V2ZM28 2C28.1342 2 28.4323 2.05256 28.9266 2.27747C29.4011 2.49333 29.9354 2.81167 30.509 3.20131C31.0782 3.58789 31.6425 4.01447 32.185 4.43227C32.7024 4.83068 33.2473 5.25864 33.6904 5.57144L35.9971 2.30356C35.6434 2.05386 35.2038 1.70838 34.6255 1.26304C34.0724 0.837092 33.4296 0.349613 32.7566 -0.107558C32.088 -0.56167 31.345 -1.01677 30.5831 -1.36341C29.8411 -1.701 28.9439 -2 28 -2V2ZM33.6723 5.5585C44.8112 13.6085 46.6726 15.0982 49.0086 16.8736L51.4289 13.6889C49.0774 11.9018 47.1888 10.3915 36.0152 2.3165L33.6723 5.5585ZM49.5 42V25.9688H45.5V42H49.5ZM46.2274 24.4259L33.3837 35.0196L35.9288 38.1054L48.7726 27.5116L46.2274 24.4259ZM33.361 35.0386C31.8532 36.3202 29.9704 37 28 37V41C30.9046 41 33.7093 39.9923 35.9515 38.0864L33.361 35.0386ZM28 37C25.9222 37 24.0192 36.3104 22.4994 35.0945L20.0006 38.218C22.2308 40.0021 25.0153 41 28 41V37ZM22.5348 35.1235L9.7848 24.436L7.2152 27.5015L19.9652 38.189L22.5348 35.1235ZM6.5 25.9688V42H10.5V25.9688H6.5ZM6.5 42C6.5 43.9483 8.05168 45.5 10 45.5V41.5C10.1096 41.5 10.243 41.5474 10.3478 41.6522C10.4526 41.757 10.5 41.8904 10.5 42H6.5ZM10 45.5H46V41.5H10V45.5ZM46 45.5C47.7735 45.5 49.5 44.0277 49.5 42H45.5C45.5 41.8093 45.5865 41.6808 45.6474 41.6224C45.6964 41.5755 45.8038 41.5 46 41.5V45.5ZM49.5 20.1562V18.8438H45.5V20.1562H49.5ZM48.7 17.2437C46.4484 15.555 44.6564 14.1407 33.3927 5.97453L31.0448 9.21297C42.2811 17.3593 44.0516 18.7575 46.3 20.4438L48.7 17.2437ZM33.4188 5.99375C33.2103 5.83742 33.0287 5.70777 32.8656 5.59128C32.7006 5.47339 32.5541 5.36867 32.3875 5.24375L29.9875 8.44375C30.1959 8.60008 30.3776 8.72973 30.5406 8.84622C30.7057 8.96411 30.8522 9.06883 31.0187 9.19375L33.4188 5.99375ZM32.5045 5.3386C32.0776 4.96505 31.4431 4.4586 30.8034 3.99444C30.2012 3.5576 29.4438 3.04681 28.8123 2.76613L27.1877 6.42137C27.3999 6.51569 27.8613 6.80177 28.4545 7.23212C29.01 7.63515 29.5474 8.0662 29.8705 8.3489L32.5045 5.3386ZM27.2572 2.7368C26.5506 3.01946 25.7525 3.54046 25.1296 3.9837C24.4683 4.45419 23.8295 4.96426 23.4017 5.3386L26.0358 8.3489C26.358 8.06699 26.8911 7.63956 27.4486 7.24286C28.0444 6.81892 28.5119 6.54304 28.7428 6.4507L27.2572 2.7368ZM23.5187 5.24375C23.2456 5.44865 22.7803 5.76626 22.367 6.17954L25.1955 9.00796C25.3447 8.85874 25.4419 8.80135 25.9188 8.44375L23.5187 5.24375ZM22.6137 5.96992C11.2615 14.1323 9.45498 15.5567 7.26738 17.2687L9.73262 20.4188C11.8575 18.7558 13.6135 17.3677 24.9488 9.21758L22.6137 5.96992ZM6.5 18.8438V20.1562H10.5V18.8438H6.5ZM7.22145 21.6942L22.784 34.6317L25.341 31.5558L9.77855 18.6183L7.22145 21.6942ZM22.7887 34.6357C25.6843 37.0277 30.2219 37.0277 33.1175 34.6357L30.57 31.5518C29.1531 32.7223 26.7532 32.7223 25.3363 31.5518L22.7887 34.6357ZM33.1178 34.6355L48.774 21.698L46.226 18.6145L30.5697 31.552L33.1178 34.6355Z" fill="black"/>
</g>
<defs>
<filter id="filter0_d_115_53" x="0" y="0" width="56" height="56" filterUnits="userSpaceOnUse" color-interpolation-filters="sRGB">
<feFlood flood-opacity="0" result="BackgroundImageFix"/>
<feColorMatrix in="SourceAlpha" type="matrix" values="0 0 0 0 0 0 0 0 0 0 0 0 0 0 0 0 0 0 127 0" result="hardAlpha"/>
<feOffset dy="4"/>
<feGaussianBlur stdDeviation="2"/>
<feComposite in2="hardAlpha" operator="out"/>
<feColorMatrix type="matrix" values="0 0 0 0 0 0 0 0 0 0 0 0 0 0 0 0 0 0 0.25 0"/>
<feBlend mode="normal" in2="BackgroundImageFix" result="effect1_dropShadow_115_53"/>
<feBlend mode="normal" in="SourceGraphic" in2="effect1_dropShadow_115_53" result="shape"/>
</filter>
</defs>
</svg>
