<svg width="56" height="55" viewBox="0 0 56 55" fill="none" xmlns="http://www.w3.org/2000/svg">
<g filter="url(#filter0_d_115_51)">
<path d="M35.9967 37.4505C35.995 37.263 36.1808 37.0738 36.462 37.0713C36.7433 37.0687 36.9325 37.2545 36.9342 37.442C36.9358 37.6295 36.75 37.8187 36.468 37.7275C36.1867 37.73 35.9984 37.638 35.9967 37.4505ZM38.8986 36.9556C38.8032 36.7689 38.5211 36.6777 38.2407 36.774C37.9603 36.8703 37.8682 37.0586 37.8699 37.2461C37.9654 37.4327 38.2474 37.5239 38.4341 37.4285C38.7153 37.426 38.9003 37.143 38.8986 36.9556ZM34.6792 36.8999C34.4908 36.8078 34.2113 36.9978 34.213 37.1853C34.1209 37.3737 34.3093 37.4657 34.5913 37.5569C34.8734 37.6481 35.1538 37.5519 35.1521 37.3644C35.1496 37.0831 34.9604 36.8973 34.6792 36.8999ZM28.261 0.956278C15.2303 1.07381 4.72658 11.1064 4.84326 24.0434C4.93711 34.4492 11.3922 43.2976 20.7947 46.3067C22.0159 46.577 22.4779 45.8228 22.472 45.1665C22.4652 44.4166 22.336 40.4801 22.3081 37.3865C22.2878 35.1365 23.0251 33.7236 23.862 32.966C18.6071 32.4509 13.0694 31.7508 12.9882 22.7512C12.9645 20.1263 13.891 18.8991 15.3757 17.1982C15.1823 16.5436 14.3166 14.1138 15.5994 10.8209C17.5622 10.1469 22.0908 13.2937 22.0908 13.2937C23.9606 12.7143 25.9276 12.509 27.99 12.4904C29.9587 12.4727 31.929 12.6424 33.809 13.188C33.809 13.188 38.3747 10.0529 40.2547 10.5985C41.5967 13.8678 40.8687 16.3119 40.5934 16.9707C42.1086 18.6446 42.8695 19.8565 42.8932 22.4814C42.9744 31.4811 37.6376 32.2792 32.3929 32.8891C33.1488 33.5385 33.7206 34.5647 33.9216 36.0629C35.3337 36.7064 38.7179 37.7072 40.7473 34.0325C42.0395 31.7708 44.3814 31.5621 44.3814 31.5621C46.6313 31.5418 44.4887 33.0612 44.4887 33.0612C42.9947 33.731 41.988 36.4589 41.988 36.4589C40.6199 40.6902 34.0449 39.3432 34.0449 39.3432C34.0627 41.3118 34.0914 44.4992 34.0974 45.1554C34.1024 45.7179 34.4842 46.4645 35.7012 46.266C45.0471 42.9941 51.4352 34.0299 51.3414 23.624C51.2247 10.6871 41.198 0.839596 28.261 0.956278ZM42.3334 33.1744C42.2388 33.0815 42.0521 33.177 41.8655 33.2724C41.6797 33.4616 41.6822 33.7428 41.7768 33.8357C41.9652 33.9278 42.1518 33.8323 42.3385 33.7369C42.4305 33.5486 42.5217 33.2665 42.3334 33.1744ZM43.3578 32.4152C43.2632 32.3223 43.1695 32.3231 42.9828 32.4185C42.7962 32.514 42.7033 32.6086 42.7041 32.7023C42.7996 32.889 42.9871 32.8873 43.1737 32.7918C43.3604 32.6964 43.4533 32.6018 43.3578 32.4152ZM40.3884 35.8171C40.1992 35.6313 39.9188 35.7276 39.733 35.9167C39.5472 36.1059 39.5497 36.3872 39.6443 36.4801C39.7398 36.6667 40.0202 36.5704 40.206 36.3812C40.4855 36.1912 40.483 35.91 40.3884 35.8171ZM41.4069 34.4016C41.2186 34.3095 41.0319 34.405 40.8461 34.5941C40.7541 34.7825 40.7566 35.0637 40.8512 35.1566C41.0395 35.2487 41.2262 35.1532 41.412 34.9641C41.5978 34.7749 41.5953 34.4936 41.4069 34.4016Z" fill="#F96FFC"/>
<path d="M36.468 37.7275L36.4499 35.7276L36.7745 35.7247L37.0833 35.8245L36.468 37.7275ZM38.8986 36.9556L40.6793 36.045L40.8943 36.4654L40.8985 36.9375L38.8986 36.9556ZM37.8699 37.2461L36.0892 38.1566L35.8743 37.7362L35.87 37.2641L37.8699 37.2461ZM38.4341 37.4285L37.5236 35.6478L37.9439 35.4329L38.4161 35.4286L38.4341 37.4285ZM34.6792 36.8999L34.6972 38.8998L34.2251 38.904L33.8009 38.6967L34.6792 36.8999ZM34.213 37.1853L36.2129 37.1673L36.2172 37.6394L36.0098 38.0636L34.213 37.1853ZM20.7947 46.3067L20.3626 48.2595L20.2727 48.2396L20.1851 48.2115L20.7947 46.3067ZM23.862 32.966L24.0571 30.9755L28.5543 31.4164L25.2042 34.4488L23.862 32.966ZM15.3757 17.1982L17.2937 16.6314L17.6052 17.6854L16.8824 18.5133L15.3757 17.1982ZM15.5994 10.8209L13.7359 10.0949L14.0726 9.23055L14.9499 8.92929L15.5994 10.8209ZM22.0908 13.2937L22.6827 15.2041L21.7507 15.4929L20.9495 14.9361L22.0908 13.2937ZM33.809 13.188L34.9411 14.8367L34.1608 15.3726L33.2516 15.1087L33.809 13.188ZM40.2547 10.5985L40.8121 8.67774L41.7385 8.94659L42.1049 9.839L40.2547 10.5985ZM40.5934 16.9707L39.1107 18.3129L38.2584 17.3713L38.7481 16.1995L40.5934 16.9707ZM32.3929 32.8891L31.0895 34.406L27.6257 31.4299L32.1619 30.9024L32.3929 32.8891ZM33.9216 36.0629L33.0922 37.8828L32.0864 37.4244L31.9394 36.3289L33.9216 36.0629ZM40.7473 34.0325L38.9966 33.0656L39.0036 33.053L39.0107 33.0404L40.7473 34.0325ZM44.3814 31.5621L44.204 29.57L44.2835 29.5629L44.3634 29.5622L44.3814 31.5621ZM44.4887 33.0612L45.6456 34.6927L45.4857 34.8061L45.3068 34.8862L44.4887 33.0612ZM41.988 36.4589L40.085 35.8436L40.0976 35.8048L40.1117 35.7665L41.988 36.4589ZM34.0449 39.3432L32.045 39.3612L32.0227 36.8873L34.4463 37.3839L34.0449 39.3432ZM35.7012 46.266L36.362 48.1537L36.1964 48.2117L36.0231 48.2399L35.7012 46.266ZM42.3334 33.1744L41.4551 34.9713L41.1635 34.8287L40.932 34.6013L42.3334 33.1744ZM41.8655 33.2724L40.4386 31.871L40.666 31.6394L40.955 31.4917L41.8655 33.2724ZM41.7768 33.8357L40.8986 35.6326L40.607 35.49L40.3754 35.2626L41.7768 33.8357ZM42.3385 33.7369L44.1353 34.6152L43.8426 35.2141L43.249 35.5176L42.3385 33.7369ZM43.3578 32.4152L44.7592 30.9882L44.9908 31.2157L45.1385 31.5046L43.3578 32.4152ZM42.7041 32.7023L40.9234 33.6128L40.7085 33.1925L40.7042 32.7203L42.7041 32.7023ZM39.6443 36.4801L41.0457 35.0531L41.2773 35.2806L41.4251 35.5695L39.6443 36.4801ZM40.206 36.3812L38.7791 34.9798L38.9178 34.8385L39.0816 34.7272L40.206 36.3812ZM40.8461 34.5941L39.0493 33.7159L39.1918 33.4243L39.4192 33.1927L40.8461 34.5941ZM40.8512 35.1566L39.9729 36.9535L39.6814 36.8109L39.4498 36.5835L40.8512 35.1566ZM33.9968 37.4685C33.9826 35.8984 35.3586 35.0812 36.444 35.0714L36.4801 39.0712C37.003 39.0665 38.0074 38.6276 37.9966 37.4325L33.9968 37.4685ZM36.444 35.0714C37.5294 35.0616 38.9199 35.8539 38.9341 37.424L34.9342 37.4601C34.945 38.6552 35.9571 39.0759 36.4801 39.0712L36.444 35.0714ZM38.9341 37.424C38.9408 38.1698 38.5832 38.8704 37.9846 39.3062C37.3343 39.7796 36.5393 39.8525 35.8526 39.6305L37.0833 35.8245C36.6787 35.6937 36.1176 35.7176 35.6304 36.0724C35.1947 36.3895 34.9292 36.9017 34.9342 37.4601L38.9341 37.424ZM36.486 39.7274C36.1722 39.7303 35.66 39.6905 35.1509 39.4056C34.5328 39.0598 34.005 38.3781 33.9968 37.4685L37.9966 37.4325C37.9939 37.1306 37.9107 36.8004 37.7179 36.498C37.5312 36.2052 37.2956 36.0221 37.1041 35.9149C36.7599 35.7223 36.4825 35.7273 36.4499 35.7276L36.486 39.7274ZM37.1179 37.8661C37.3779 38.3746 37.8022 38.5983 38.0816 38.6794C38.3773 38.7652 38.6583 38.7452 38.8902 38.6656L37.5911 34.8824C38.4557 34.5855 39.9778 34.6731 40.6793 36.045L37.1179 37.8661ZM38.8902 38.6656C39.0739 38.6025 39.3604 38.4476 39.5874 38.1236C39.8112 37.8043 39.872 37.4706 39.8698 37.2281L35.87 37.2641C35.8661 36.8341 35.9722 36.3125 36.3116 35.8281C36.6544 35.339 37.1271 35.0417 37.5911 34.8824L38.8902 38.6656ZM39.6506 36.3356C39.4022 35.8497 39.005 35.628 38.7331 35.5401C38.4612 35.4522 38.0094 35.3994 37.5236 35.6478L39.3446 39.2092C38.6722 39.5531 37.986 39.5024 37.5025 39.3461C37.019 39.1897 36.4331 38.8291 36.0892 38.1566L39.6506 36.3356ZM38.4161 35.4286C37.8473 35.4337 37.454 35.7269 37.2555 35.958C37.0897 36.151 36.8943 36.4869 36.8987 36.9736L40.8985 36.9375C40.9046 37.6117 40.6176 38.1829 40.2894 38.5648C39.9285 38.9848 39.3022 39.4208 38.4521 39.4284L38.4161 35.4286ZM33.8009 38.6967C34.561 39.0682 35.2077 38.7787 35.4501 38.6241C35.6656 38.4867 36.2207 38.0341 36.2129 37.1673L32.2131 37.2034C32.2036 36.149 32.8976 35.5077 33.2996 35.2514C33.7284 34.978 34.609 34.6394 35.5574 35.103L33.8009 38.6967ZM36.0098 38.0636C36.1356 37.8063 36.2673 37.3597 36.1341 36.8257C36.006 36.3123 35.7027 36.0023 35.5283 35.8596C35.3622 35.7237 35.2224 35.6635 35.2005 35.6539C35.1671 35.6393 35.1593 35.6386 35.2067 35.6539L33.976 39.4599C33.876 39.4276 33.4003 39.2868 32.9954 38.9555C32.7502 38.7548 32.3995 38.3808 32.2531 37.7943C32.1016 37.1872 32.2443 36.6586 32.4161 36.3071L36.0098 38.0636ZM35.2067 35.6539C34.9974 35.5863 34.6898 35.5495 34.3286 35.6736C34.0064 35.7842 33.1422 36.267 33.1522 37.3824L37.1521 37.3463C37.1638 38.6492 36.1602 39.2739 35.6277 39.4567C35.0562 39.653 34.4674 39.6188 33.976 39.4599L35.2067 35.6539ZM33.1522 37.3824C33.155 37.6963 33.2722 38.1122 33.6188 38.4526C33.9654 38.793 34.3834 38.9026 34.6972 38.8998L34.6611 34.8999C35.2562 34.8946 35.9094 35.0958 36.4216 35.5988C36.9337 36.1018 37.1467 36.7512 37.1521 37.3463L33.1522 37.3824ZM28.279 2.9562C16.2729 3.06448 6.73716 12.2712 6.84318 24.0254L2.84334 24.0615C2.71599 9.94169 14.1876 -0.916871 28.243 -1.04364L28.279 2.9562ZM6.84318 24.0254C6.92957 33.6043 12.8577 41.6667 21.4043 44.4019L20.1851 48.2115C9.9267 44.9286 2.94465 35.2942 2.84334 24.0615L6.84318 24.0254ZM21.2268 44.354C21.3176 44.374 21.2898 44.3519 21.1809 44.3736C21.0612 44.3976 20.9079 44.4625 20.7676 44.5867C20.5007 44.8231 20.4712 45.0838 20.4721 45.1846L24.4719 45.1485C24.4787 45.9055 24.2212 46.8714 23.4194 47.5814C22.5537 48.348 21.425 48.4946 20.3626 48.2595L21.2268 44.354ZM20.4721 45.1846C20.4689 44.8308 20.4359 43.6957 20.3986 42.2054C20.3619 40.7388 20.3222 38.9681 20.3081 37.4045L24.308 37.3684C24.3218 38.8984 24.3607 40.6428 24.3973 42.1053C24.4333 43.5442 24.4683 44.7523 24.4719 45.1485L20.4721 45.1846ZM20.3081 37.4045C20.2838 34.7016 21.1789 32.697 22.5199 31.4832L25.2042 34.4488C24.8712 34.7502 24.2918 35.5715 24.308 37.3684L20.3081 37.4045ZM23.6669 34.9565C21.1379 34.7085 17.915 34.3933 15.3774 32.7056C12.6153 30.8686 11.0329 27.7159 10.9883 22.7692L14.9881 22.7331C15.0247 26.786 16.2517 28.4832 17.5925 29.3749C19.1578 30.416 21.3313 30.7083 24.0571 30.9755L23.6669 34.9565ZM10.9883 22.7692C10.9741 21.194 11.2494 19.9163 11.8194 18.7499C12.3626 17.6388 13.1298 16.7298 13.869 15.883L16.8824 18.5133C16.1369 19.3675 15.6985 19.9226 15.4131 20.5064C15.1547 21.0351 14.9786 21.6835 14.9881 22.7331L10.9883 22.7692ZM13.4577 17.7649C13.2456 17.0471 12.1946 14.0511 13.7359 10.0949L17.463 11.5469C16.4386 14.1765 17.119 16.0401 17.2937 16.6314L13.4577 17.7649ZM14.9499 8.92929C16.0409 8.55465 17.1915 8.7713 17.9914 8.99992C18.8663 9.24999 19.745 9.64304 20.4897 10.0228C21.2456 10.4083 21.9253 10.8121 22.4124 11.1165C22.6575 11.2696 22.8575 11.4 22.9983 11.4934C23.0688 11.5402 23.1247 11.5779 23.1641 11.6047C23.1839 11.6182 23.1996 11.6289 23.211 11.6367C23.2166 11.6406 23.2213 11.6438 23.2248 11.6463C23.2265 11.6475 23.228 11.6485 23.2292 11.6493C23.2298 11.6498 23.2304 11.6501 23.2308 11.6504C23.2311 11.6506 23.2314 11.6508 23.2315 11.6509C23.2318 11.6511 23.232 11.6513 22.0908 13.2937C20.9495 14.9361 20.9497 14.9362 20.9499 14.9364C20.95 14.9364 20.9502 14.9366 20.9503 14.9366C20.9505 14.9368 20.9506 14.9368 20.9506 14.9369C20.9507 14.937 20.9506 14.9368 20.9502 14.9365C20.9493 14.936 20.9474 14.9346 20.9445 14.9326C20.9386 14.9286 20.9286 14.9217 20.9147 14.9123C20.8869 14.8934 20.8436 14.8641 20.7864 14.8262C20.6718 14.7502 20.5027 14.6399 20.2926 14.5086C19.8692 14.244 19.2942 13.9032 18.6726 13.5862C18.0398 13.2636 17.4183 12.9963 16.8921 12.8459C16.2909 12.6741 16.1394 12.7501 16.249 12.7125L14.9499 8.92929ZM21.4988 11.3833C23.6182 10.7266 25.7951 10.5102 27.972 10.4905L28.008 14.4904C26.0601 14.5079 24.303 14.702 22.6827 15.2041L21.4988 11.3833ZM27.972 10.4905C30.0596 10.4717 32.2385 10.6497 34.3664 11.2672L33.2516 15.1087C31.6195 14.6351 29.8578 14.4737 28.008 14.4904L27.972 10.4905ZM33.809 13.188C32.6769 11.5393 32.6772 11.5391 32.6774 11.5389C32.6775 11.5388 32.6778 11.5387 32.678 11.5385C32.6784 11.5382 32.6789 11.5379 32.6795 11.5375C32.6807 11.5367 32.6821 11.5357 32.6838 11.5345C32.6872 11.5322 32.6917 11.5291 32.6973 11.5253C32.7085 11.5177 32.724 11.5072 32.7436 11.494C32.7828 11.4676 32.8384 11.4304 32.9087 11.3842C33.049 11.2917 33.2487 11.1624 33.4931 11.0098C33.9792 10.7066 34.6558 10.3033 35.4043 9.91413C36.1424 9.53044 37.0057 9.13129 37.8558 8.86463C38.619 8.62525 39.7433 8.3676 40.8121 8.67774L39.6973 12.5193C39.826 12.5566 39.6747 12.4863 39.053 12.6813C38.5183 12.849 37.8878 13.1313 37.2494 13.4632C36.6215 13.7896 36.0392 14.136 35.6105 14.4035C35.3975 14.5363 35.2258 14.6477 35.1091 14.7245C35.0509 14.7629 35.0065 14.7925 34.9779 14.8118C34.9636 14.8214 34.9533 14.8285 34.9471 14.8327C34.9439 14.8348 34.9419 14.8362 34.9409 14.8369C34.9404 14.8372 34.9402 14.8374 34.9402 14.8374C34.9402 14.8374 34.9403 14.8373 34.9405 14.8372C34.9406 14.8371 34.9407 14.837 34.9408 14.837C34.9409 14.8369 34.9411 14.8367 33.809 13.188ZM42.1049 9.839C43.691 13.7029 42.8708 16.7082 42.4387 17.7419L38.7481 16.1995C38.8667 15.9157 39.5025 14.0327 38.4045 11.358L42.1049 9.839ZM42.0762 15.6285C42.8688 16.5042 43.6086 17.4112 44.1229 18.5407C44.6502 19.699 44.8795 20.9501 44.8931 22.4634L40.8933 22.4995C40.8833 21.3879 40.7203 20.7206 40.4824 20.1982C40.2315 19.6471 39.8332 19.1111 39.1107 18.3129L42.0762 15.6285ZM44.8931 22.4634C44.9375 27.3841 43.4767 30.5669 40.7955 32.4641C38.3288 34.2094 35.1473 34.5823 32.6239 34.8757L32.1619 30.9024C34.8833 30.586 36.9925 30.2549 38.4851 29.1988C39.7632 28.2945 40.9301 26.5784 40.8933 22.4995L44.8931 22.4634ZM33.6963 31.3721C34.8934 32.4006 35.6508 33.9113 35.9038 35.7969L31.9394 36.3289C31.7903 35.218 31.4042 34.6764 31.0895 34.406L33.6963 31.3721ZM34.751 34.243C35.3152 34.5001 36.1338 34.7546 36.9023 34.6771C37.5233 34.6145 38.2983 34.3299 38.9966 33.0656L42.4981 34.9994C41.1668 37.4098 39.2351 38.4622 37.3036 38.657C35.5197 38.8369 33.9401 38.2692 33.0922 37.8828L34.751 34.243ZM39.0107 33.0404C39.9157 31.4564 41.1975 30.5874 42.2308 30.1242C42.7449 29.8937 43.2061 29.759 43.5489 29.6805C43.7213 29.6411 43.8667 29.6151 43.9776 29.5982C44.0331 29.5898 44.0804 29.5836 44.1183 29.5791C44.1373 29.5768 44.154 29.575 44.1683 29.5735C44.1755 29.5727 44.182 29.5721 44.188 29.5715C44.1909 29.5712 44.1938 29.571 44.1964 29.5707C44.1978 29.5706 44.1991 29.5705 44.2003 29.5704C44.2009 29.5703 44.2019 29.5702 44.2022 29.5702C44.2031 29.5701 44.204 29.57 44.3814 31.5621C44.5589 33.5542 44.5598 33.5542 44.5606 33.5541C44.5609 33.5541 44.5618 33.554 44.5623 33.5539C44.5634 33.5538 44.5645 33.5537 44.5656 33.5536C44.5677 33.5534 44.5696 33.5533 44.5715 33.5531C44.5752 33.5527 44.5784 33.5524 44.581 33.5521C44.5864 33.5516 44.5898 33.5512 44.5913 33.551C44.5943 33.5506 44.59 33.5511 44.579 33.5528C44.5568 33.5562 44.5091 33.5642 44.4417 33.5796C44.305 33.6109 44.1 33.6698 43.8671 33.7742C43.4063 33.9807 42.8711 34.3469 42.4839 35.0246L39.0107 33.0404ZM44.3634 29.5622C44.7367 29.5588 45.1368 29.5843 45.522 29.6817C45.8855 29.7735 46.4502 29.9834 46.8882 30.5127C47.3908 31.12 47.4709 31.8296 47.3731 32.3784C47.2881 32.8556 47.0749 33.2178 46.937 33.4222C46.6557 33.8395 46.2917 34.1696 46.0904 34.3423C45.9736 34.4424 45.869 34.5251 45.7925 34.5838C45.7537 34.6134 45.7211 34.6378 45.6962 34.6561C45.6837 34.6652 45.6731 34.6729 45.6647 34.679C45.6604 34.6821 45.6567 34.6848 45.6535 34.687C45.6519 34.6882 45.6505 34.6892 45.6491 34.6902C45.6485 34.6906 45.6478 34.6911 45.6473 34.6915C45.647 34.6917 45.6465 34.692 45.6464 34.6921C45.646 34.6924 45.6456 34.6927 44.4887 33.0612C43.3318 31.4298 43.3314 31.4301 43.3311 31.4303C43.3309 31.4304 43.3306 31.4307 43.3303 31.4308C43.3299 31.4312 43.3295 31.4315 43.3291 31.4317C43.3283 31.4323 43.3276 31.4328 43.327 31.4332C43.3259 31.434 43.3252 31.4345 43.3249 31.4347C43.3244 31.4351 43.3256 31.4342 43.3283 31.4323C43.3337 31.4283 43.3448 31.42 43.3603 31.4082C43.3921 31.3838 43.4373 31.348 43.4863 31.306C43.5367 31.2628 43.58 31.2224 43.6123 31.1892C43.6491 31.1512 43.6449 31.1498 43.6205 31.1859C43.6069 31.2062 43.577 31.2529 43.544 31.3243C43.5118 31.394 43.4641 31.514 43.4351 31.6767C43.4055 31.8431 43.3925 32.0717 43.4508 32.3342C43.5111 32.6059 43.6352 32.8559 43.8066 33.0629C43.9714 33.2621 44.1476 33.3831 44.2765 33.4527C44.4028 33.5209 44.5009 33.5494 44.5421 33.5598C44.5851 33.5707 44.5979 33.5698 44.5686 33.5671C44.5407 33.5645 44.4863 33.5613 44.3995 33.5621L44.3634 29.5622ZM45.3068 34.8862C45.3106 34.8846 45.2789 34.8986 45.2143 34.9511C45.1503 35.0031 45.0699 35.0801 44.9765 35.1875C44.7856 35.4069 44.593 35.6919 44.4137 36.005C44.2377 36.3125 44.0958 36.6094 43.9978 36.8311C43.9494 36.9405 43.9132 37.0281 43.8904 37.085C43.879 37.1133 43.8711 37.1338 43.8667 37.1453C43.8644 37.151 43.8631 37.1545 43.8627 37.1556C43.8625 37.1561 43.8626 37.156 43.8628 37.1553C43.863 37.155 43.8632 37.1545 43.8634 37.1538C43.8635 37.1535 43.8637 37.1531 43.8638 37.1527C43.8639 37.1525 43.864 37.1521 43.8641 37.152C43.8642 37.1517 43.8643 37.1513 41.988 36.4589C40.1117 35.7665 40.1118 35.7661 40.112 35.7657C40.112 35.7656 40.1122 35.7652 40.1123 35.7649C40.1125 35.7643 40.1127 35.7637 40.113 35.763C40.1135 35.7617 40.114 35.7602 40.1146 35.7586C40.1159 35.7552 40.1174 35.7512 40.1191 35.7466C40.1226 35.7373 40.1271 35.7253 40.1327 35.7109C40.1437 35.6821 40.1589 35.6434 40.1779 35.5958C40.216 35.5009 40.2702 35.3701 40.3395 35.2133C40.4769 34.9026 40.6801 34.4757 40.9425 34.0175C41.3961 33.2252 42.2899 31.8552 43.6706 31.2362L45.3068 34.8862ZM43.891 37.0742C42.8296 40.3567 39.7622 41.2598 37.714 41.4767C36.6331 41.5911 35.6275 41.5468 34.9058 41.4787C34.5407 41.4442 34.2376 41.4027 34.0207 41.3687C33.9121 41.3517 33.8244 41.3365 33.7607 41.3249C33.7288 41.3191 33.7029 41.3142 33.6832 41.3104C33.6734 41.3085 33.6652 41.3068 33.6585 41.3055C33.6552 41.3049 33.6523 41.3043 33.6498 41.3038C33.6486 41.3035 33.6474 41.3033 33.6464 41.3031C33.6458 41.303 33.6451 41.3028 33.6449 41.3028C33.6442 41.3026 33.6435 41.3025 34.0449 39.3432C34.4463 37.3839 34.4457 37.3837 34.4452 37.3836C34.445 37.3836 34.4444 37.3835 34.4441 37.3834C34.4435 37.3833 34.4429 37.3832 34.4425 37.3831C34.4415 37.3829 34.441 37.3828 34.4409 37.3828C34.4406 37.3827 34.4418 37.3829 34.4444 37.3835C34.4498 37.3845 34.4609 37.3866 34.4775 37.3896C34.5108 37.3957 34.5657 37.4053 34.6395 37.4169C34.7876 37.44 35.0088 37.4707 35.2815 37.4964C35.8354 37.5486 36.5589 37.5766 37.2928 37.4989C38.8741 37.3315 39.7782 36.7924 40.085 35.8436L43.891 37.0742ZM36.0449 39.3251C36.0449 39.329 36.0449 39.3328 36.045 39.3367C36.045 39.3405 36.045 39.3444 36.0451 39.3483C36.0451 39.3521 36.0451 39.356 36.0452 39.3599C36.0452 39.3637 36.0452 39.3676 36.0453 39.3715C36.0453 39.3754 36.0453 39.3793 36.0454 39.3832C36.0454 39.387 36.0454 39.3909 36.0455 39.3948C36.0455 39.3987 36.0456 39.4026 36.0456 39.4066C36.0456 39.4105 36.0457 39.4144 36.0457 39.4183C36.0457 39.4222 36.0458 39.4261 36.0458 39.4301C36.0458 39.434 36.0459 39.4379 36.0459 39.4419C36.0459 39.4458 36.046 39.4497 36.046 39.4537C36.046 39.4576 36.0461 39.4616 36.0461 39.4655C36.0462 39.4695 36.0462 39.4734 36.0462 39.4774C36.0463 39.4814 36.0463 39.4853 36.0463 39.4893C36.0464 39.4933 36.0464 39.4972 36.0464 39.5012C36.0465 39.5052 36.0465 39.5092 36.0466 39.5132C36.0466 39.5171 36.0466 39.5211 36.0467 39.5251C36.0467 39.5291 36.0467 39.5331 36.0468 39.5371C36.0468 39.5411 36.0468 39.5451 36.0469 39.5492C36.0469 39.5532 36.0469 39.5572 36.047 39.5612C36.047 39.5652 36.0471 39.5692 36.0471 39.5733C36.0471 39.5773 36.0472 39.5813 36.0472 39.5854C36.0472 39.5894 36.0473 39.5934 36.0473 39.5975C36.0473 39.6015 36.0474 39.6056 36.0474 39.6096C36.0475 39.6137 36.0475 39.6177 36.0475 39.6218C36.0476 39.6259 36.0476 39.6299 36.0476 39.634C36.0477 39.6381 36.0477 39.6421 36.0478 39.6462C36.0478 39.6503 36.0478 39.6544 36.0479 39.6584C36.0479 39.6625 36.0479 39.6666 36.048 39.6707C36.048 39.6748 36.048 39.6789 36.0481 39.683C36.0481 39.6871 36.0482 39.6912 36.0482 39.6953C36.0482 39.6994 36.0483 39.7035 36.0483 39.7076C36.0483 39.7117 36.0484 39.7159 36.0484 39.72C36.0485 39.7241 36.0485 39.7282 36.0485 39.7324C36.0486 39.7365 36.0486 39.7406 36.0486 39.7448C36.0487 39.7489 36.0487 39.753 36.0488 39.7572C36.0488 39.7613 36.0488 39.7655 36.0489 39.7696C36.0489 39.7738 36.0489 39.7779 36.049 39.7821C36.049 39.7862 36.0491 39.7904 36.0491 39.7946C36.0491 39.7987 36.0492 39.8029 36.0492 39.8071C36.0492 39.8112 36.0493 39.8154 36.0493 39.8196C36.0494 39.8238 36.0494 39.828 36.0494 39.8321C36.0495 39.8363 36.0495 39.8405 36.0495 39.8447C36.0496 39.8489 36.0496 39.8531 36.0497 39.8573C36.0497 39.8615 36.0497 39.8657 36.0498 39.8699C36.0498 39.8741 36.0498 39.8783 36.0499 39.8825C36.0499 39.8868 36.05 39.891 36.05 39.8952C36.05 39.8994 36.0501 39.9036 36.0501 39.9079C36.0501 39.9121 36.0502 39.9163 36.0502 39.9206C36.0503 39.9248 36.0503 39.929 36.0503 39.9333C36.0504 39.9375 36.0504 39.9418 36.0505 39.946C36.0505 39.9502 36.0505 39.9545 36.0506 39.9588C36.0506 39.963 36.0506 39.9673 36.0507 39.9715C36.0507 39.9758 36.0508 39.98 36.0508 39.9843C36.0508 39.9886 36.0509 39.9928 36.0509 39.9971C36.051 40.0014 36.051 40.0057 36.051 40.0099C36.0511 40.0142 36.0511 40.0185 36.0511 40.0228C36.0512 40.0271 36.0512 40.0314 36.0513 40.0356C36.0513 40.0399 36.0513 40.0442 36.0514 40.0485C36.0514 40.0528 36.0515 40.0571 36.0515 40.0614C36.0515 40.0657 36.0516 40.07 36.0516 40.0743C36.0517 40.0786 36.0517 40.083 36.0517 40.0873C36.0518 40.0916 36.0518 40.0959 36.0518 40.1002C36.0519 40.1045 36.0519 40.1089 36.052 40.1132C36.052 40.1175 36.052 40.1218 36.0521 40.1262C36.0521 40.1305 36.0522 40.1348 36.0522 40.1392C36.0522 40.1435 36.0523 40.1479 36.0523 40.1522C36.0524 40.1565 36.0524 40.1609 36.0524 40.1652C36.0525 40.1696 36.0525 40.1739 36.0525 40.1783C36.0526 40.1826 36.0526 40.187 36.0527 40.1914C36.0527 40.1957 36.0527 40.2001 36.0528 40.2044C36.0528 40.2088 36.0529 40.2132 36.0529 40.2175C36.0529 40.2219 36.053 40.2263 36.053 40.2307C36.0531 40.235 36.0531 40.2394 36.0531 40.2438C36.0532 40.2482 36.0532 40.2526 36.0533 40.2569C36.0533 40.2613 36.0533 40.2657 36.0534 40.2701C36.0534 40.2745 36.0535 40.2789 36.0535 40.2833C36.0535 40.2877 36.0536 40.2921 36.0536 40.2965C36.0537 40.3009 36.0537 40.3053 36.0537 40.3097C36.0538 40.3141 36.0538 40.3185 36.0539 40.3229C36.0539 40.3273 36.0539 40.3317 36.054 40.3361C36.054 40.3406 36.0541 40.345 36.0541 40.3494C36.0541 40.3538 36.0542 40.3582 36.0542 40.3627C36.0543 40.3671 36.0543 40.3715 36.0543 40.3759C36.0544 40.3804 36.0544 40.3848 36.0545 40.3892C36.0545 40.3937 36.0545 40.3981 36.0546 40.4025C36.0546 40.407 36.0547 40.4114 36.0547 40.4159C36.0547 40.4203 36.0548 40.4248 36.0548 40.4292C36.0549 40.4336 36.0549 40.4381 36.0549 40.4425C36.055 40.447 36.055 40.4514 36.0551 40.4559C36.0551 40.4604 36.0551 40.4648 36.0552 40.4693C36.0552 40.4737 36.0553 40.4782 36.0553 40.4827C36.0553 40.4871 36.0554 40.4916 36.0554 40.4961C36.0555 40.5005 36.0555 40.505 36.0555 40.5095C36.0556 40.5139 36.0556 40.5184 36.0557 40.5229C36.0557 40.5274 36.0557 40.5319 36.0558 40.5363C36.0558 40.5408 36.0559 40.5453 36.0559 40.5498C36.0559 40.5543 36.056 40.5587 36.056 40.5632C36.0561 40.5677 36.0561 40.5722 36.0561 40.5767C36.0562 40.5812 36.0562 40.5857 36.0563 40.5902C36.0563 40.5947 36.0563 40.5992 36.0564 40.6037C36.0564 40.6082 36.0565 40.6127 36.0565 40.6172C36.0565 40.6217 36.0566 40.6262 36.0566 40.6307C36.0567 40.6352 36.0567 40.6397 36.0568 40.6442C36.0568 40.6487 36.0568 40.6532 36.0569 40.6578C36.0569 40.6623 36.057 40.6668 36.057 40.6713C36.057 40.6758 36.0571 40.6803 36.0571 40.6849C36.0572 40.6894 36.0572 40.6939 36.0572 40.6984C36.0573 40.7029 36.0573 40.7075 36.0574 40.712C36.0574 40.7165 36.0574 40.7211 36.0575 40.7256C36.0575 40.7301 36.0576 40.7346 36.0576 40.7392C36.0576 40.7437 36.0577 40.7482 36.0577 40.7528C36.0578 40.7573 36.0578 40.7619 36.0579 40.7664C36.0579 40.7709 36.0579 40.7755 36.058 40.78C36.058 40.7846 36.0581 40.7891 36.0581 40.7936C36.0581 40.7982 36.0582 40.8027 36.0582 40.8073C36.0583 40.8118 36.0583 40.8164 36.0583 40.8209C36.0584 40.8255 36.0584 40.83 36.0585 40.8346C36.0585 40.8391 36.0586 40.8437 36.0586 40.8482C36.0586 40.8528 36.0587 40.8574 36.0587 40.8619C36.0588 40.8665 36.0588 40.871 36.0588 40.8756C36.0589 40.8802 36.0589 40.8847 36.059 40.8893C36.059 40.8938 36.059 40.8984 36.0591 40.903C36.0591 40.9075 36.0592 40.9121 36.0592 40.9167C36.0593 40.9212 36.0593 40.9258 36.0593 40.9304C36.0594 40.935 36.0594 40.9395 36.0595 40.9441C36.0595 40.9487 36.0595 40.9532 36.0596 40.9578C36.0596 40.9624 36.0597 40.967 36.0597 40.9716C36.0597 40.9761 36.0598 40.9807 36.0598 40.9853C36.0599 40.9899 36.0599 40.9944 36.06 40.999C36.06 41.0036 36.06 41.0082 36.0601 41.0128C36.0601 41.0174 36.0602 41.0219 36.0602 41.0265C36.0602 41.0311 36.0603 41.0357 36.0603 41.0403C36.0604 41.0449 36.0604 41.0495 36.0604 41.0541C36.0605 41.0586 36.0605 41.0632 36.0606 41.0678C36.0606 41.0724 36.0607 41.077 36.0607 41.0816C36.0607 41.0862 36.0608 41.0908 36.0608 41.0954C36.0609 41.1 36.0609 41.1046 36.0609 41.1092C36.061 41.1138 36.061 41.1184 36.0611 41.123C36.0611 41.1276 36.0612 41.1322 36.0612 41.1368C36.0612 41.1414 36.0613 41.146 36.0613 41.1506C36.0614 41.1552 36.0614 41.1598 36.0614 41.1644C36.0615 41.169 36.0615 41.1736 36.0616 41.1782C36.0616 41.1828 36.0617 41.1874 36.0617 41.192C36.0617 41.1966 36.0618 41.2012 36.0618 41.2058C36.0619 41.2104 36.0619 41.215 36.0619 41.2196C36.062 41.2242 36.062 41.2288 36.0621 41.2334C36.0621 41.238 36.0621 41.2427 36.0622 41.2473C36.0622 41.2519 36.0623 41.2565 36.0623 41.2611C36.0624 41.2657 36.0624 41.2703 36.0624 41.2749C36.0625 41.2795 36.0625 41.2841 36.0626 41.2888C36.0626 41.2934 36.0626 41.298 36.0627 41.3026C36.0627 41.3072 36.0628 41.3118 36.0628 41.3164C36.0629 41.3211 36.0629 41.3257 36.0629 41.3303C36.063 41.3349 36.063 41.3395 36.0631 41.3441C36.0631 41.3487 36.0631 41.3534 36.0632 41.358C36.0632 41.3626 36.0633 41.3672 36.0633 41.3718C36.0634 41.3764 36.0634 41.381 36.0634 41.3857C36.0635 41.3903 36.0635 41.3949 36.0636 41.3995C36.0636 41.4041 36.0636 41.4088 36.0637 41.4134C36.0637 41.418 36.0638 41.4226 36.0638 41.4272C36.0639 41.4318 36.0639 41.4365 36.0639 41.4411C36.064 41.4457 36.064 41.4503 36.0641 41.4549C36.0641 41.4595 36.0641 41.4642 36.0642 41.4688C36.0642 41.4734 36.0643 41.478 36.0643 41.4826C36.0644 41.4873 36.0644 41.4919 36.0644 41.4965C36.0645 41.5011 36.0645 41.5057 36.0646 41.5104C36.0646 41.515 36.0646 41.5196 36.0647 41.5242C36.0647 41.5288 36.0648 41.5334 36.0648 41.5381C36.0649 41.5427 36.0649 41.5473 36.0649 41.5519C36.065 41.5565 36.065 41.5612 36.0651 41.5658C36.0651 41.5704 36.0651 41.575 36.0652 41.5796C36.0652 41.5842 36.0653 41.5889 36.0653 41.5935C36.0654 41.5981 36.0654 41.6027 36.0654 41.6073C36.0655 41.612 36.0655 41.6166 36.0656 41.6212C36.0656 41.6258 36.0656 41.6304 36.0657 41.635C36.0657 41.6396 36.0658 41.6443 36.0658 41.6489C36.0659 41.6535 36.0659 41.6581 36.0659 41.6627C36.066 41.6673 36.066 41.672 36.0661 41.6766C36.0661 41.6812 36.0661 41.6858 36.0662 41.6904C36.0662 41.695 36.0663 41.6996 36.0663 41.7043C36.0664 41.7089 36.0664 41.7135 36.0664 41.7181C36.0665 41.7227 36.0665 41.7273 36.0666 41.7319C36.0666 41.7365 36.0666 41.7411 36.0667 41.7458C36.0667 41.7504 36.0668 41.755 36.0668 41.7596C36.0669 41.7642 36.0669 41.7688 36.0669 41.7734C36.067 41.778 36.067 41.7826 36.0671 41.7872C36.0671 41.7918 36.0671 41.7964 36.0672 41.801C36.0672 41.8057 36.0673 41.8103 36.0673 41.8149C36.0674 41.8195 36.0674 41.8241 36.0674 41.8287C36.0675 41.8333 36.0675 41.8379 36.0676 41.8425C36.0676 41.8471 36.0676 41.8517 36.0677 41.8563C36.0677 41.8609 36.0678 41.8655 36.0678 41.8701C36.0678 41.8747 36.0679 41.8793 36.0679 41.8839C36.068 41.8885 36.068 41.8931 36.0681 41.8977C36.0681 41.9023 36.0681 41.9069 36.0682 41.9115C36.0682 41.916 36.0683 41.9206 36.0683 41.9252C36.0683 41.9298 36.0684 41.9344 36.0684 41.939C36.0685 41.9436 36.0685 41.9482 36.0686 41.9528C36.0686 41.9574 36.0686 41.962 36.0687 41.9665C36.0687 41.9711 36.0688 41.9757 36.0688 41.9803C36.0688 41.9849 36.0689 41.9895 36.0689 41.9941C36.069 41.9986 36.069 42.0032 36.0691 42.0078C36.0691 42.0124 36.0691 42.017 36.0692 42.0215C36.0692 42.0261 36.0693 42.0307 36.0693 42.0353C36.0693 42.0399 36.0694 42.0444 36.0694 42.049C36.0695 42.0536 36.0695 42.0582 36.0695 42.0627C36.0696 42.0673 36.0696 42.0719 36.0697 42.0764C36.0697 42.081 36.0698 42.0856 36.0698 42.0901C36.0698 42.0947 36.0699 42.0993 36.0699 42.1038C36.07 42.1084 36.07 42.113 36.07 42.1175C36.0701 42.1221 36.0701 42.1267 36.0702 42.1312C36.0702 42.1358 36.0702 42.1403 36.0703 42.1449C36.0703 42.1495 36.0704 42.154 36.0704 42.1586C36.0705 42.1631 36.0705 42.1677 36.0705 42.1722C36.0706 42.1768 36.0706 42.1813 36.0707 42.1859C36.0707 42.1904 36.0707 42.195 36.0708 42.1995C36.0708 42.2041 36.0709 42.2086 36.0709 42.2132C36.0709 42.2177 36.071 42.2223 36.071 42.2268C36.0711 42.2313 36.0711 42.2359 36.0711 42.2404C36.0712 42.245 36.0712 42.2495 36.0713 42.254C36.0713 42.2586 36.0714 42.2631 36.0714 42.2676C36.0714 42.2722 36.0715 42.2767 36.0715 42.2812C36.0716 42.2858 36.0716 42.2903 36.0716 42.2948C36.0717 42.2993 36.0717 42.3039 36.0718 42.3084C36.0718 42.3129 36.0718 42.3174 36.0719 42.3219C36.0719 42.3265 36.072 42.331 36.072 42.3355C36.072 42.34 36.0721 42.3445 36.0721 42.349C36.0722 42.3535 36.0722 42.3581 36.0723 42.3626C36.0723 42.3671 36.0723 42.3716 36.0724 42.3761C36.0724 42.3806 36.0725 42.3851 36.0725 42.3896C36.0725 42.3941 36.0726 42.3986 36.0726 42.4031C36.0727 42.4076 36.0727 42.4121 36.0727 42.4166C36.0728 42.4211 36.0728 42.4256 36.0729 42.4301C36.0729 42.4346 36.0729 42.4391 36.073 42.4435C36.073 42.448 36.0731 42.4525 36.0731 42.457C36.0731 42.4615 36.0732 42.466 36.0732 42.4704C36.0733 42.4749 36.0733 42.4794 36.0733 42.4839C36.0734 42.4883 36.0734 42.4928 36.0735 42.4973C36.0735 42.5018 36.0735 42.5062 36.0736 42.5107C36.0736 42.5152 36.0737 42.5196 36.0737 42.5241C36.0737 42.5286 36.0738 42.533 36.0738 42.5375C36.0739 42.5419 36.0739 42.5464 36.0739 42.5508C36.074 42.5553 36.074 42.5598 36.0741 42.5642C36.0741 42.5687 36.0741 42.5731 36.0742 42.5776C36.0742 42.582 36.0743 42.5864 36.0743 42.5909C36.0743 42.5953 36.0744 42.5998 36.0744 42.6042C36.0745 42.6086 36.0745 42.6131 36.0745 42.6175C36.0746 42.6219 36.0746 42.6264 36.0747 42.6308C36.0747 42.6352 36.0747 42.6397 36.0748 42.6441C36.0748 42.6485 36.0749 42.6529 36.0749 42.6573C36.0749 42.6618 36.075 42.6662 36.075 42.6706C36.0751 42.675 36.0751 42.6794 36.0751 42.6838C36.0752 42.6882 36.0752 42.6926 36.0753 42.697C36.0753 42.7014 36.0753 42.7058 36.0754 42.7102C36.0754 42.7146 36.0755 42.719 36.0755 42.7234C36.0755 42.7278 36.0756 42.7322 36.0756 42.7366C36.0757 42.741 36.0757 42.7454 36.0757 42.7498C36.0758 42.7542 36.0758 42.7585 36.0759 42.7629C36.0759 42.7673 36.0759 42.7717 36.076 42.776C36.076 42.7804 36.0761 42.7848 36.0761 42.7892C36.0761 42.7935 36.0762 42.7979 36.0762 42.8023C36.0763 42.8066 36.0763 42.811 36.0763 42.8153C36.0764 42.8197 36.0764 42.8241 36.0765 42.8284C36.0765 42.8328 36.0765 42.8371 36.0766 42.8415C36.0766 42.8458 36.0766 42.8501 36.0767 42.8545C36.0767 42.8588 36.0768 42.8632 36.0768 42.8675C36.0768 42.8718 36.0769 42.8762 36.0769 42.8805C36.077 42.8848 36.077 42.8892 36.077 42.8935C36.0771 42.8978 36.0771 42.9021 36.0772 42.9065C36.0772 42.9108 36.0772 42.9151 36.0773 42.9194C36.0773 42.9237 36.0774 42.928 36.0774 42.9323C36.0774 42.9366 36.0775 42.9409 36.0775 42.9452C36.0775 42.9495 36.0776 42.9538 36.0776 42.9581C36.0777 42.9624 36.0777 42.9667 36.0777 42.971C36.0778 42.9753 36.0778 42.9796 36.0779 42.9839C36.0779 42.9882 36.0779 42.9924 36.078 42.9967C36.078 43.001 36.078 43.0053 36.0781 43.0095C36.0781 43.0138 36.0782 43.0181 36.0782 43.0223C36.0782 43.0266 36.0783 43.0309 36.0783 43.0351C36.0784 43.0394 36.0784 43.0436 36.0784 43.0479C36.0785 43.0521 36.0785 43.0564 36.0785 43.0606C36.0786 43.0649 36.0786 43.0691 36.0787 43.0734C36.0787 43.0776 36.0787 43.0818 36.0788 43.0861C36.0788 43.0903 36.0789 43.0945 36.0789 43.0987C36.0789 43.103 36.079 43.1072 36.079 43.1114C36.079 43.1156 36.0791 43.1199 36.0791 43.1241C36.0792 43.1283 36.0792 43.1325 36.0792 43.1367C36.0793 43.1409 36.0793 43.1451 36.0793 43.1493C36.0794 43.1535 36.0794 43.1577 36.0795 43.1619C36.0795 43.1661 36.0795 43.1703 36.0796 43.1744C36.0796 43.1786 36.0796 43.1828 36.0797 43.187C36.0797 43.1912 36.0798 43.1953 36.0798 43.1995C36.0798 43.2037 36.0799 43.2079 36.0799 43.212C36.0799 43.2162 36.08 43.2203 36.08 43.2245C36.0801 43.2287 36.0801 43.2328 36.0801 43.237C36.0802 43.2411 36.0802 43.2453 36.0802 43.2494C36.0803 43.2535 36.0803 43.2577 36.0804 43.2618C36.0804 43.2659 36.0804 43.2701 36.0805 43.2742C36.0805 43.2783 36.0805 43.2825 36.0806 43.2866C36.0806 43.2907 36.0807 43.2948 36.0807 43.2989C36.0807 43.303 36.0808 43.3071 36.0808 43.3112C36.0808 43.3154 36.0809 43.3195 36.0809 43.3236C36.081 43.3276 36.081 43.3317 36.081 43.3358C36.0811 43.3399 36.0811 43.344 36.0811 43.3481C36.0812 43.3522 36.0812 43.3563 36.0812 43.3603C36.0813 43.3644 36.0813 43.3685 36.0814 43.3725C36.0814 43.3766 36.0814 43.3807 36.0815 43.3847C36.0815 43.3888 36.0815 43.3928 36.0816 43.3969C36.0816 43.4009 36.0817 43.405 36.0817 43.409C36.0817 43.4131 36.0818 43.4171 36.0818 43.4211C36.0818 43.4252 36.0819 43.4292 36.0819 43.4332C36.0819 43.4373 36.082 43.4413 36.082 43.4453C36.0821 43.4493 36.0821 43.4533 36.0821 43.4573C36.0822 43.4613 36.0822 43.4654 36.0822 43.4694C36.0823 43.4734 36.0823 43.4774 36.0823 43.4813C36.0824 43.4853 36.0824 43.4893 36.0824 43.4933C36.0825 43.4973 36.0825 43.5013 36.0826 43.5053C36.0826 43.5092 36.0826 43.5132 36.0827 43.5172C36.0827 43.5211 36.0827 43.5251 36.0828 43.5291C36.0828 43.533 36.0828 43.537 36.0829 43.5409C36.0829 43.5449 36.0829 43.5488 36.083 43.5528C36.083 43.5567 36.0831 43.5607 36.0831 43.5646C36.0831 43.5685 36.0832 43.5725 36.0832 43.5764C36.0832 43.5803 36.0833 43.5842 36.0833 43.5881C36.0833 43.592 36.0834 43.596 36.0834 43.5999C36.0834 43.6038 36.0835 43.6077 36.0835 43.6116C36.0836 43.6155 36.0836 43.6194 36.0836 43.6233C36.0837 43.6271 36.0837 43.631 36.0837 43.6349C36.0838 43.6388 36.0838 43.6427 36.0838 43.6465C36.0839 43.6504 36.0839 43.6543 36.0839 43.6581C36.084 43.662 36.084 43.6659 36.084 43.6697C36.0841 43.6736 36.0841 43.6774 36.0841 43.6813C36.0842 43.6851 36.0842 43.6889 36.0842 43.6928C36.0843 43.6966 36.0843 43.7004 36.0844 43.7043C36.0844 43.7081 36.0844 43.7119 36.0845 43.7157C36.0845 43.7195 36.0845 43.7233 36.0846 43.7271C36.0846 43.7309 36.0846 43.7348 36.0847 43.7385C36.0847 43.7423 36.0847 43.7461 36.0848 43.7499C36.0848 43.7537 36.0848 43.7575 36.0849 43.7613C36.0849 43.765 36.0849 43.7688 36.085 43.7726C36.085 43.7763 36.085 43.7801 36.0851 43.7839C36.0851 43.7876 36.0851 43.7914 36.0852 43.7951C36.0852 43.7989 36.0852 43.8026 36.0853 43.8064C36.0853 43.8101 36.0853 43.8138 36.0854 43.8175C36.0854 43.8213 36.0854 43.825 36.0855 43.8287C36.0855 43.8324 36.0855 43.8361 36.0856 43.8399C36.0856 43.8436 36.0856 43.8473 36.0857 43.851C36.0857 43.8547 36.0857 43.8583 36.0858 43.862C36.0858 43.8657 36.0858 43.8694 36.0859 43.8731C36.0859 43.8768 36.0859 43.8804 36.086 43.8841C36.086 43.8878 36.086 43.8914 36.0861 43.8951C36.0861 43.8987 36.0861 43.9024 36.0862 43.906C36.0862 43.9097 36.0862 43.9133 36.0863 43.917C36.0863 43.9206 36.0863 43.9242 36.0864 43.9278C36.0864 43.9315 36.0864 43.9351 36.0865 43.9387C36.0865 43.9423 36.0865 43.9459 36.0866 43.9495C36.0866 43.9531 36.0866 43.9567 36.0867 43.9603C36.0867 43.9639 36.0867 43.9675 36.0868 43.9711C36.0868 43.9747 36.0868 43.9782 36.0869 43.9818C36.0869 43.9854 36.0869 43.989 36.087 43.9925C36.087 43.9961 36.087 43.9996 36.087 44.0032C36.0871 44.0067 36.0871 44.0103 36.0871 44.0138C36.0872 44.0174 36.0872 44.0209 36.0872 44.0244C36.0873 44.0279 36.0873 44.0315 36.0873 44.035C36.0874 44.0385 36.0874 44.042 36.0874 44.0455C36.0875 44.049 36.0875 44.0525 36.0875 44.056C36.0876 44.0595 36.0876 44.063 36.0876 44.0665C36.0876 44.07 36.0877 44.0734 36.0877 44.0769C36.0877 44.0804 36.0878 44.0839 36.0878 44.0873C36.0878 44.0908 36.0879 44.0942 36.0879 44.0977C36.0879 44.1011 36.088 44.1046 36.088 44.108C36.088 44.1114 36.0881 44.1149 36.0881 44.1183C36.0881 44.1217 36.0881 44.1252 36.0882 44.1286C36.0882 44.132 36.0882 44.1354 36.0883 44.1388C36.0883 44.1422 36.0883 44.1456 36.0884 44.149C36.0884 44.1524 36.0884 44.1558 36.0885 44.1591C36.0885 44.1625 36.0885 44.1659 36.0885 44.1693C36.0886 44.1726 36.0886 44.176 36.0886 44.1793C36.0887 44.1827 36.0887 44.1861 36.0887 44.1894C36.0888 44.1927 36.0888 44.1961 36.0888 44.1994C36.0888 44.2027 36.0889 44.2061 36.0889 44.2094C36.0889 44.2127 36.089 44.216 36.089 44.2193C36.089 44.2226 36.0891 44.2259 36.0891 44.2292C36.0891 44.2325 36.0891 44.2358 36.0892 44.2391C36.0892 44.2424 36.0892 44.2457 36.0893 44.2489C36.0893 44.2522 36.0893 44.2555 36.0894 44.2587C36.0894 44.262 36.0894 44.2652 36.0894 44.2685C36.0895 44.2717 36.0895 44.275 36.0895 44.2782C36.0896 44.2814 36.0896 44.2847 36.0896 44.2879C36.0896 44.2911 36.0897 44.2943 36.0897 44.2975C36.0897 44.3008 36.0898 44.304 36.0898 44.3072C36.0898 44.3103 36.0898 44.3135 36.0899 44.3167C36.0899 44.3199 36.0899 44.3231 36.09 44.3263C36.09 44.3294 36.09 44.3326 36.09 44.3358C36.0901 44.3389 36.0901 44.3421 36.0901 44.3452C36.0902 44.3484 36.0902 44.3515 36.0902 44.3546C36.0902 44.3578 36.0903 44.3609 36.0903 44.364C36.0903 44.3671 36.0904 44.3702 36.0904 44.3733C36.0904 44.3765 36.0904 44.3796 36.0905 44.3826C36.0905 44.3857 36.0905 44.3888 36.0906 44.3919C36.0906 44.395 36.0906 44.3981 36.0906 44.4011C36.0907 44.4042 36.0907 44.4073 36.0907 44.4103C36.0907 44.4134 36.0908 44.4164 36.0908 44.4195C36.0908 44.4225 36.0909 44.4255 36.0909 44.4286C36.0909 44.4316 36.0909 44.4346 36.091 44.4376C36.091 44.4406 36.091 44.4437 36.091 44.4467C36.0911 44.4497 36.0911 44.4526 36.0911 44.4556C36.0912 44.4586 36.0912 44.4616 36.0912 44.4646C36.0912 44.4676 36.0913 44.4705 36.0913 44.4735C36.0913 44.4764 36.0913 44.4794 36.0914 44.4823C36.0914 44.4853 36.0914 44.4882 36.0914 44.4912C36.0915 44.4941 36.0915 44.497 36.0915 44.4999C36.0916 44.5029 36.0916 44.5058 36.0916 44.5087C36.0916 44.5116 36.0917 44.5145 36.0917 44.5174C36.0917 44.5203 36.0917 44.5232 36.0918 44.526C36.0918 44.5289 36.0918 44.5318 36.0918 44.5347C36.0919 44.5375 36.0919 44.5404 36.0919 44.5432C36.0919 44.5461 36.092 44.5489 36.092 44.5518C36.092 44.5546 36.092 44.5574 36.0921 44.5602C36.0921 44.5631 36.0921 44.5659 36.0921 44.5687C36.0922 44.5715 36.0922 44.5743 36.0922 44.5771C36.0922 44.5799 36.0923 44.5827 36.0923 44.5854C36.0923 44.5882 36.0923 44.591 36.0924 44.5938C36.0924 44.5965 36.0924 44.5993 36.0924 44.602C36.0925 44.6048 36.0925 44.6075 36.0925 44.6103C36.0925 44.613 36.0926 44.6157 36.0926 44.6184C36.0926 44.6212 36.0926 44.6239 36.0927 44.6266C36.0927 44.6293 36.0927 44.632 36.0927 44.6347C36.0928 44.6374 36.0928 44.6401 36.0928 44.6427C36.0928 44.6454 36.0929 44.6481 36.0929 44.6507C36.0929 44.6534 36.0929 44.6561 36.093 44.6587C36.093 44.6614 36.093 44.664 36.093 44.6666C36.0931 44.6693 36.0931 44.6719 36.0931 44.6745C36.0931 44.6771 36.0931 44.6797 36.0932 44.6823C36.0932 44.6849 36.0932 44.6875 36.0932 44.6901C36.0933 44.6927 36.0933 44.6953 36.0933 44.6979C36.0933 44.7004 36.0934 44.703 36.0934 44.7056C36.0934 44.7081 36.0934 44.7107 36.0935 44.7132C36.0935 44.7158 36.0935 44.7183 36.0935 44.7208C36.0935 44.7233 36.0936 44.7259 36.0936 44.7284C36.0936 44.7309 36.0936 44.7334 36.0937 44.7359C36.0937 44.7384 36.0937 44.7409 36.0937 44.7434C36.0937 44.7458 36.0938 44.7483 36.0938 44.7508C36.0938 44.7532 36.0938 44.7557 36.0939 44.7582C36.0939 44.7606 36.0939 44.763 36.0939 44.7655C36.0939 44.7679 36.094 44.7703 36.094 44.7728C36.094 44.7752 36.094 44.7776 36.0941 44.78C36.0941 44.7824 36.0941 44.7848 36.0941 44.7872C36.0941 44.7896 36.0942 44.7919 36.0942 44.7943C36.0942 44.7967 36.0942 44.7991 36.0942 44.8014C36.0943 44.8038 36.0943 44.8061 36.0943 44.8085C36.0943 44.8108 36.0944 44.8131 36.0944 44.8154C36.0944 44.8178 36.0944 44.8201 36.0944 44.8224C36.0945 44.8247 36.0945 44.827 36.0945 44.8293C36.0945 44.8316 36.0945 44.8339 36.0946 44.8361C36.0946 44.8384 36.0946 44.8407 36.0946 44.8429C36.0946 44.8452 36.0947 44.8475 36.0947 44.8497C36.0947 44.8519 36.0947 44.8542 36.0947 44.8564C36.0948 44.8586 36.0948 44.8609 36.0948 44.8631C36.0948 44.8653 36.0948 44.8675 36.0949 44.8697C36.0949 44.8719 36.0949 44.874 36.0949 44.8762C36.0949 44.8784 36.095 44.8806 36.095 44.8827C36.095 44.8849 36.095 44.887 36.095 44.8892C36.0951 44.8913 36.0951 44.8935 36.0951 44.8956C36.0951 44.8977 36.0951 44.8998 36.0952 44.902C36.0952 44.9041 36.0952 44.9062 36.0952 44.9083C36.0952 44.9104 36.0952 44.9124 36.0953 44.9145C36.0953 44.9166 36.0953 44.9187 36.0953 44.9207C36.0953 44.9228 36.0954 44.9248 36.0954 44.9269C36.0954 44.9289 36.0954 44.931 36.0954 44.933C36.0955 44.935 36.0955 44.937 36.0955 44.939C36.0955 44.9411 36.0955 44.9431 36.0955 44.945C36.0956 44.947 36.0956 44.949 36.0956 44.951C36.0956 44.953 36.0956 44.9549 36.0956 44.9569C36.0957 44.9589 36.0957 44.9608 36.0957 44.9627C36.0957 44.9647 36.0957 44.9666 36.0958 44.9685C36.0958 44.9705 36.0958 44.9724 36.0958 44.9743C36.0958 44.9762 36.0958 44.9781 36.0959 44.98C36.0959 44.9819 36.0959 44.9837 36.0959 44.9856C36.0959 44.9875 36.0959 44.9893 36.096 44.9912C36.096 44.9931 36.096 44.9949 36.096 44.9967C36.096 44.9986 36.096 45.0004 36.0961 45.0022C36.0961 45.004 36.0961 45.0058 36.0961 45.0076C36.0961 45.0094 36.0961 45.0112 36.0962 45.013C36.0962 45.0148 36.0962 45.0166 36.0962 45.0183C36.0962 45.0201 36.0962 45.0219 36.0963 45.0236C36.0963 45.0254 36.0963 45.0271 36.0963 45.0288C36.0963 45.0306 36.0963 45.0323 36.0963 45.034C36.0964 45.0357 36.0964 45.0374 36.0964 45.0391C36.0964 45.0408 36.0964 45.0425 36.0964 45.0441C36.0965 45.0458 36.0965 45.0475 36.0965 45.0491C36.0965 45.0508 36.0965 45.0524 36.0965 45.0541C36.0965 45.0557 36.0966 45.0573 36.0966 45.059C36.0966 45.0606 36.0966 45.0622 36.0966 45.0638C36.0966 45.0654 36.0966 45.067 36.0967 45.0686C36.0967 45.0702 36.0967 45.0717 36.0967 45.0733C36.0967 45.0749 36.0967 45.0764 36.0967 45.078C36.0968 45.0795 36.0968 45.0811 36.0968 45.0826C36.0968 45.0841 36.0968 45.0856 36.0968 45.0871C36.0968 45.0886 36.0969 45.0901 36.0969 45.0916C36.0969 45.0931 36.0969 45.0946 36.0969 45.0961C36.0969 45.0976 36.0969 45.099 36.0969 45.1005C36.097 45.1019 36.097 45.1034 36.097 45.1048C36.097 45.1062 36.097 45.1077 36.097 45.1091C36.097 45.1105 36.097 45.1119 36.0971 45.1133C36.0971 45.1147 36.0971 45.1161 36.0971 45.1175C36.0971 45.1188 36.0971 45.1202 36.0971 45.1216C36.0971 45.1229 36.0972 45.1243 36.0972 45.1256C36.0972 45.1269 36.0972 45.1283 36.0972 45.1296C36.0972 45.1309 36.0972 45.1322 36.0972 45.1335C36.0973 45.1348 36.0973 45.1361 36.0973 45.1374L32.0974 45.1735C32.0974 45.1722 32.0974 45.1709 32.0974 45.1696C32.0974 45.1683 32.0974 45.167 32.0974 45.1657C32.0974 45.1644 32.0973 45.163 32.0973 45.1617C32.0973 45.1603 32.0973 45.159 32.0973 45.1576C32.0973 45.1563 32.0973 45.1549 32.0973 45.1535C32.0972 45.1522 32.0972 45.1508 32.0972 45.1494C32.0972 45.148 32.0972 45.1466 32.0972 45.1452C32.0972 45.1437 32.0972 45.1423 32.0971 45.1409C32.0971 45.1394 32.0971 45.138 32.0971 45.1365C32.0971 45.1351 32.0971 45.1336 32.0971 45.1322C32.0971 45.1307 32.097 45.1292 32.097 45.1277C32.097 45.1262 32.097 45.1247 32.097 45.1232C32.097 45.1217 32.097 45.1202 32.0969 45.1187C32.0969 45.1171 32.0969 45.1156 32.0969 45.114C32.0969 45.1125 32.0969 45.1109 32.0969 45.1094C32.0968 45.1078 32.0968 45.1062 32.0968 45.1047C32.0968 45.1031 32.0968 45.1015 32.0968 45.0999C32.0968 45.0983 32.0967 45.0967 32.0967 45.095C32.0967 45.0934 32.0967 45.0918 32.0967 45.0902C32.0967 45.0885 32.0967 45.0869 32.0966 45.0852C32.0966 45.0836 32.0966 45.0819 32.0966 45.0802C32.0966 45.0785 32.0966 45.0769 32.0966 45.0752C32.0965 45.0735 32.0965 45.0718 32.0965 45.0701C32.0965 45.0683 32.0965 45.0666 32.0965 45.0649C32.0964 45.0632 32.0964 45.0614 32.0964 45.0597C32.0964 45.0579 32.0964 45.0562 32.0964 45.0544C32.0963 45.0527 32.0963 45.0509 32.0963 45.0491C32.0963 45.0473 32.0963 45.0455 32.0963 45.0437C32.0963 45.0419 32.0962 45.0401 32.0962 45.0383C32.0962 45.0365 32.0962 45.0346 32.0962 45.0328C32.0962 45.031 32.0961 45.0291 32.0961 45.0273C32.0961 45.0254 32.0961 45.0236 32.0961 45.0217C32.0961 45.0198 32.096 45.0179 32.096 45.0161C32.096 45.0142 32.096 45.0123 32.096 45.0104C32.096 45.0085 32.0959 45.0065 32.0959 45.0046C32.0959 45.0027 32.0959 45.0008 32.0959 44.9988C32.0958 44.9969 32.0958 44.9949 32.0958 44.993C32.0958 44.991 32.0958 44.989 32.0958 44.9871C32.0957 44.9851 32.0957 44.9831 32.0957 44.9811C32.0957 44.9791 32.0957 44.9771 32.0957 44.9751C32.0956 44.9731 32.0956 44.9711 32.0956 44.9691C32.0956 44.967 32.0956 44.965 32.0955 44.963C32.0955 44.9609 32.0955 44.9589 32.0955 44.9568C32.0955 44.9547 32.0954 44.9527 32.0954 44.9506C32.0954 44.9485 32.0954 44.9464 32.0954 44.9443C32.0954 44.9422 32.0953 44.9401 32.0953 44.938C32.0953 44.9359 32.0953 44.9338 32.0953 44.9317C32.0952 44.9295 32.0952 44.9274 32.0952 44.9253C32.0952 44.9231 32.0952 44.921 32.0951 44.9188C32.0951 44.9166 32.0951 44.9145 32.0951 44.9123C32.0951 44.9101 32.095 44.9079 32.095 44.9057C32.095 44.9035 32.095 44.9013 32.095 44.8991C32.0949 44.8969 32.0949 44.8947 32.0949 44.8925C32.0949 44.8903 32.0949 44.888 32.0948 44.8858C32.0948 44.8835 32.0948 44.8813 32.0948 44.879C32.0948 44.8768 32.0947 44.8745 32.0947 44.8722C32.0947 44.8699 32.0947 44.8677 32.0947 44.8654C32.0946 44.8631 32.0946 44.8608 32.0946 44.8585C32.0946 44.8562 32.0946 44.8538 32.0945 44.8515C32.0945 44.8492 32.0945 44.8469 32.0945 44.8445C32.0945 44.8422 32.0944 44.8398 32.0944 44.8375C32.0944 44.8351 32.0944 44.8328 32.0943 44.8304C32.0943 44.828 32.0943 44.8256 32.0943 44.8233C32.0943 44.8209 32.0942 44.8185 32.0942 44.8161C32.0942 44.8137 32.0942 44.8113 32.0942 44.8088C32.0941 44.8064 32.0941 44.804 32.0941 44.8016C32.0941 44.7991 32.094 44.7967 32.094 44.7942C32.094 44.7918 32.094 44.7893 32.094 44.7869C32.0939 44.7844 32.0939 44.7819 32.0939 44.7794C32.0939 44.777 32.0938 44.7745 32.0938 44.772C32.0938 44.7695 32.0938 44.767 32.0938 44.7645C32.0937 44.7619 32.0937 44.7594 32.0937 44.7569C32.0937 44.7544 32.0936 44.7518 32.0936 44.7493C32.0936 44.7468 32.0936 44.7442 32.0935 44.7416C32.0935 44.7391 32.0935 44.7365 32.0935 44.7339C32.0935 44.7314 32.0934 44.7288 32.0934 44.7262C32.0934 44.7236 32.0934 44.721 32.0933 44.7184C32.0933 44.7158 32.0933 44.7132 32.0933 44.7106C32.0932 44.708 32.0932 44.7053 32.0932 44.7027C32.0932 44.7001 32.0931 44.6974 32.0931 44.6948C32.0931 44.6921 32.0931 44.6895 32.0931 44.6868C32.093 44.6842 32.093 44.6815 32.093 44.6788C32.093 44.6761 32.0929 44.6735 32.0929 44.6708C32.0929 44.6681 32.0929 44.6654 32.0928 44.6627C32.0928 44.66 32.0928 44.6572 32.0928 44.6545C32.0927 44.6518 32.0927 44.6491 32.0927 44.6463C32.0927 44.6436 32.0926 44.6409 32.0926 44.6381C32.0926 44.6354 32.0926 44.6326 32.0925 44.6298C32.0925 44.6271 32.0925 44.6243 32.0925 44.6215C32.0924 44.6187 32.0924 44.616 32.0924 44.6132C32.0924 44.6104 32.0923 44.6076 32.0923 44.6048C32.0923 44.6019 32.0923 44.5991 32.0922 44.5963C32.0922 44.5935 32.0922 44.5907 32.0922 44.5878C32.0921 44.585 32.0921 44.5821 32.0921 44.5793C32.0921 44.5764 32.092 44.5736 32.092 44.5707C32.092 44.5679 32.092 44.565 32.0919 44.5621C32.0919 44.5592 32.0919 44.5563 32.0918 44.5535C32.0918 44.5506 32.0918 44.5477 32.0918 44.5448C32.0917 44.5419 32.0917 44.5389 32.0917 44.536C32.0917 44.5331 32.0916 44.5302 32.0916 44.5272C32.0916 44.5243 32.0916 44.5214 32.0915 44.5184C32.0915 44.5155 32.0915 44.5125 32.0915 44.5096C32.0914 44.5066 32.0914 44.5036 32.0914 44.5007C32.0913 44.4977 32.0913 44.4947 32.0913 44.4917C32.0913 44.4887 32.0912 44.4857 32.0912 44.4827C32.0912 44.4797 32.0912 44.4767 32.0911 44.4737C32.0911 44.4707 32.0911 44.4677 32.091 44.4646C32.091 44.4616 32.091 44.4586 32.091 44.4555C32.0909 44.4525 32.0909 44.4495 32.0909 44.4464C32.0909 44.4433 32.0908 44.4403 32.0908 44.4372C32.0908 44.4341 32.0907 44.4311 32.0907 44.428C32.0907 44.4249 32.0907 44.4218 32.0906 44.4187C32.0906 44.4156 32.0906 44.4125 32.0905 44.4094C32.0905 44.4063 32.0905 44.4032 32.0905 44.4001C32.0904 44.397 32.0904 44.3938 32.0904 44.3907C32.0904 44.3876 32.0903 44.3844 32.0903 44.3813C32.0903 44.3781 32.0902 44.375 32.0902 44.3718C32.0902 44.3687 32.0902 44.3655 32.0901 44.3623C32.0901 44.3592 32.0901 44.356 32.09 44.3528C32.09 44.3496 32.09 44.3464 32.09 44.3432C32.0899 44.34 32.0899 44.3368 32.0899 44.3336C32.0898 44.3304 32.0898 44.3272 32.0898 44.324C32.0897 44.3208 32.0897 44.3175 32.0897 44.3143C32.0897 44.3111 32.0896 44.3078 32.0896 44.3046C32.0896 44.3013 32.0895 44.2981 32.0895 44.2948C32.0895 44.2915 32.0895 44.2883 32.0894 44.285C32.0894 44.2817 32.0894 44.2785 32.0893 44.2752C32.0893 44.2719 32.0893 44.2686 32.0892 44.2653C32.0892 44.262 32.0892 44.2587 32.0892 44.2554C32.0891 44.2521 32.0891 44.2488 32.0891 44.2455C32.089 44.2421 32.089 44.2388 32.089 44.2355C32.0889 44.2322 32.0889 44.2288 32.0889 44.2255C32.0889 44.2221 32.0888 44.2188 32.0888 44.2154C32.0888 44.2121 32.0887 44.2087 32.0887 44.2053C32.0887 44.202 32.0886 44.1986 32.0886 44.1952C32.0886 44.1918 32.0886 44.1885 32.0885 44.1851C32.0885 44.1817 32.0885 44.1783 32.0884 44.1749C32.0884 44.1715 32.0884 44.1681 32.0883 44.1646C32.0883 44.1612 32.0883 44.1578 32.0882 44.1544C32.0882 44.151 32.0882 44.1475 32.0882 44.1441C32.0881 44.1406 32.0881 44.1372 32.0881 44.1338C32.088 44.1303 32.088 44.1269 32.088 44.1234C32.0879 44.1199 32.0879 44.1165 32.0879 44.113C32.0878 44.1095 32.0878 44.106 32.0878 44.1026C32.0877 44.0991 32.0877 44.0956 32.0877 44.0921C32.0877 44.0886 32.0876 44.0851 32.0876 44.0816C32.0876 44.0781 32.0875 44.0746 32.0875 44.0711C32.0875 44.0675 32.0874 44.064 32.0874 44.0605C32.0874 44.057 32.0873 44.0534 32.0873 44.0499C32.0873 44.0464 32.0872 44.0428 32.0872 44.0393C32.0872 44.0357 32.0871 44.0322 32.0871 44.0286C32.0871 44.025 32.087 44.0215 32.087 44.0179C32.087 44.0143 32.087 44.0107 32.0869 44.0072C32.0869 44.0036 32.0869 44 32.0868 43.9964C32.0868 43.9928 32.0868 43.9892 32.0867 43.9856C32.0867 43.982 32.0867 43.9784 32.0866 43.9748C32.0866 43.9712 32.0866 43.9675 32.0865 43.9639C32.0865 43.9603 32.0865 43.9567 32.0864 43.953C32.0864 43.9494 32.0864 43.9458 32.0863 43.9421C32.0863 43.9385 32.0863 43.9348 32.0862 43.9312C32.0862 43.9275 32.0862 43.9238 32.0861 43.9202C32.0861 43.9165 32.0861 43.9128 32.086 43.9092C32.086 43.9055 32.086 43.9018 32.0859 43.8981C32.0859 43.8944 32.0859 43.8907 32.0858 43.887C32.0858 43.8833 32.0858 43.8796 32.0857 43.8759C32.0857 43.8722 32.0857 43.8685 32.0856 43.8648C32.0856 43.8611 32.0856 43.8573 32.0855 43.8536C32.0855 43.8499 32.0855 43.8462 32.0854 43.8424C32.0854 43.8387 32.0854 43.8349 32.0853 43.8312C32.0853 43.8275 32.0853 43.8237 32.0852 43.8199C32.0852 43.8162 32.0852 43.8124 32.0851 43.8087C32.0851 43.8049 32.0851 43.8011 32.085 43.7973C32.085 43.7936 32.085 43.7898 32.0849 43.786C32.0849 43.7822 32.0849 43.7784 32.0848 43.7746C32.0848 43.7708 32.0848 43.767 32.0847 43.7632C32.0847 43.7594 32.0847 43.7556 32.0846 43.7518C32.0846 43.748 32.0845 43.7442 32.0845 43.7403C32.0845 43.7365 32.0844 43.7327 32.0844 43.7288C32.0844 43.725 32.0843 43.7212 32.0843 43.7173C32.0843 43.7135 32.0842 43.7096 32.0842 43.7058C32.0842 43.7019 32.0841 43.6981 32.0841 43.6942C32.0841 43.6904 32.084 43.6865 32.084 43.6826C32.084 43.6787 32.0839 43.6749 32.0839 43.671C32.0839 43.6671 32.0838 43.6632 32.0838 43.6593C32.0837 43.6554 32.0837 43.6516 32.0837 43.6477C32.0836 43.6438 32.0836 43.6399 32.0836 43.6359C32.0835 43.632 32.0835 43.6281 32.0835 43.6242C32.0834 43.6203 32.0834 43.6164 32.0834 43.6125C32.0833 43.6085 32.0833 43.6046 32.0833 43.6007C32.0832 43.5967 32.0832 43.5928 32.0831 43.5888C32.0831 43.5849 32.0831 43.581 32.083 43.577C32.083 43.5731 32.083 43.5691 32.0829 43.5651C32.0829 43.5612 32.0829 43.5572 32.0828 43.5533C32.0828 43.5493 32.0828 43.5453 32.0827 43.5413C32.0827 43.5374 32.0826 43.5334 32.0826 43.5294C32.0826 43.5254 32.0825 43.5214 32.0825 43.5174C32.0825 43.5134 32.0824 43.5094 32.0824 43.5054C32.0824 43.5014 32.0823 43.4974 32.0823 43.4934C32.0823 43.4894 32.0822 43.4854 32.0822 43.4814C32.0821 43.4774 32.0821 43.4733 32.0821 43.4693C32.082 43.4653 32.082 43.4613 32.082 43.4572C32.0819 43.4532 32.0819 43.4491 32.0819 43.4451C32.0818 43.4411 32.0818 43.437 32.0817 43.433C32.0817 43.4289 32.0817 43.4249 32.0816 43.4208C32.0816 43.4167 32.0816 43.4127 32.0815 43.4086C32.0815 43.4045 32.0814 43.4005 32.0814 43.3964C32.0814 43.3923 32.0813 43.3882 32.0813 43.3842C32.0813 43.3801 32.0812 43.376 32.0812 43.3719C32.0812 43.3678 32.0811 43.3637 32.0811 43.3596C32.081 43.3555 32.081 43.3514 32.081 43.3473C32.0809 43.3432 32.0809 43.3391 32.0809 43.335C32.0808 43.3309 32.0808 43.3268 32.0807 43.3226C32.0807 43.3185 32.0807 43.3144 32.0806 43.3103C32.0806 43.3061 32.0806 43.302 32.0805 43.2979C32.0805 43.2938 32.0804 43.2896 32.0804 43.2855C32.0804 43.2813 32.0803 43.2772 32.0803 43.273C32.0803 43.2689 32.0802 43.2647 32.0802 43.2606C32.0801 43.2564 32.0801 43.2523 32.0801 43.2481C32.08 43.2439 32.08 43.2398 32.08 43.2356C32.0799 43.2314 32.0799 43.2272 32.0798 43.2231C32.0798 43.2189 32.0798 43.2147 32.0797 43.2105C32.0797 43.2063 32.0797 43.2021 32.0796 43.198C32.0796 43.1938 32.0795 43.1896 32.0795 43.1854C32.0795 43.1812 32.0794 43.177 32.0794 43.1728C32.0794 43.1686 32.0793 43.1643 32.0793 43.1601C32.0792 43.1559 32.0792 43.1517 32.0792 43.1475C32.0791 43.1433 32.0791 43.139 32.0791 43.1348C32.079 43.1306 32.079 43.1264 32.0789 43.1221C32.0789 43.1179 32.0789 43.1137 32.0788 43.1094C32.0788 43.1052 32.0787 43.1009 32.0787 43.0967C32.0787 43.0925 32.0786 43.0882 32.0786 43.084C32.0786 43.0797 32.0785 43.0755 32.0785 43.0712C32.0784 43.0669 32.0784 43.0627 32.0784 43.0584C32.0783 43.0541 32.0783 43.0499 32.0782 43.0456C32.0782 43.0413 32.0782 43.0371 32.0781 43.0328C32.0781 43.0285 32.0781 43.0242 32.078 43.0199C32.078 43.0157 32.0779 43.0114 32.0779 43.0071C32.0779 43.0028 32.0778 42.9985 32.0778 42.9942C32.0777 42.9899 32.0777 42.9856 32.0777 42.9813C32.0776 42.977 32.0776 42.9727 32.0776 42.9684C32.0775 42.9641 32.0775 42.9598 32.0774 42.9555C32.0774 42.9512 32.0774 42.9468 32.0773 42.9425C32.0773 42.9382 32.0772 42.9339 32.0772 42.9296C32.0772 42.9252 32.0771 42.9209 32.0771 42.9166C32.077 42.9123 32.077 42.9079 32.077 42.9036C32.0769 42.8992 32.0769 42.8949 32.0768 42.8906C32.0768 42.8862 32.0768 42.8819 32.0767 42.8775C32.0767 42.8732 32.0767 42.8688 32.0766 42.8645C32.0766 42.8601 32.0765 42.8558 32.0765 42.8514C32.0765 42.8471 32.0764 42.8427 32.0764 42.8383C32.0763 42.834 32.0763 42.8296 32.0763 42.8252C32.0762 42.8209 32.0762 42.8165 32.0761 42.8121C32.0761 42.8077 32.0761 42.8034 32.076 42.799C32.076 42.7946 32.0759 42.7902 32.0759 42.7858C32.0759 42.7815 32.0758 42.7771 32.0758 42.7727C32.0757 42.7683 32.0757 42.7639 32.0757 42.7595C32.0756 42.7551 32.0756 42.7507 32.0755 42.7463C32.0755 42.7419 32.0755 42.7375 32.0754 42.7331C32.0754 42.7287 32.0753 42.7243 32.0753 42.7199C32.0753 42.7155 32.0752 42.7111 32.0752 42.7067C32.0752 42.7022 32.0751 42.6978 32.0751 42.6934C32.075 42.689 32.075 42.6846 32.075 42.6802C32.0749 42.6757 32.0749 42.6713 32.0748 42.6669C32.0748 42.6624 32.0748 42.658 32.0747 42.6536C32.0747 42.6492 32.0746 42.6447 32.0746 42.6403C32.0746 42.6358 32.0745 42.6314 32.0745 42.627C32.0744 42.6225 32.0744 42.6181 32.0744 42.6136C32.0743 42.6092 32.0743 42.6047 32.0742 42.6003C32.0742 42.5958 32.0742 42.5914 32.0741 42.5869C32.0741 42.5825 32.074 42.578 32.074 42.5736C32.0739 42.5691 32.0739 42.5646 32.0739 42.5602C32.0738 42.5557 32.0738 42.5512 32.0737 42.5468C32.0737 42.5423 32.0737 42.5378 32.0736 42.5334C32.0736 42.5289 32.0735 42.5244 32.0735 42.5199C32.0735 42.5155 32.0734 42.511 32.0734 42.5065C32.0733 42.502 32.0733 42.4976 32.0733 42.4931C32.0732 42.4886 32.0732 42.4841 32.0731 42.4796C32.0731 42.4751 32.0731 42.4706 32.073 42.4661C32.073 42.4617 32.0729 42.4572 32.0729 42.4527C32.0729 42.4482 32.0728 42.4437 32.0728 42.4392C32.0727 42.4347 32.0727 42.4302 32.0727 42.4257C32.0726 42.4212 32.0726 42.4167 32.0725 42.4122C32.0725 42.4077 32.0725 42.4032 32.0724 42.3986C32.0724 42.3941 32.0723 42.3896 32.0723 42.3851C32.0722 42.3806 32.0722 42.3761 32.0722 42.3716C32.0721 42.3671 32.0721 42.3625 32.072 42.358C32.072 42.3535 32.072 42.349 32.0719 42.3445C32.0719 42.3399 32.0718 42.3354 32.0718 42.3309C32.0718 42.3264 32.0717 42.3218 32.0717 42.3173C32.0716 42.3128 32.0716 42.3082 32.0716 42.3037C32.0715 42.2992 32.0715 42.2946 32.0714 42.2901C32.0714 42.2856 32.0714 42.281 32.0713 42.2765C32.0713 42.272 32.0712 42.2674 32.0712 42.2629C32.0711 42.2583 32.0711 42.2538 32.0711 42.2492C32.071 42.2447 32.071 42.2402 32.0709 42.2356C32.0709 42.2311 32.0709 42.2265 32.0708 42.222C32.0708 42.2174 32.0707 42.2129 32.0707 42.2083C32.0707 42.2038 32.0706 42.1992 32.0706 42.1946C32.0705 42.1901 32.0705 42.1855 32.0704 42.181C32.0704 42.1764 32.0704 42.1719 32.0703 42.1673C32.0703 42.1627 32.0702 42.1582 32.0702 42.1536C32.0702 42.149 32.0701 42.1445 32.0701 42.1399C32.07 42.1354 32.07 42.1308 32.07 42.1262C32.0699 42.1217 32.0699 42.1171 32.0698 42.1125C32.0698 42.1079 32.0697 42.1034 32.0697 42.0988C32.0697 42.0942 32.0696 42.0897 32.0696 42.0851C32.0695 42.0805 32.0695 42.0759 32.0695 42.0714C32.0694 42.0668 32.0694 42.0622 32.0693 42.0576C32.0693 42.053 32.0693 42.0485 32.0692 42.0439C32.0692 42.0393 32.0691 42.0347 32.0691 42.0301C32.069 42.0255 32.069 42.021 32.069 42.0164C32.0689 42.0118 32.0689 42.0072 32.0688 42.0026C32.0688 41.998 32.0688 41.9934 32.0687 41.9889C32.0687 41.9843 32.0686 41.9797 32.0686 41.9751C32.0686 41.9705 32.0685 41.9659 32.0685 41.9613C32.0684 41.9567 32.0684 41.9521 32.0683 41.9475C32.0683 41.9429 32.0683 41.9383 32.0682 41.9337C32.0682 41.9291 32.0681 41.9246 32.0681 41.92C32.0681 41.9154 32.068 41.9108 32.068 41.9062C32.0679 41.9016 32.0679 41.897 32.0678 41.8924C32.0678 41.8878 32.0678 41.8832 32.0677 41.8786C32.0677 41.874 32.0676 41.8694 32.0676 41.8648C32.0676 41.8601 32.0675 41.8555 32.0675 41.8509C32.0674 41.8463 32.0674 41.8417 32.0673 41.8371C32.0673 41.8325 32.0673 41.8279 32.0672 41.8233C32.0672 41.8187 32.0671 41.8141 32.0671 41.8095C32.0671 41.8049 32.067 41.8003 32.067 41.7957C32.0669 41.791 32.0669 41.7864 32.0668 41.7818C32.0668 41.7772 32.0668 41.7726 32.0667 41.768C32.0667 41.7634 32.0666 41.7588 32.0666 41.7542C32.0666 41.7496 32.0665 41.7449 32.0665 41.7403C32.0664 41.7357 32.0664 41.7311 32.0664 41.7265C32.0663 41.7219 32.0663 41.7173 32.0662 41.7126C32.0662 41.708 32.0661 41.7034 32.0661 41.6988C32.0661 41.6942 32.066 41.6896 32.066 41.685C32.0659 41.6803 32.0659 41.6757 32.0659 41.6711C32.0658 41.6665 32.0658 41.6619 32.0657 41.6573C32.0657 41.6526 32.0656 41.648 32.0656 41.6434C32.0656 41.6388 32.0655 41.6342 32.0655 41.6296C32.0654 41.6249 32.0654 41.6203 32.0654 41.6157C32.0653 41.6111 32.0653 41.6065 32.0652 41.6019C32.0652 41.5972 32.0651 41.5926 32.0651 41.588C32.0651 41.5834 32.065 41.5788 32.065 41.5741C32.0649 41.5695 32.0649 41.5649 32.0649 41.5603C32.0648 41.5557 32.0648 41.5511 32.0647 41.5464C32.0647 41.5418 32.0646 41.5372 32.0646 41.5326C32.0646 41.528 32.0645 41.5233 32.0645 41.5187C32.0644 41.5141 32.0644 41.5095 32.0644 41.5049C32.0643 41.5002 32.0643 41.4956 32.0642 41.491C32.0642 41.4864 32.0641 41.4818 32.0641 41.4772C32.0641 41.4725 32.064 41.4679 32.064 41.4633C32.0639 41.4587 32.0639 41.4541 32.0639 41.4494C32.0638 41.4448 32.0638 41.4402 32.0637 41.4356C32.0637 41.431 32.0636 41.4264 32.0636 41.4217C32.0636 41.4171 32.0635 41.4125 32.0635 41.4079C32.0634 41.4033 32.0634 41.3987 32.0634 41.394C32.0633 41.3894 32.0633 41.3848 32.0632 41.3802C32.0632 41.3756 32.0631 41.371 32.0631 41.3664C32.0631 41.3617 32.063 41.3571 32.063 41.3525C32.0629 41.3479 32.0629 41.3433 32.0629 41.3387C32.0628 41.3341 32.0628 41.3294 32.0627 41.3248C32.0627 41.3202 32.0626 41.3156 32.0626 41.311C32.0626 41.3064 32.0625 41.3018 32.0625 41.2972C32.0624 41.2926 32.0624 41.2879 32.0624 41.2833C32.0623 41.2787 32.0623 41.2741 32.0622 41.2695C32.0622 41.2649 32.0621 41.2603 32.0621 41.2557C32.0621 41.2511 32.062 41.2465 32.062 41.2419C32.0619 41.2373 32.0619 41.2327 32.0619 41.2281C32.0618 41.2235 32.0618 41.2188 32.0617 41.2142C32.0617 41.2096 32.0616 41.205 32.0616 41.2004C32.0616 41.1958 32.0615 41.1912 32.0615 41.1866C32.0614 41.182 32.0614 41.1774 32.0614 41.1728C32.0613 41.1682 32.0613 41.1636 32.0612 41.159C32.0612 41.1544 32.0611 41.1498 32.0611 41.1452C32.0611 41.1407 32.061 41.1361 32.061 41.1315C32.0609 41.1269 32.0609 41.1223 32.0609 41.1177C32.0608 41.1131 32.0608 41.1085 32.0607 41.1039C32.0607 41.0993 32.0607 41.0947 32.0606 41.0901C32.0606 41.0855 32.0605 41.081 32.0605 41.0764C32.0604 41.0718 32.0604 41.0672 32.0604 41.0626C32.0603 41.058 32.0603 41.0534 32.0602 41.0489C32.0602 41.0443 32.0602 41.0397 32.0601 41.0351C32.0601 41.0305 32.06 41.0259 32.06 41.0214C32.0599 41.0168 32.0599 41.0122 32.0599 41.0076C32.0598 41.0031 32.0598 40.9985 32.0597 40.9939C32.0597 40.9893 32.0597 40.9848 32.0596 40.9802C32.0596 40.9756 32.0595 40.971 32.0595 40.9665C32.0595 40.9619 32.0594 40.9573 32.0594 40.9528C32.0593 40.9482 32.0593 40.9436 32.0592 40.9391C32.0592 40.9345 32.0592 40.9299 32.0591 40.9254C32.0591 40.9208 32.059 40.9162 32.059 40.9117C32.059 40.9071 32.0589 40.9026 32.0589 40.898C32.0588 40.8934 32.0588 40.8889 32.0588 40.8843C32.0587 40.8798 32.0587 40.8752 32.0586 40.8707C32.0586 40.8661 32.0585 40.8616 32.0585 40.857C32.0585 40.8525 32.0584 40.8479 32.0584 40.8434C32.0583 40.8388 32.0583 40.8343 32.0583 40.8297C32.0582 40.8252 32.0582 40.8206 32.0581 40.8161C32.0581 40.8115 32.0581 40.807 32.058 40.8025C32.058 40.7979 32.0579 40.7934 32.0579 40.7889C32.0579 40.7843 32.0578 40.7798 32.0578 40.7752C32.0577 40.7707 32.0577 40.7662 32.0576 40.7617C32.0576 40.7571 32.0576 40.7526 32.0575 40.7481C32.0575 40.7435 32.0574 40.739 32.0574 40.7345C32.0574 40.73 32.0573 40.7254 32.0573 40.7209C32.0572 40.7164 32.0572 40.7119 32.0572 40.7074C32.0571 40.7029 32.0571 40.6983 32.057 40.6938C32.057 40.6893 32.057 40.6848 32.0569 40.6803C32.0569 40.6758 32.0568 40.6713 32.0568 40.6668C32.0568 40.6623 32.0567 40.6578 32.0567 40.6533C32.0566 40.6488 32.0566 40.6443 32.0565 40.6398C32.0565 40.6353 32.0565 40.6308 32.0564 40.6263C32.0564 40.6218 32.0563 40.6173 32.0563 40.6128C32.0563 40.6083 32.0562 40.6038 32.0562 40.5993C32.0561 40.5948 32.0561 40.5903 32.0561 40.5859C32.056 40.5814 32.056 40.5769 32.0559 40.5724C32.0559 40.5679 32.0559 40.5635 32.0558 40.559C32.0558 40.5545 32.0557 40.55 32.0557 40.5455C32.0557 40.5411 32.0556 40.5366 32.0556 40.5321C32.0555 40.5277 32.0555 40.5232 32.0555 40.5187C32.0554 40.5143 32.0554 40.5098 32.0553 40.5054C32.0553 40.5009 32.0553 40.4964 32.0552 40.492C32.0552 40.4875 32.0551 40.4831 32.0551 40.4786C32.0551 40.4742 32.055 40.4697 32.055 40.4653C32.0549 40.4608 32.0549 40.4564 32.0549 40.4519C32.0548 40.4475 32.0548 40.4431 32.0547 40.4386C32.0547 40.4342 32.0547 40.4297 32.0546 40.4253C32.0546 40.4209 32.0545 40.4164 32.0545 40.412C32.0545 40.4076 32.0544 40.4032 32.0544 40.3987C32.0543 40.3943 32.0543 40.3899 32.0543 40.3855C32.0542 40.3811 32.0542 40.3766 32.0541 40.3722C32.0541 40.3678 32.0541 40.3634 32.054 40.359C32.054 40.3546 32.0539 40.3502 32.0539 40.3458C32.0539 40.3414 32.0538 40.337 32.0538 40.3326C32.0537 40.3282 32.0537 40.3238 32.0537 40.3194C32.0536 40.315 32.0536 40.3106 32.0535 40.3062C32.0535 40.3018 32.0535 40.2974 32.0534 40.293C32.0534 40.2886 32.0533 40.2842 32.0533 40.2799C32.0533 40.2755 32.0532 40.2711 32.0532 40.2667C32.0531 40.2624 32.0531 40.258 32.0531 40.2536C32.053 40.2493 32.053 40.2449 32.0529 40.2405C32.0529 40.2362 32.0529 40.2318 32.0528 40.2274C32.0528 40.2231 32.0528 40.2187 32.0527 40.2144C32.0527 40.21 32.0526 40.2057 32.0526 40.2013C32.0526 40.197 32.0525 40.1926 32.0525 40.1883C32.0524 40.1839 32.0524 40.1796 32.0524 40.1753C32.0523 40.1709 32.0523 40.1666 32.0522 40.1623C32.0522 40.1579 32.0522 40.1536 32.0521 40.1493C32.0521 40.1449 32.052 40.1406 32.052 40.1363C32.052 40.132 32.0519 40.1277 32.0519 40.1233C32.0519 40.119 32.0518 40.1147 32.0518 40.1104C32.0517 40.1061 32.0517 40.1018 32.0517 40.0975C32.0516 40.0932 32.0516 40.0889 32.0515 40.0846C32.0515 40.0803 32.0515 40.076 32.0514 40.0717C32.0514 40.0674 32.0513 40.0631 32.0513 40.0589C32.0513 40.0546 32.0512 40.0503 32.0512 40.046C32.0512 40.0417 32.0511 40.0375 32.0511 40.0332C32.051 40.0289 32.051 40.0246 32.051 40.0204C32.0509 40.0161 32.0509 40.0119 32.0508 40.0076C32.0508 40.0033 32.0508 39.9991 32.0507 39.9948C32.0507 39.9906 32.0507 39.9863 32.0506 39.9821C32.0506 39.9778 32.0505 39.9736 32.0505 39.9693C32.0505 39.9651 32.0504 39.9609 32.0504 39.9566C32.0503 39.9524 32.0503 39.9482 32.0503 39.9439C32.0502 39.9397 32.0502 39.9355 32.0502 39.9313C32.0501 39.9271 32.0501 39.9228 32.05 39.9186C32.05 39.9144 32.05 39.9102 32.0499 39.906C32.0499 39.9018 32.0499 39.8976 32.0498 39.8934C32.0498 39.8892 32.0497 39.885 32.0497 39.8808C32.0497 39.8766 32.0496 39.8724 32.0496 39.8682C32.0496 39.864 32.0495 39.8599 32.0495 39.8557C32.0494 39.8515 32.0494 39.8473 32.0494 39.8431C32.0493 39.839 32.0493 39.8348 32.0493 39.8306C32.0492 39.8265 32.0492 39.8223 32.0491 39.8182C32.0491 39.814 32.0491 39.8098 32.049 39.8057C32.049 39.8015 32.049 39.7974 32.0489 39.7933C32.0489 39.7891 32.0488 39.785 32.0488 39.7808C32.0488 39.7767 32.0487 39.7726 32.0487 39.7684C32.0487 39.7643 32.0486 39.7602 32.0486 39.7561C32.0485 39.7519 32.0485 39.7478 32.0485 39.7437C32.0484 39.7396 32.0484 39.7355 32.0484 39.7314C32.0483 39.7273 32.0483 39.7232 32.0482 39.7191C32.0482 39.715 32.0482 39.7109 32.0481 39.7068C32.0481 39.7027 32.0481 39.6986 32.048 39.6945C32.048 39.6904 32.0479 39.6864 32.0479 39.6823C32.0479 39.6782 32.0478 39.6741 32.0478 39.6701C32.0478 39.666 32.0477 39.6619 32.0477 39.6579C32.0477 39.6538 32.0476 39.6498 32.0476 39.6457C32.0475 39.6417 32.0475 39.6376 32.0475 39.6336C32.0474 39.6295 32.0474 39.6255 32.0474 39.6214C32.0473 39.6174 32.0473 39.6134 32.0473 39.6093C32.0472 39.6053 32.0472 39.6013 32.0471 39.5973C32.0471 39.5933 32.0471 39.5892 32.047 39.5852C32.047 39.5812 32.047 39.5772 32.0469 39.5732C32.0469 39.5692 32.0469 39.5652 32.0468 39.5612C32.0468 39.5572 32.0467 39.5532 32.0467 39.5492C32.0467 39.5452 32.0466 39.5413 32.0466 39.5373C32.0466 39.5333 32.0465 39.5293 32.0465 39.5254C32.0465 39.5214 32.0464 39.5174 32.0464 39.5135C32.0464 39.5095 32.0463 39.5055 32.0463 39.5016C32.0462 39.4976 32.0462 39.4937 32.0462 39.4898C32.0461 39.4858 32.0461 39.4819 32.0461 39.4779C32.046 39.474 32.046 39.4701 32.046 39.4661C32.0459 39.4622 32.0459 39.4583 32.0459 39.4544C32.0458 39.4505 32.0458 39.4465 32.0458 39.4426C32.0457 39.4387 32.0457 39.4348 32.0456 39.4309C32.0456 39.427 32.0456 39.4231 32.0455 39.4192C32.0455 39.4153 32.0455 39.4115 32.0454 39.4076C32.0454 39.4037 32.0454 39.3998 32.0453 39.3959C32.0453 39.3921 32.0453 39.3882 32.0452 39.3843C32.0452 39.3805 32.0452 39.3766 32.0451 39.3728C32.0451 39.3689 32.0451 39.3651 32.045 39.3612L36.0449 39.3251ZM36.0973 45.1374C36.0963 45.0264 36.0632 44.7713 35.811 44.5354C35.677 44.4101 35.5302 44.3414 35.4151 44.3131C35.3108 44.2875 35.285 44.3075 35.3793 44.2921L36.0231 48.2399C34.9704 48.4116 33.8906 48.2163 33.0786 47.4567C32.33 46.7565 32.1035 45.8469 32.0974 45.1735L36.0973 45.1374ZM35.0403 44.3784C43.566 41.3936 49.4277 33.2041 49.3415 23.6421L53.3413 23.606C53.4428 34.8557 46.5281 44.5946 36.362 48.1537L35.0403 44.3784ZM49.3415 23.6421C49.2347 11.8096 40.1115 2.84948 28.279 2.9562L28.243 -1.04364C42.2845 -1.17029 53.2146 9.5645 53.3413 23.606L49.3415 23.6421ZM40.932 34.6013C41.3017 34.9644 41.7432 35.104 42.0913 35.1311C42.3959 35.1548 42.6207 35.0944 42.7007 35.0708C42.835 35.0311 42.9224 34.9783 42.776 35.0531L40.955 31.4917C40.9952 31.4711 41.2693 31.3228 41.5672 31.2348C41.7829 31.171 42.8548 30.8833 43.7348 31.7475L40.932 34.6013ZM43.2924 34.6738C43.5512 34.4103 43.6755 34.0894 43.7057 33.7931C43.7209 33.644 43.7171 33.458 43.6645 33.2483C43.6169 33.0587 43.4959 32.7208 43.1782 32.4088L40.3754 35.2626C39.705 34.6042 39.6872 33.7709 39.7263 33.3872C39.7781 32.8798 39.994 32.3237 40.4386 31.871L43.2924 34.6738ZM42.6551 32.0389C42.4528 31.94 42.2363 31.8867 42.0245 31.8754C41.8215 31.8645 41.6589 31.894 41.5557 31.9208C41.4563 31.9466 41.3919 31.9754 41.3803 31.9805C41.3722 31.9842 41.3728 31.9844 41.4279 31.9562L43.249 35.5176C43.2011 35.5421 42.9065 35.7027 42.5608 35.7924C42.1424 35.9011 41.5339 35.9431 40.8986 35.6326L42.6551 32.0389ZM40.5416 32.8586C40.5372 32.8677 40.5248 32.8936 40.5102 32.9366C40.4977 32.9731 40.4662 33.0718 40.4514 33.2166C40.4378 33.35 40.4251 33.6469 40.5631 34.0008C40.7224 34.4097 41.0352 34.766 41.4551 34.9713L43.2116 31.3776C44.4152 31.9659 44.4776 33.1635 44.4307 33.6225C44.3841 34.08 44.2161 34.45 44.1353 34.6152L40.5416 32.8586ZM41.9564 33.8421C42.0492 33.9332 42.2117 34.0706 42.4503 34.1803C42.7031 34.2965 42.9692 34.3484 43.2229 34.3461C43.458 34.344 43.637 34.2958 43.7336 34.264C43.829 34.2325 43.8878 34.2021 43.8934 34.1992L42.0723 30.6378C42.221 30.5618 42.6398 30.3512 43.1868 30.3463C43.9041 30.3398 44.4361 30.6709 44.7592 30.9882L41.9564 33.8421ZM43.8934 34.1992C43.8937 34.1991 44.0346 34.131 44.2001 33.9625C44.3697 33.7898 44.7101 33.3549 44.7041 32.6843L40.7042 32.7203C40.6973 31.956 41.0838 31.4269 41.3463 31.1597C41.6047 30.8965 41.8853 30.7334 42.0723 30.6378L43.8934 34.1992ZM44.4849 31.7918C44.3852 31.5968 44.2203 31.374 43.9658 31.1894C43.7088 31.0031 43.4283 30.905 43.1697 30.8705C42.6958 30.8071 42.365 30.959 42.2632 31.0111L44.0842 34.5725C43.7958 34.72 43.2779 34.9205 42.6398 34.8352C41.8718 34.7326 41.2533 34.258 40.9234 33.6128L44.4849 31.7918ZM42.2632 31.0111C42.2613 31.0121 42.1884 31.0483 42.0914 31.1214C41.995 31.194 41.8066 31.3534 41.6474 31.6242C41.471 31.9242 41.3803 32.2773 41.398 32.6373C41.4141 32.9653 41.515 33.2043 41.5771 33.3257L45.1385 31.5046C45.3814 31.9796 45.5889 32.8121 45.0958 33.6512C44.7426 34.2519 44.1917 34.5176 44.0842 34.5725L42.2632 31.0111ZM38.987 37.244C39.4459 37.6947 40.0441 37.7729 40.4693 37.6838C40.8249 37.6094 41.0449 37.4352 41.1599 37.3181L38.3061 34.5153C38.6069 34.2091 39.06 33.8922 39.6495 33.7687C40.3087 33.6307 41.1417 33.7536 41.7898 34.3902L38.987 37.244ZM41.1599 37.3181C41.4187 37.0546 41.543 36.7337 41.5732 36.4374C41.5884 36.2883 41.5846 36.1023 41.532 35.8927C41.4844 35.703 41.3634 35.3652 41.0457 35.0531L38.2429 37.907C37.5725 37.2485 37.5547 36.4153 37.5939 36.0316C37.6456 35.5241 37.8615 34.968 38.3061 34.5153L41.1599 37.3181ZM41.4251 35.5695C41.2147 35.158 40.843 34.828 40.3811 34.6734C39.972 34.5364 39.6264 34.58 39.4398 34.6232C39.087 34.705 38.8818 34.8752 38.7791 34.9798L41.6329 37.7826C41.3444 38.0764 40.9061 38.3894 40.3427 38.52C40.0509 38.5876 39.6057 38.632 39.1113 38.4665C38.5643 38.2834 38.1217 37.8954 37.8636 37.3906L41.4251 35.5695ZM39.0816 34.7272C38.8234 34.9028 38.5731 35.2151 38.4813 35.6465C38.4381 35.8494 38.4293 36.0863 38.4843 36.3406C38.5356 36.5778 38.6661 36.9288 38.987 37.244L41.7898 34.3902C42.4845 35.0725 42.5047 35.9574 42.3937 36.479C42.2569 37.1218 41.8681 37.6697 41.3303 38.0353L39.0816 34.7272ZM40.5287 36.1984C40.7295 36.2966 40.9659 36.3601 41.2215 36.3657C41.4722 36.3713 41.6848 36.3202 41.8447 36.2586C41.9992 36.1991 42.1071 36.129 42.1675 36.0847C42.2287 36.0399 42.2638 36.005 42.273 35.9955L39.4192 33.1927C39.603 33.0057 39.9319 32.709 40.4065 32.5261C40.9599 32.3129 41.6373 32.2881 42.2852 32.6047L40.5287 36.1984ZM42.643 35.4724C42.7551 35.243 42.78 35.0443 42.7786 34.8931C42.7778 34.8083 42.7683 34.6736 42.7207 34.5068C42.6799 34.3641 42.5662 34.0377 42.2526 33.7297L39.4498 36.5835C39.0889 36.2291 38.9394 35.8327 38.8745 35.6052C38.8026 35.3537 38.7805 35.1195 38.7788 34.9292C38.7755 34.5671 38.8451 34.1336 39.0493 33.7159L42.643 35.4724ZM41.7295 33.3598C41.5286 33.2616 41.2922 33.1981 41.0366 33.1925C40.786 33.1869 40.5733 33.238 40.4134 33.2996C40.2589 33.3591 40.151 33.4292 40.0906 33.4735C40.0295 33.5182 39.9944 33.5532 39.9851 33.5627L42.8389 36.3655C42.6552 36.5525 42.3262 36.8492 41.8517 37.032C41.2982 37.2453 40.6208 37.2701 39.9729 36.9535L41.7295 33.3598ZM39.9851 33.5627C39.7381 33.8141 39.5456 34.1957 39.5498 34.6644C39.5543 35.1555 39.8087 35.8465 40.5287 36.1984L42.2852 32.6047C43.1935 33.0487 43.5433 33.9264 43.5497 34.6284C43.5558 35.308 43.2716 35.9248 42.8389 36.3655L39.9851 33.5627Z" fill="black"/>
</g>
<defs>
<filter id="filter0_d_115_51" x="0.636963" y="0.749969" width="54.909" height="53.98" filterUnits="userSpaceOnUse" color-interpolation-filters="sRGB">
<feFlood flood-opacity="0" result="BackgroundImageFix"/>
<feColorMatrix in="SourceAlpha" type="matrix" values="0 0 0 0 0 0 0 0 0 0 0 0 0 0 0 0 0 0 127 0" result="hardAlpha"/>
<feOffset dy="4"/>
<feGaussianBlur stdDeviation="2"/>
<feComposite in2="hardAlpha" operator="out"/>
<feColorMatrix type="matrix" values="0 0 0 0 0 0 0 0 0 0 0 0 0 0 0 0 0 0 0.25 0"/>
<feBlend mode="normal" in2="BackgroundImageFix" result="effect1_dropShadow_115_51"/>
<feBlend mode="normal" in="SourceGraphic" in2="effect1_dropShadow_115_51" result="shape"/>
</filter>
</defs>
</svg>
