<svg width="65" height="62" viewBox="0 0 65 62" fill="none" xmlns="http://www.w3.org/2000/svg">
<path d="M22.4077 49.4579C22.4006 49.208 22.1436 48.9588 21.7686 48.9599C21.3936 48.961 21.1506 49.2116 21.1577 49.4615C21.1648 49.7114 21.4219 49.9606 21.7933 49.8346C22.1683 49.8335 22.4148 49.7078 22.4077 49.4579ZM18.515 48.8443C18.633 48.594 19.0044 48.468 19.383 48.5919C19.7615 48.7158 19.8936 48.9653 19.9006 49.2152C19.7827 49.4655 19.4113 49.5915 19.1577 49.4673C18.7827 49.4683 18.5221 49.0942 18.515 48.8443ZM24.1365 48.7032C24.3829 48.5775 24.765 48.8263 24.7721 49.0762C24.9042 49.3258 24.6577 49.4515 24.2862 49.5775C23.9148 49.7035 23.5362 49.5796 23.5292 49.3297C23.5185 48.9549 23.7615 48.7043 24.1365 48.7032ZM30.9032 0.699064C48.2781 0.649134 62.778 13.8532 63.2661 31.0963C63.6587 44.9658 55.4948 56.8604 43.1116 61.0197C41.4972 61.3992 40.8439 60.4014 40.8191 59.5268C40.7908 58.5272 40.7673 53.2789 40.6506 49.1556C40.5657 46.1568 39.5126 44.2854 38.3593 43.289C45.3381 42.5192 52.6847 41.4984 52.3452 29.5032C52.2461 26.0046 50.9502 24.3839 48.8865 22.1405C49.1117 21.2652 50.1448 18.0132 48.271 13.645C45.6212 12.7779 39.7415 17.0434 39.7415 17.0434C37.2203 16.3009 34.5882 16.0586 31.8382 16.0665C29.2133 16.074 26.5953 16.3315 24.1166 17.0883C24.1166 17.0883 17.8749 12.9826 15.3961 13.7395C13.7699 18.1178 14.8619 21.3636 15.2616 22.2372C13.3253 24.492 12.3713 26.1192 12.4703 29.6178C12.8099 41.613 19.9632 42.5921 26.9844 43.3217C26.0091 44.1992 25.298 45.5759 25.1046 47.5758C23.2544 48.4558 18.7933 49.8432 15.9054 44.978C14.0705 41.9843 10.9384 41.7434 10.9384 41.7434C7.93846 41.752 10.87 43.7429 10.87 43.7429C12.8948 44.6118 14.3724 48.2314 14.3724 48.2314C16.4065 53.8488 25.1034 51.9494 25.1034 51.9494C25.1777 54.5733 25.298 58.8216 25.3227 59.6963C25.344 60.446 24.8723 61.447 23.2402 61.2018C10.62 56.9894 1.65899 45.1439 1.26636 31.2745C0.778236 14.0314 13.6532 0.748633 30.9032 0.699064ZM13.7486 43.8596C13.87 43.7343 14.1236 43.8585 14.3771 43.9828C14.6342 44.2319 14.6448 44.6068 14.5233 44.7321C14.2769 44.8578 14.0233 44.7335 13.7698 44.6093C13.6377 44.3598 13.5021 43.9853 13.7486 43.8596ZM12.3453 42.8639C12.4667 42.7386 12.5917 42.7383 12.8453 42.8625C13.0988 42.9867 13.2273 43.1113 13.2309 43.2363C13.113 43.4865 12.863 43.4873 12.6094 43.363C12.3559 43.2388 12.2273 43.1142 12.3453 42.8639ZM16.4726 47.3507C16.7155 47.1 17.0941 47.2239 17.3511 47.4731C17.6082 47.7223 17.6188 48.0971 17.4974 48.2224C17.3794 48.4727 17.0009 48.3488 16.7438 48.0996C16.3617 47.8508 16.3511 47.476 16.4726 47.3507ZM15.0445 45.4804C15.291 45.3547 15.5445 45.4789 15.8016 45.7281C15.9337 45.9776 15.9443 46.3525 15.8228 46.4778C15.5764 46.6035 15.3228 46.4792 15.0658 46.2301C14.8087 45.9809 14.7981 45.606 15.0445 45.4804Z" fill="black"/>
<path d="M21.7933 49.8346L21.7367 47.8354L21.4122 47.8363L21.1072 47.9398L21.7933 49.8346ZM18.515 48.8443L16.7009 47.9554L16.5017 48.3781L16.515 48.8501L18.515 48.8443ZM19.9006 49.2152L21.7148 50.1041L21.914 49.6814L21.9006 49.2095L19.9006 49.2152ZM19.1577 49.4673L20.0015 47.6766L19.5733 47.4667L19.1011 47.4681L19.1577 49.4673ZM24.1365 48.7032L24.1931 50.7024L24.6652 50.701L25.0815 50.4888L24.1365 48.7032ZM24.7721 49.0762L22.7721 49.082L22.7855 49.5539L23.0085 49.9755L24.7721 49.0762ZM43.1116 61.0197L43.6164 62.9664L43.7055 62.9455L43.7921 62.9164L43.1116 61.0197ZM38.3593 43.289L38.09 41.3018L33.6107 41.7959L37.0729 44.7871L38.3593 43.289ZM48.8865 22.1405L46.9479 21.5968L46.6759 22.654L47.4293 23.473L48.8865 22.1405ZM48.271 13.645L50.1069 12.8972L49.738 12.0373L48.8497 11.7466L48.271 13.645ZM39.7415 17.0434L39.221 18.96L40.1635 19.2375L40.9437 18.6715L39.7415 17.0434ZM24.1166 17.0883L23.0463 18.7498L23.8465 19.2761L24.7455 19.0016L24.1166 17.0883ZM15.3961 13.7395L14.7672 11.8262L13.8511 12.106L13.5181 13.0023L15.3961 13.7395ZM15.2616 22.2372L16.794 23.5611L17.6109 22.6098L17.0776 21.4443L15.2616 22.2372ZM26.9844 43.3217L28.344 44.8225L31.6957 41.8066L27.1412 41.3333L26.9844 43.3217ZM25.1046 47.5758L26.0017 49.385L26.9901 48.9148L27.0962 47.818L25.1046 47.5758ZM15.9054 44.978L17.6195 43.9908L17.6121 43.9782L17.6044 43.9657L15.9054 44.978ZM10.9384 41.7434L11.0415 39.7501L10.9617 39.7439L10.8819 39.7442L10.9384 41.7434ZM10.87 43.7429L9.77438 45.3873L9.93845 45.4988L10.1203 45.5768L10.87 43.7429ZM14.3724 48.2314L16.2518 47.5938L16.2378 47.5551L16.2223 47.517L14.3724 48.2314ZM25.1034 51.9494L27.1034 51.9436L27.0334 49.4706L24.629 49.9958L25.1034 51.9494ZM23.2402 61.2018L22.65 63.0964L22.8178 63.1524L22.992 63.1786L23.2402 61.2018ZM13.7486 43.8596L14.6936 45.6452L14.9798 45.4992L15.2028 45.2692L13.7486 43.8596ZM14.3771 43.9828L15.7513 42.565L15.5153 42.3363L15.2209 42.192L14.3771 43.9828ZM14.5233 44.7321L15.4684 46.5177L15.7545 46.3717L15.9775 46.1417L14.5233 44.7321ZM13.7698 44.6093L12.0063 45.5085L12.3213 46.1037L12.926 46.4L13.7698 44.6093ZM12.3453 42.8639L10.891 41.4544L10.668 41.6844L10.5311 41.975L12.3453 42.8639ZM13.2309 43.2363L15.045 44.1252L15.2442 43.7025L15.2309 43.2305L13.2309 43.2363ZM17.4974 48.2224L16.0431 46.8128L15.8201 47.0429L15.6832 47.3335L17.4974 48.2224ZM16.7438 48.0996L18.118 46.6819L17.974 46.5423L17.8061 46.433L16.7438 48.0996ZM15.8016 45.7281L17.5652 44.8289L17.4118 44.5391L17.1758 44.3104L15.8016 45.7281ZM15.8228 46.4778L16.7679 48.2634L17.0541 48.1174L17.2771 47.8874L15.8228 46.4778ZM24.4077 49.4522C24.3615 47.8201 22.8912 46.9573 21.712 46.9607L21.8252 50.9591C21.3959 50.9603 20.4398 50.5959 20.4077 49.4637L24.4077 49.4522ZM21.712 46.9607C20.5327 46.9641 19.1115 47.8352 19.1577 49.4673L23.1577 49.4558C23.1898 50.588 22.2544 50.9579 21.8252 50.9591L21.712 46.9607ZM19.1577 49.4673C19.1797 50.2441 19.5798 50.9712 20.2224 51.4192C20.9181 51.9041 21.7549 51.9752 22.4795 51.7294L21.1072 47.9398C21.4603 47.82 21.9828 47.8295 22.4553 48.1589C22.8747 48.4512 23.1428 48.9289 23.1577 49.4558L19.1577 49.4673ZM21.8499 51.8338C22.2106 51.8327 22.76 51.779 23.2852 51.4725C23.9171 51.1037 24.4343 50.3927 24.4077 49.4522L20.4077 49.4637C20.3996 49.1776 20.4669 48.8602 20.6414 48.5673C20.8101 48.2843 21.0283 48.1082 21.2024 48.0066C21.3708 47.9083 21.5141 47.8693 21.5912 47.8531C21.6717 47.8363 21.7236 47.8354 21.7367 47.8354L21.8499 51.8338ZM20.3292 49.7332C20.103 50.2133 19.7177 50.4185 19.4802 50.491C19.2265 50.5685 18.9917 50.5517 18.8042 50.4903L19.9617 46.6935C18.9917 46.376 17.3804 46.5132 16.7009 47.9554L20.3292 49.7332ZM18.8042 50.4903C18.6655 50.4449 18.4053 50.3168 18.1865 50.023C17.9712 49.7337 17.9066 49.4322 17.9006 49.221L21.9006 49.2095C21.8876 48.7483 21.7534 48.197 21.3757 47.6896C20.9945 47.1775 20.4789 46.8627 19.9617 46.6935L18.8042 50.4903ZM18.0865 48.3263C18.302 47.869 18.6602 47.6662 18.8939 47.5869C19.1276 47.5076 19.5383 47.4496 20.0015 47.6766L18.3139 51.258C19.0307 51.6092 19.7538 51.5503 20.2662 51.3765C20.7785 51.2026 21.3814 50.8117 21.7148 50.1041L18.0865 48.3263ZM19.1011 47.4681C19.6231 47.4666 19.9874 47.7317 20.1663 47.9291C20.311 48.0888 20.5021 48.3833 20.515 48.8386L16.515 48.8501C16.535 49.5552 16.86 50.1617 17.2305 50.5707C17.6352 51.0174 18.3174 51.469 19.2143 51.4665L19.1011 47.4681ZM25.0815 50.4888C24.3663 50.8534 23.7483 50.5794 23.532 50.4472C23.3861 50.3581 23.2281 50.2262 23.0902 50.0346C22.955 49.8468 22.7845 49.521 22.7721 49.082L26.7721 49.0705C26.7414 47.9853 25.9992 47.3213 25.556 47.0505C25.0854 46.7629 24.1531 46.4273 23.1914 46.9176L25.0815 50.4888ZM23.0085 49.9755C22.8815 49.7353 22.7354 49.3043 22.8461 48.7811C22.9525 48.2786 23.2366 47.9759 23.3941 47.841C23.5437 47.713 23.6658 47.66 23.669 47.6585C23.6836 47.6519 23.6701 47.6589 23.6001 47.6827L24.9724 51.4723C25.1176 51.423 25.6265 51.2609 26.0418 50.9053C26.2909 50.6921 26.6351 50.3033 26.7621 49.7031C26.8935 49.0823 26.7287 48.5419 26.5356 48.177L23.0085 49.9755ZM23.6001 47.6827C23.7604 47.6283 24.0196 47.5881 24.3498 47.6962C24.6406 47.7913 25.4985 48.2403 25.5292 49.324L21.5292 49.3355C21.5669 50.6691 22.6176 51.305 23.1923 51.493C23.8065 51.694 24.4406 51.6527 24.9724 51.4723L23.6001 47.6827ZM25.5292 49.324C25.5367 49.5909 25.4497 49.9689 25.1424 50.2859C24.8352 50.6028 24.4601 50.7016 24.1931 50.7024L24.0799 46.704C23.4379 46.7058 22.7538 46.9305 22.234 47.4667C21.7142 48.003 21.511 48.6937 21.5292 49.3355L25.5292 49.324ZM30.9598 2.69826C47.3101 2.65128 60.8115 15.0414 61.2661 31.1021L65.2661 31.0906C64.7445 12.6651 49.2461 -1.35301 30.8466 -1.30014L30.9598 2.69826ZM61.2661 31.1021C61.6353 44.1449 53.9689 55.2477 42.4311 59.123L43.7921 62.9164C57.0207 58.4732 65.6821 45.7867 65.2661 31.0906L61.2661 31.1021ZM42.6067 59.073C42.4158 59.1179 42.3569 59.0976 42.3944 59.1046C42.4429 59.1136 42.5401 59.1476 42.6389 59.2312C42.7307 59.3088 42.7775 59.3897 42.7979 59.4376C42.8166 59.4813 42.8188 59.5082 42.8191 59.521L38.8191 59.5325C38.8437 60.3985 39.1796 61.478 40.0996 62.2559C41.0858 63.0898 42.3613 63.2615 43.6164 62.9664L42.6067 59.073ZM42.8191 59.521C42.8056 59.0424 42.793 57.517 42.7686 55.5388C42.7446 53.5844 42.7094 51.2283 42.6505 49.1498L38.6506 49.1613C38.7085 51.2062 38.7434 53.5359 38.7674 55.4863C38.7911 57.4131 38.8044 59.0115 38.8191 59.5325L42.8191 59.521ZM42.6505 49.1498C42.5528 45.6982 41.3199 43.2373 39.6457 41.791L37.0729 44.7871C37.7054 45.3335 38.5785 46.6154 38.6506 49.1613L42.6505 49.1498ZM38.6287 45.2762C42.02 44.9022 46.1255 44.4368 49.266 42.257C52.6253 39.9254 54.5276 35.9418 54.3452 29.4975L50.3452 29.509C50.5023 35.0598 48.901 37.5843 46.9272 38.9543C44.7346 40.4761 41.6774 40.9061 38.09 41.3018L38.6287 45.2762ZM54.3452 29.4975C54.2882 27.4855 53.8781 25.8917 53.1161 24.452C52.3831 23.067 51.3722 21.9261 50.3437 20.808L47.4293 23.473C48.4645 24.5983 49.1334 25.3894 49.589 26.2504C50.0157 27.0565 50.3031 28.0224 50.3452 29.509L54.3452 29.4975ZM50.8251 22.6842C51.0666 21.7454 52.2638 17.9253 50.1069 12.8972L46.435 14.3928C48.0258 18.1011 47.1568 20.7849 46.9479 21.5968L50.8251 22.6842ZM48.8497 11.7466C47.5795 11.3309 46.2212 11.5871 45.1992 11.8946C44.1028 12.2245 42.9933 12.7408 42.0378 13.249C41.0714 13.763 40.2025 14.3012 39.5787 14.7078C39.2654 14.9121 39.0103 15.0856 38.8315 15.2094C38.742 15.2714 38.6715 15.321 38.6221 15.3561C38.5974 15.3736 38.5779 15.3875 38.5641 15.3975C38.5571 15.4025 38.5516 15.4065 38.5474 15.4095C38.5453 15.411 38.5436 15.4122 38.5423 15.4132C38.5416 15.4137 38.541 15.4141 38.5405 15.4145C38.5403 15.4147 38.54 15.4149 38.5398 15.415C38.5396 15.4152 38.5393 15.4154 39.7415 17.0434C40.9437 18.6715 40.9435 18.6717 40.9433 18.6718C40.9433 18.6718 40.9431 18.672 40.943 18.672C40.9429 18.6721 40.9428 18.6721 40.9429 18.6721C40.943 18.6721 40.9434 18.6718 40.9441 18.6712C40.9457 18.6701 40.9486 18.668 40.9529 18.6649C40.9614 18.6588 40.9753 18.6489 40.9943 18.6354C41.0323 18.6084 41.0907 18.5673 41.1671 18.5143C41.3203 18.4082 41.5452 18.2552 41.8245 18.0732C42.386 17.7071 43.1526 17.2331 43.9874 16.7891C44.833 16.3394 45.6902 15.9518 46.4416 15.7258C46.8147 15.6135 47.1202 15.5539 47.356 15.5347C47.5981 15.5151 47.694 15.544 47.6922 15.5434L48.8497 11.7466ZM40.262 15.1269C37.4884 14.3101 34.6461 14.059 31.7816 14.0673L31.8948 18.0657C34.5304 18.0581 36.9522 18.2918 39.221 18.96L40.262 15.1269ZM31.7816 14.0673C29.0377 14.0752 26.2116 14.3434 23.4877 15.1751L24.7455 19.0016C26.9791 18.3195 29.3888 18.0729 31.8948 18.0657L31.7816 14.0673ZM24.1166 17.0883C25.1868 15.4269 25.1866 15.4268 25.1863 15.4266C25.1862 15.4265 25.1859 15.4263 25.1856 15.4261C25.1851 15.4258 25.1846 15.4254 25.1839 15.425C25.1825 15.4241 25.1808 15.4229 25.1786 15.4215C25.1744 15.4188 25.1686 15.415 25.1614 15.4103C25.147 15.4009 25.1267 15.3877 25.1008 15.371C25.0491 15.3376 24.975 15.2902 24.8811 15.2309C24.6934 15.1125 24.4257 14.9462 24.0976 14.75C23.4444 14.3594 22.5385 13.8419 21.5419 13.3454C20.556 12.8542 19.4249 12.3549 18.3316 12.0289C17.3263 11.7291 15.979 11.4562 14.7672 11.8262L16.025 15.6527C16.003 15.6594 16.0877 15.6313 16.3381 15.6558C16.5782 15.6792 16.892 15.7431 17.2772 15.858C18.0514 16.0889 18.9455 16.4741 19.8298 16.9147C20.7035 17.35 21.513 17.8117 22.1075 18.1673C22.4034 18.3442 22.6426 18.4928 22.806 18.5959C22.8876 18.6474 22.95 18.6874 22.9909 18.7138C23.0114 18.727 23.0264 18.7368 23.0358 18.7429C23.0404 18.7459 23.0437 18.748 23.0454 18.7492C23.0463 18.7498 23.0468 18.7501 23.047 18.7502C23.0471 18.7503 23.047 18.7502 23.0469 18.7502C23.0469 18.7501 23.0467 18.75 23.0467 18.75C23.0465 18.7499 23.0463 18.7498 24.1166 17.0883ZM13.5181 13.0023C11.6701 17.9778 12.8752 21.7834 13.4456 23.03L17.0776 21.4443C16.8485 20.9437 15.8697 18.2577 17.2741 14.4766L13.5181 13.0023ZM13.7292 20.9133C12.7275 22.0798 11.8411 23.2377 11.2521 24.6544C10.6511 26.0998 10.4151 27.6735 10.4703 29.6236L14.4703 29.6121C14.4265 28.0635 14.618 27.0743 14.9533 26.2678C15.3006 25.4324 15.8595 24.6494 16.794 23.5611L13.7292 20.9133ZM10.4703 29.6236C10.652 36.0419 12.6995 40.0168 16.1278 42.34C19.336 44.5141 23.4164 44.9557 26.8276 45.3102L27.1412 41.3333C23.5312 40.9582 20.5243 40.5454 18.3157 39.0488C16.3271 37.7012 14.6282 35.189 14.4703 29.6121L10.4703 29.6236ZM25.6248 41.821C24.2226 43.0826 23.344 44.9457 23.1131 47.3335L27.0962 47.818C27.2521 46.206 27.7957 45.3158 28.344 44.8225L25.6248 41.821ZM24.2076 45.7666C23.4219 46.1403 22.2186 46.5461 21.0205 46.44C19.9705 46.3469 18.7257 45.8543 17.6195 43.9908L14.1912 45.9653C15.973 48.9669 18.4028 50.2132 20.7678 50.4227C22.9848 50.6191 24.9372 49.8913 26.0017 49.385L24.2076 45.7666ZM17.6044 43.9657C16.4113 42.019 14.787 40.9635 13.4836 40.4041C12.8345 40.1256 12.2562 39.9656 11.83 39.8738C11.616 39.8278 11.4373 39.7983 11.3034 39.7796C11.2364 39.7703 11.1803 39.7636 11.1364 39.7589C11.1144 39.7566 11.0954 39.7547 11.0796 39.7533C11.0716 39.7526 11.0645 39.7519 11.0581 39.7514C11.055 39.7511 11.052 39.7509 11.0492 39.7507C11.0478 39.7506 11.0465 39.7504 11.0452 39.7503C11.0446 39.7503 11.0437 39.7502 11.0433 39.7502C11.0424 39.7501 11.0415 39.7501 10.9384 41.7434C10.8354 43.7366 10.8345 43.7366 10.8336 43.7365C10.8334 43.7365 10.8325 43.7364 10.832 43.7364C10.8309 43.7363 10.8298 43.7362 10.8288 43.7361C10.8268 43.736 10.825 43.7358 10.8233 43.7357C10.82 43.7354 10.8174 43.7352 10.8154 43.735C10.8115 43.7346 10.8103 43.7345 10.8117 43.7346C10.8146 43.7349 10.8276 43.7364 10.8498 43.7395C10.8944 43.7457 10.9747 43.7584 11.083 43.7817C11.3014 43.8287 11.6208 43.916 11.9841 44.0719C12.7055 44.3815 13.5646 44.9433 14.2064 45.9903L17.6044 43.9657ZM10.8819 39.7442C10.4148 39.7455 9.94515 39.7838 9.51202 39.8994C9.10032 40.0094 8.51072 40.2455 8.07423 40.8032C7.57606 41.4397 7.5186 42.1773 7.64314 42.7539C7.75227 43.2591 7.99544 43.6499 8.16323 43.8837C8.50481 44.3598 8.94912 44.7477 9.21388 44.9646C9.36282 45.0866 9.49614 45.1875 9.59346 45.2589C9.64256 45.2949 9.68366 45.3242 9.71439 45.3458C9.72978 45.3566 9.74266 45.3656 9.75273 45.3725C9.75777 45.376 9.76212 45.379 9.76573 45.3815C9.76754 45.3827 9.76917 45.3838 9.77061 45.3848C9.77133 45.3853 9.77201 45.3857 9.77263 45.3862C9.77295 45.3864 9.77338 45.3867 9.77354 45.3868C9.77396 45.3871 9.77438 45.3873 10.87 43.7429C11.9657 42.0985 11.9661 42.0987 11.9665 42.099C11.9666 42.0991 11.967 42.0993 11.9672 42.0995C11.9676 42.0998 11.968 42.1001 11.9684 42.1003C11.9691 42.1008 11.9697 42.1012 11.9701 42.1015C11.9709 42.102 11.9711 42.1022 11.9707 42.1019C11.9699 42.1013 11.9667 42.0991 11.9613 42.0953C11.9506 42.0878 11.9316 42.0743 11.9064 42.0558C11.8551 42.0182 11.7829 41.9635 11.7038 41.8988C11.6234 41.8329 11.5472 41.7658 11.484 41.7037C11.453 41.6733 11.4295 41.6484 11.4129 41.6296C11.3957 41.6101 11.3911 41.6032 11.3953 41.609C11.3985 41.6136 11.4204 41.6442 11.4484 41.6999C11.4629 41.7288 11.481 41.7682 11.4993 41.8177C11.5175 41.8671 11.5374 41.9302 11.5538 42.0057C11.5864 42.1571 11.6073 42.3713 11.5613 42.6209C11.5384 42.7453 11.5003 42.8701 11.4457 42.9914C11.3911 43.1125 11.3242 43.2209 11.25 43.3156C11.1019 43.5049 10.9431 43.6172 10.8338 43.6788C10.7789 43.7097 10.733 43.7299 10.7006 43.7425C10.6682 43.7551 10.6458 43.7615 10.6363 43.7641C10.6196 43.7685 10.6373 43.7624 10.7024 43.7555C10.766 43.7489 10.8614 43.7429 10.995 43.7426L10.8819 39.7442ZM10.1203 45.5768C10.4885 45.7348 11.0762 46.3398 11.6825 47.3269C11.9477 47.7589 12.1627 48.1739 12.3115 48.4825C12.3852 48.6354 12.441 48.7587 12.477 48.8405C12.495 48.8813 12.5079 48.9115 12.5156 48.9296C12.5194 48.9386 12.5219 48.9446 12.5231 48.9474C12.5237 48.9488 12.5239 48.9494 12.5238 48.9491C12.5238 48.949 12.5236 48.9487 12.5234 48.9481C12.5233 48.9478 12.5231 48.9475 12.523 48.9471C12.5229 48.9469 12.5228 48.9466 12.5227 48.9465C12.5226 48.9462 12.5224 48.9458 14.3724 48.2314C16.2223 47.517 16.2221 47.5166 16.222 47.5162C16.2219 47.5161 16.2217 47.5157 16.2216 47.5154C16.2214 47.5148 16.2211 47.5141 16.2208 47.5134C16.2202 47.512 16.2195 47.5103 16.2188 47.5084C16.2172 47.5047 16.2153 47.5001 16.213 47.4946C16.2085 47.4836 16.2024 47.4692 16.1949 47.4515C16.18 47.4162 16.1592 47.3678 16.1328 47.3079C16.0801 47.1883 16.0047 47.022 15.9083 46.822C15.7167 46.4248 15.4357 45.8807 15.0785 45.299C14.4398 44.2592 13.2763 42.6199 11.6198 41.909L10.1203 45.5768ZM12.4929 48.8691C13.9307 52.8396 17.7016 53.9381 20.3644 54.1874C21.7528 54.3173 23.0442 54.2456 23.9749 54.1464C24.4445 54.0963 24.8328 54.0381 25.1088 53.9913C25.247 53.9679 25.3577 53.9473 25.437 53.9318C25.4767 53.924 25.5086 53.9176 25.5322 53.9127C25.544 53.9102 25.5537 53.9082 25.5614 53.9065C25.5652 53.9057 25.5685 53.905 25.5712 53.9044C25.5726 53.9041 25.5738 53.9039 25.5749 53.9036C25.5755 53.9035 25.5762 53.9033 25.5765 53.9033C25.5772 53.9031 25.5778 53.903 25.1034 51.9494C24.629 49.9958 24.6296 49.9956 24.6302 49.9955C24.6303 49.9955 24.6309 49.9954 24.6312 49.9953C24.6317 49.9952 24.6322 49.9951 24.6325 49.995C24.6331 49.9949 24.6333 49.9948 24.6329 49.9949C24.6321 49.9951 24.6294 49.9957 24.6247 49.9966C24.6153 49.9986 24.5981 50.0021 24.5735 50.0069C24.5245 50.0165 24.4463 50.0311 24.3427 50.0487C24.1352 50.0839 23.8282 50.1302 23.4507 50.1704C22.6871 50.2518 21.6772 50.3038 20.637 50.2064C18.4428 50.0011 16.8482 49.2406 16.2518 47.5938L12.4929 48.8691ZM23.1034 51.9551C23.1036 51.9602 23.1037 51.9654 23.1039 51.9705C23.104 51.9757 23.1042 51.9808 23.1043 51.9859C23.1045 51.9911 23.1046 51.9963 23.1048 52.0014C23.1049 52.0066 23.105 52.0117 23.1052 52.0169C23.1053 52.0221 23.1055 52.0273 23.1056 52.0325C23.1058 52.0376 23.1059 52.0428 23.1061 52.048C23.1062 52.0532 23.1064 52.0584 23.1065 52.0636C23.1067 52.0689 23.1068 52.0741 23.107 52.0793C23.1071 52.0845 23.1073 52.0897 23.1074 52.095C23.1076 52.1002 23.1077 52.1054 23.1078 52.1107C23.108 52.1159 23.1081 52.1212 23.1083 52.1264C23.1084 52.1317 23.1086 52.137 23.1087 52.1422C23.1089 52.1475 23.109 52.1528 23.1092 52.1581C23.1093 52.1633 23.1095 52.1686 23.1096 52.1739C23.1098 52.1792 23.1099 52.1845 23.1101 52.1898C23.1102 52.1951 23.1104 52.2004 23.1105 52.2057C23.1107 52.211 23.1108 52.2164 23.111 52.2217C23.1111 52.227 23.1113 52.2323 23.1114 52.2377C23.1116 52.243 23.1117 52.2484 23.1119 52.2537C23.112 52.259 23.1122 52.2644 23.1124 52.2698C23.1125 52.2751 23.1127 52.2805 23.1128 52.2858C23.113 52.2912 23.1131 52.2966 23.1133 52.302C23.1134 52.3073 23.1136 52.3127 23.1137 52.3181C23.1139 52.3235 23.114 52.3289 23.1142 52.3343C23.1143 52.3397 23.1145 52.3451 23.1146 52.3505C23.1148 52.3559 23.1149 52.3614 23.1151 52.3668C23.1153 52.3722 23.1154 52.3776 23.1156 52.3831C23.1157 52.3885 23.1159 52.3939 23.116 52.3994C23.1162 52.4048 23.1163 52.4103 23.1165 52.4157C23.1166 52.4212 23.1168 52.4266 23.1169 52.4321C23.1171 52.4376 23.1173 52.443 23.1174 52.4485C23.1176 52.454 23.1177 52.4594 23.1179 52.4649C23.118 52.4704 23.1182 52.4759 23.1183 52.4814C23.1185 52.4869 23.1187 52.4924 23.1188 52.4979C23.119 52.5034 23.1191 52.5089 23.1193 52.5144C23.1194 52.5199 23.1196 52.5254 23.1197 52.531C23.1199 52.5365 23.1201 52.542 23.1202 52.5475C23.1204 52.5531 23.1205 52.5586 23.1207 52.5642C23.1208 52.5697 23.121 52.5752 23.1212 52.5808C23.1213 52.5864 23.1215 52.5919 23.1216 52.5975C23.1218 52.603 23.1219 52.6086 23.1221 52.6142C23.1223 52.6197 23.1224 52.6253 23.1226 52.6309C23.1227 52.6365 23.1229 52.6421 23.123 52.6476C23.1232 52.6532 23.1234 52.6588 23.1235 52.6644C23.1237 52.67 23.1238 52.6756 23.124 52.6812C23.1242 52.6868 23.1243 52.6925 23.1245 52.6981C23.1246 52.7037 23.1248 52.7093 23.125 52.7149C23.1251 52.7206 23.1253 52.7262 23.1254 52.7318C23.1256 52.7375 23.1258 52.7431 23.1259 52.7487C23.1261 52.7544 23.1262 52.76 23.1264 52.7657C23.1265 52.7713 23.1267 52.777 23.1269 52.7826C23.127 52.7883 23.1272 52.794 23.1274 52.7996C23.1275 52.8053 23.1277 52.811 23.1278 52.8167C23.128 52.8223 23.1282 52.828 23.1283 52.8337C23.1285 52.8394 23.1286 52.8451 23.1288 52.8508C23.129 52.8565 23.1291 52.8622 23.1293 52.8679C23.1294 52.8736 23.1296 52.8793 23.1298 52.885C23.1299 52.8907 23.1301 52.8964 23.1303 52.9021C23.1304 52.9078 23.1306 52.9136 23.1307 52.9193C23.1309 52.925 23.1311 52.9307 23.1312 52.9365C23.1314 52.9422 23.1315 52.948 23.1317 52.9537C23.1319 52.9594 23.132 52.9652 23.1322 52.9709C23.1324 52.9767 23.1325 52.9824 23.1327 52.9882C23.1329 52.994 23.133 52.9997 23.1332 53.0055C23.1333 53.0112 23.1335 53.017 23.1337 53.0228C23.1338 53.0286 23.134 53.0343 23.1342 53.0401C23.1343 53.0459 23.1345 53.0517 23.1346 53.0575C23.1348 53.0633 23.135 53.0691 23.1351 53.0749C23.1353 53.0806 23.1355 53.0864 23.1356 53.0922C23.1358 53.0981 23.136 53.1039 23.1361 53.1097C23.1363 53.1155 23.1365 53.1213 23.1366 53.1271C23.1368 53.1329 23.137 53.1387 23.1371 53.1446C23.1373 53.1504 23.1374 53.1562 23.1376 53.1621C23.1378 53.1679 23.1379 53.1737 23.1381 53.1796C23.1383 53.1854 23.1384 53.1912 23.1386 53.1971C23.1388 53.2029 23.1389 53.2088 23.1391 53.2146C23.1393 53.2205 23.1394 53.2263 23.1396 53.2322C23.1398 53.238 23.1399 53.2439 23.1401 53.2498C23.1403 53.2556 23.1404 53.2615 23.1406 53.2674C23.1408 53.2733 23.1409 53.2791 23.1411 53.285C23.1413 53.2909 23.1414 53.2968 23.1416 53.3026C23.1418 53.3085 23.1419 53.3144 23.1421 53.3203C23.1423 53.3262 23.1424 53.3321 23.1426 53.338C23.1428 53.3439 23.1429 53.3498 23.1431 53.3557C23.1433 53.3616 23.1434 53.3675 23.1436 53.3734C23.1438 53.3793 23.1439 53.3852 23.1441 53.3911C23.1443 53.3971 23.1444 53.403 23.1446 53.4089C23.1448 53.4148 23.1449 53.4207 23.1451 53.4267C23.1453 53.4326 23.1454 53.4385 23.1456 53.4445C23.1458 53.4504 23.1459 53.4563 23.1461 53.4623C23.1463 53.4682 23.1464 53.4742 23.1466 53.4801C23.1468 53.486 23.147 53.492 23.1471 53.4979C23.1473 53.5039 23.1475 53.5098 23.1476 53.5158C23.1478 53.5218 23.148 53.5277 23.1481 53.5337C23.1483 53.5396 23.1485 53.5456 23.1486 53.5516C23.1488 53.5575 23.149 53.5635 23.1491 53.5695C23.1493 53.5754 23.1495 53.5814 23.1497 53.5874C23.1498 53.5934 23.15 53.5993 23.1502 53.6053C23.1503 53.6113 23.1505 53.6173 23.1507 53.6233C23.1508 53.6293 23.151 53.6353 23.1512 53.6412C23.1513 53.6472 23.1515 53.6532 23.1517 53.6592C23.1519 53.6652 23.152 53.6712 23.1522 53.6772C23.1524 53.6832 23.1525 53.6892 23.1527 53.6952C23.1529 53.7012 23.153 53.7073 23.1532 53.7133C23.1534 53.7193 23.1536 53.7253 23.1537 53.7313C23.1539 53.7373 23.1541 53.7433 23.1542 53.7494C23.1544 53.7554 23.1546 53.7614 23.1547 53.7674C23.1549 53.7734 23.1551 53.7795 23.1553 53.7855C23.1554 53.7915 23.1556 53.7976 23.1558 53.8036C23.1559 53.8096 23.1561 53.8157 23.1563 53.8217C23.1565 53.8277 23.1566 53.8338 23.1568 53.8398C23.157 53.8459 23.1571 53.8519 23.1573 53.858C23.1575 53.864 23.1577 53.87 23.1578 53.8761C23.158 53.8821 23.1582 53.8882 23.1583 53.8943C23.1585 53.9003 23.1587 53.9064 23.1589 53.9124C23.159 53.9185 23.1592 53.9245 23.1594 53.9306C23.1595 53.9367 23.1597 53.9427 23.1599 53.9488C23.1601 53.9549 23.1602 53.9609 23.1604 53.967C23.1606 53.9731 23.1607 53.9791 23.1609 53.9852C23.1611 53.9913 23.1613 53.9973 23.1614 54.0034C23.1616 54.0095 23.1618 54.0156 23.1619 54.0217C23.1621 54.0277 23.1623 54.0338 23.1625 54.0399C23.1626 54.046 23.1628 54.0521 23.163 54.0582C23.1631 54.0642 23.1633 54.0703 23.1635 54.0764C23.1637 54.0825 23.1638 54.0886 23.164 54.0947C23.1642 54.1008 23.1644 54.1069 23.1645 54.113C23.1647 54.1191 23.1649 54.1252 23.165 54.1313C23.1652 54.1374 23.1654 54.1435 23.1656 54.1496C23.1657 54.1557 23.1659 54.1618 23.1661 54.1679C23.1663 54.174 23.1664 54.1801 23.1666 54.1862C23.1668 54.1923 23.1669 54.1984 23.1671 54.2045C23.1673 54.2106 23.1675 54.2167 23.1676 54.2228C23.1678 54.2289 23.168 54.2351 23.1682 54.2412C23.1683 54.2473 23.1685 54.2534 23.1687 54.2595C23.1689 54.2656 23.169 54.2718 23.1692 54.2779C23.1694 54.284 23.1695 54.2901 23.1697 54.2962C23.1699 54.3024 23.1701 54.3085 23.1702 54.3146C23.1704 54.3207 23.1706 54.3269 23.1708 54.333C23.1709 54.3391 23.1711 54.3452 23.1713 54.3514C23.1715 54.3575 23.1716 54.3636 23.1718 54.3697C23.172 54.3759 23.1721 54.382 23.1723 54.3881C23.1725 54.3943 23.1727 54.4004 23.1728 54.4065C23.173 54.4127 23.1732 54.4188 23.1734 54.4249C23.1735 54.4311 23.1737 54.4372 23.1739 54.4434C23.1741 54.4495 23.1742 54.4556 23.1744 54.4618C23.1746 54.4679 23.1748 54.474 23.1749 54.4802C23.1751 54.4863 23.1753 54.4925 23.1754 54.4986C23.1756 54.5048 23.1758 54.5109 23.176 54.517C23.1761 54.5232 23.1763 54.5293 23.1765 54.5355C23.1767 54.5416 23.1768 54.5478 23.177 54.5539C23.1772 54.5601 23.1774 54.5662 23.1775 54.5723C23.1777 54.5785 23.1779 54.5846 23.1781 54.5908C23.1782 54.5969 23.1784 54.6031 23.1786 54.6092C23.1788 54.6154 23.1789 54.6215 23.1791 54.6277C23.1793 54.6338 23.1794 54.64 23.1796 54.6461C23.1798 54.6523 23.18 54.6584 23.1801 54.6646C23.1803 54.6707 23.1805 54.6769 23.1807 54.683C23.1808 54.6892 23.181 54.6954 23.1812 54.7015C23.1814 54.7077 23.1815 54.7138 23.1817 54.72C23.1819 54.7261 23.1821 54.7323 23.1822 54.7384C23.1824 54.7446 23.1826 54.7507 23.1828 54.7569C23.1829 54.7631 23.1831 54.7692 23.1833 54.7754C23.1835 54.7815 23.1836 54.7877 23.1838 54.7938C23.184 54.8 23.1842 54.8061 23.1843 54.8123C23.1845 54.8184 23.1847 54.8246 23.1848 54.8308C23.185 54.8369 23.1852 54.8431 23.1854 54.8492C23.1855 54.8554 23.1857 54.8615 23.1859 54.8677C23.1861 54.8739 23.1862 54.88 23.1864 54.8862C23.1866 54.8923 23.1868 54.8985 23.1869 54.9046C23.1871 54.9108 23.1873 54.9169 23.1875 54.9231C23.1876 54.9293 23.1878 54.9354 23.188 54.9416C23.1882 54.9477 23.1883 54.9539 23.1885 54.96C23.1887 54.9662 23.1889 54.9723 23.189 54.9785C23.1892 54.9846 23.1894 54.9908 23.1896 54.997C23.1897 55.0031 23.1899 55.0093 23.1901 55.0154C23.1903 55.0216 23.1904 55.0277 23.1906 55.0339C23.1908 55.04 23.1909 55.0462 23.1911 55.0523C23.1913 55.0585 23.1915 55.0646 23.1916 55.0708C23.1918 55.0769 23.192 55.0831 23.1922 55.0892C23.1923 55.0954 23.1925 55.1015 23.1927 55.1077C23.1929 55.1138 23.193 55.12 23.1932 55.1261C23.1934 55.1323 23.1936 55.1384 23.1937 55.1446C23.1939 55.1507 23.1941 55.1569 23.1943 55.163C23.1944 55.1692 23.1946 55.1753 23.1948 55.1814C23.195 55.1876 23.1951 55.1937 23.1953 55.1999C23.1955 55.206 23.1956 55.2122 23.1958 55.2183C23.196 55.2244 23.1962 55.2306 23.1963 55.2367C23.1965 55.2429 23.1967 55.249 23.1969 55.2551C23.197 55.2613 23.1972 55.2674 23.1974 55.2736C23.1976 55.2797 23.1977 55.2858 23.1979 55.292C23.1981 55.2981 23.1983 55.3042 23.1984 55.3104C23.1986 55.3165 23.1988 55.3226 23.1989 55.3288C23.1991 55.3349 23.1993 55.341 23.1995 55.3472C23.1996 55.3533 23.1998 55.3594 23.2 55.3655C23.2002 55.3717 23.2003 55.3778 23.2005 55.3839C23.2007 55.3901 23.2009 55.3962 23.201 55.4023C23.2012 55.4084 23.2014 55.4145 23.2015 55.4207C23.2017 55.4268 23.2019 55.4329 23.2021 55.439C23.2022 55.4451 23.2024 55.4513 23.2026 55.4574C23.2028 55.4635 23.2029 55.4696 23.2031 55.4757C23.2033 55.4818 23.2035 55.488 23.2036 55.4941C23.2038 55.5002 23.204 55.5063 23.2041 55.5124C23.2043 55.5185 23.2045 55.5246 23.2047 55.5307C23.2048 55.5368 23.205 55.5429 23.2052 55.549C23.2054 55.5551 23.2055 55.5612 23.2057 55.5673C23.2059 55.5734 23.206 55.5795 23.2062 55.5856C23.2064 55.5917 23.2066 55.5978 23.2067 55.6039C23.2069 55.61 23.2071 55.6161 23.2073 55.6222C23.2074 55.6283 23.2076 55.6344 23.2078 55.6405C23.2079 55.6466 23.2081 55.6526 23.2083 55.6587C23.2085 55.6648 23.2086 55.6709 23.2088 55.677C23.209 55.6831 23.2091 55.6891 23.2093 55.6952C23.2095 55.7013 23.2097 55.7074 23.2098 55.7135C23.21 55.7195 23.2102 55.7256 23.2104 55.7317C23.2105 55.7377 23.2107 55.7438 23.2109 55.7499C23.211 55.756 23.2112 55.762 23.2114 55.7681C23.2116 55.7741 23.2117 55.7802 23.2119 55.7863C23.2121 55.7923 23.2122 55.7984 23.2124 55.8044C23.2126 55.8105 23.2128 55.8166 23.2129 55.8226C23.2131 55.8287 23.2133 55.8347 23.2134 55.8408C23.2136 55.8468 23.2138 55.8529 23.214 55.8589C23.2141 55.865 23.2143 55.871 23.2145 55.877C23.2146 55.8831 23.2148 55.8891 23.215 55.8952C23.2152 55.9012 23.2153 55.9072 23.2155 55.9133C23.2157 55.9193 23.2158 55.9253 23.216 55.9313C23.2162 55.9374 23.2163 55.9434 23.2165 55.9494C23.2167 55.9554 23.2169 55.9615 23.217 55.9675C23.2172 55.9735 23.2174 55.9795 23.2175 55.9855C23.2177 55.9916 23.2179 55.9976 23.218 56.0036C23.2182 56.0096 23.2184 56.0156 23.2186 56.0216C23.2187 56.0276 23.2189 56.0336 23.2191 56.0396C23.2192 56.0456 23.2194 56.0516 23.2196 56.0576C23.2197 56.0636 23.2199 56.0696 23.2201 56.0756C23.2203 56.0816 23.2204 56.0876 23.2206 56.0935C23.2208 56.0995 23.2209 56.1055 23.2211 56.1115C23.2213 56.1175 23.2214 56.1235 23.2216 56.1294C23.2218 56.1354 23.222 56.1414 23.2221 56.1473C23.2223 56.1533 23.2225 56.1593 23.2226 56.1653C23.2228 56.1712 23.223 56.1772 23.2231 56.1831C23.2233 56.1891 23.2235 56.1951 23.2236 56.201C23.2238 56.207 23.224 56.2129 23.2241 56.2189C23.2243 56.2248 23.2245 56.2308 23.2246 56.2367C23.2248 56.2426 23.225 56.2486 23.2252 56.2545C23.2253 56.2605 23.2255 56.2664 23.2257 56.2723C23.2258 56.2783 23.226 56.2842 23.2262 56.2901C23.2263 56.296 23.2265 56.302 23.2267 56.3079C23.2268 56.3138 23.227 56.3197 23.2272 56.3256C23.2273 56.3315 23.2275 56.3375 23.2277 56.3434C23.2278 56.3493 23.228 56.3552 23.2282 56.3611C23.2283 56.367 23.2285 56.3729 23.2287 56.3788C23.2288 56.3847 23.229 56.3906 23.2292 56.3965C23.2293 56.4023 23.2295 56.4082 23.2297 56.4141C23.2298 56.42 23.23 56.4259 23.2302 56.4318C23.2303 56.4376 23.2305 56.4435 23.2307 56.4494C23.2308 56.4552 23.231 56.4611 23.2312 56.467C23.2313 56.4728 23.2315 56.4787 23.2317 56.4846C23.2318 56.4904 23.232 56.4963 23.2322 56.5021C23.2323 56.508 23.2325 56.5138 23.2327 56.5197C23.2328 56.5255 23.233 56.5313 23.2332 56.5372C23.2333 56.543 23.2335 56.5489 23.2337 56.5547C23.2338 56.5605 23.234 56.5663 23.2341 56.5722C23.2343 56.578 23.2345 56.5838 23.2346 56.5896C23.2348 56.5954 23.235 56.6012 23.2351 56.6071C23.2353 56.6129 23.2355 56.6187 23.2356 56.6245C23.2358 56.6303 23.236 56.6361 23.2361 56.6419C23.2363 56.6477 23.2364 56.6534 23.2366 56.6592C23.2368 56.665 23.2369 56.6708 23.2371 56.6766C23.2373 56.6824 23.2374 56.6881 23.2376 56.6939C23.2378 56.6997 23.2379 56.7054 23.2381 56.7112C23.2382 56.717 23.2384 56.7227 23.2386 56.7285C23.2387 56.7342 23.2389 56.74 23.2391 56.7457C23.2392 56.7515 23.2394 56.7572 23.2395 56.763C23.2397 56.7687 23.2399 56.7745 23.24 56.7802C23.2402 56.7859 23.2404 56.7917 23.2405 56.7974C23.2407 56.8031 23.2408 56.8088 23.241 56.8145C23.2412 56.8203 23.2413 56.826 23.2415 56.8317C23.2417 56.8374 23.2418 56.8431 23.242 56.8488C23.2421 56.8545 23.2423 56.8602 23.2425 56.8659C23.2426 56.8716 23.2428 56.8773 23.2429 56.8829C23.2431 56.8886 23.2433 56.8943 23.2434 56.9C23.2436 56.9057 23.2437 56.9113 23.2439 56.917C23.2441 56.9227 23.2442 56.9283 23.2444 56.934C23.2445 56.9396 23.2447 56.9453 23.2449 56.9509C23.245 56.9566 23.2452 56.9622 23.2453 56.9679C23.2455 56.9735 23.2457 56.9792 23.2458 56.9848C23.246 56.9904 23.2461 56.9961 23.2463 57.0017C23.2465 57.0073 23.2466 57.0129 23.2468 57.0185C23.2469 57.0241 23.2471 57.0298 23.2473 57.0354C23.2474 57.041 23.2476 57.0466 23.2477 57.0522C23.2479 57.0578 23.2481 57.0634 23.2482 57.0689C23.2484 57.0745 23.2485 57.0801 23.2487 57.0857C23.2488 57.0913 23.249 57.0968 23.2492 57.1024C23.2493 57.108 23.2495 57.1135 23.2496 57.1191C23.2498 57.1247 23.2499 57.1302 23.2501 57.1358C23.2503 57.1413 23.2504 57.1469 23.2506 57.1524C23.2507 57.1579 23.2509 57.1635 23.251 57.169C23.2512 57.1745 23.2514 57.1801 23.2515 57.1856C23.2517 57.1911 23.2518 57.1966 23.252 57.2021C23.2521 57.2076 23.2523 57.2131 23.2524 57.2186C23.2526 57.2241 23.2528 57.2296 23.2529 57.2351C23.2531 57.2406 23.2532 57.2461 23.2534 57.2516C23.2535 57.2571 23.2537 57.2626 23.2538 57.268C23.254 57.2735 23.2542 57.279 23.2543 57.2844C23.2545 57.2899 23.2546 57.2953 23.2548 57.3008C23.2549 57.3062 23.2551 57.3117 23.2552 57.3171C23.2554 57.3226 23.2555 57.328 23.2557 57.3334C23.2558 57.3389 23.256 57.3443 23.2562 57.3497C23.2563 57.3551 23.2565 57.3605 23.2566 57.366C23.2568 57.3714 23.2569 57.3768 23.2571 57.3822C23.2572 57.3876 23.2574 57.393 23.2575 57.3983C23.2577 57.4037 23.2578 57.4091 23.258 57.4145C23.2581 57.4199 23.2583 57.4252 23.2584 57.4306C23.2586 57.436 23.2588 57.4413 23.2589 57.4467C23.2591 57.452 23.2592 57.4574 23.2594 57.4627C23.2595 57.4681 23.2597 57.4734 23.2598 57.4788C23.26 57.4841 23.2601 57.4894 23.2603 57.4947C23.2604 57.5001 23.2606 57.5054 23.2607 57.5107C23.2609 57.516 23.261 57.5213 23.2612 57.5266C23.2613 57.5319 23.2615 57.5372 23.2616 57.5425C23.2618 57.5478 23.2619 57.5531 23.2621 57.5583C23.2622 57.5636 23.2624 57.5689 23.2625 57.5742C23.2627 57.5794 23.2628 57.5847 23.263 57.5899C23.2631 57.5952 23.2633 57.6004 23.2634 57.6057C23.2636 57.6109 23.2637 57.6162 23.2638 57.6214C23.264 57.6266 23.2641 57.6319 23.2643 57.6371C23.2644 57.6423 23.2646 57.6475 23.2647 57.6527C23.2649 57.6579 23.265 57.6631 23.2652 57.6683C23.2653 57.6735 23.2655 57.6787 23.2656 57.6839C23.2658 57.6891 23.2659 57.6942 23.2661 57.6994C23.2662 57.7046 23.2663 57.7098 23.2665 57.7149C23.2666 57.7201 23.2668 57.7252 23.2669 57.7304C23.2671 57.7355 23.2672 57.7407 23.2674 57.7458C23.2675 57.7509 23.2677 57.7561 23.2678 57.7612C23.268 57.7663 23.2681 57.7714 23.2682 57.7765C23.2684 57.7816 23.2685 57.7867 23.2687 57.7918C23.2688 57.7969 23.269 57.802 23.2691 57.8071C23.2692 57.8122 23.2694 57.8173 23.2695 57.8224C23.2697 57.8274 23.2698 57.8325 23.27 57.8376C23.2701 57.8426 23.2703 57.8477 23.2704 57.8527C23.2705 57.8578 23.2707 57.8628 23.2708 57.8678C23.271 57.8729 23.2711 57.8779 23.2713 57.8829C23.2714 57.8879 23.2715 57.8929 23.2717 57.898C23.2718 57.903 23.272 57.908 23.2721 57.913C23.2722 57.918 23.2724 57.9229 23.2725 57.9279C23.2727 57.9329 23.2728 57.9379 23.2729 57.9428C23.2731 57.9478 23.2732 57.9528 23.2734 57.9577C23.2735 57.9627 23.2736 57.9676 23.2738 57.9726C23.2739 57.9775 23.2741 57.9825 23.2742 57.9874C23.2743 57.9923 23.2745 57.9972 23.2746 58.0021C23.2748 58.0071 23.2749 58.012 23.275 58.0169C23.2752 58.0218 23.2753 58.0267 23.2755 58.0315C23.2756 58.0364 23.2757 58.0413 23.2759 58.0462C23.276 58.0511 23.2761 58.0559 23.2763 58.0608C23.2764 58.0656 23.2766 58.0705 23.2767 58.0753C23.2768 58.0802 23.277 58.085 23.2771 58.0899C23.2772 58.0947 23.2774 58.0995 23.2775 58.1043C23.2777 58.1092 23.2778 58.114 23.2779 58.1188C23.2781 58.1236 23.2782 58.1284 23.2783 58.1332C23.2785 58.1379 23.2786 58.1427 23.2787 58.1475C23.2789 58.1523 23.279 58.157 23.2791 58.1618C23.2793 58.1666 23.2794 58.1713 23.2795 58.1761C23.2797 58.1808 23.2798 58.1855 23.28 58.1903C23.2801 58.195 23.2802 58.1997 23.2804 58.2044C23.2805 58.2092 23.2806 58.2139 23.2808 58.2186C23.2809 58.2233 23.281 58.228 23.2812 58.2327C23.2813 58.2373 23.2814 58.242 23.2815 58.2467C23.2817 58.2514 23.2818 58.256 23.2819 58.2607C23.2821 58.2654 23.2822 58.27 23.2823 58.2746C23.2825 58.2793 23.2826 58.2839 23.2827 58.2885C23.2829 58.2932 23.283 58.2978 23.2831 58.3024C23.2833 58.307 23.2834 58.3116 23.2835 58.3162C23.2836 58.3208 23.2838 58.3254 23.2839 58.33C23.284 58.3346 23.2842 58.3391 23.2843 58.3437C23.2844 58.3483 23.2846 58.3528 23.2847 58.3574C23.2848 58.3619 23.2849 58.3665 23.2851 58.371C23.2852 58.3756 23.2853 58.3801 23.2855 58.3846C23.2856 58.3891 23.2857 58.3936 23.2858 58.3981C23.286 58.4026 23.2861 58.4071 23.2862 58.4116C23.2863 58.4161 23.2865 58.4206 23.2866 58.4251C23.2867 58.4295 23.2869 58.434 23.287 58.4385C23.2871 58.4429 23.2872 58.4474 23.2874 58.4518C23.2875 58.4563 23.2876 58.4607 23.2877 58.4651C23.2879 58.4695 23.288 58.474 23.2881 58.4784C23.2882 58.4828 23.2884 58.4872 23.2885 58.4916C23.2886 58.496 23.2887 58.5003 23.2889 58.5047C23.289 58.5091 23.2891 58.5135 23.2892 58.5178C23.2893 58.5222 23.2895 58.5265 23.2896 58.5309C23.2897 58.5352 23.2898 58.5396 23.29 58.5439C23.2901 58.5482 23.2902 58.5525 23.2903 58.5568C23.2905 58.5612 23.2906 58.5655 23.2907 58.5698C23.2908 58.574 23.2909 58.5783 23.2911 58.5826C23.2912 58.5869 23.2913 58.5912 23.2914 58.5954C23.2915 58.5997 23.2917 58.6039 23.2918 58.6082C23.2919 58.6124 23.292 58.6167 23.2921 58.6209C23.2923 58.6251 23.2924 58.6293 23.2925 58.6335C23.2926 58.6377 23.2927 58.6419 23.2929 58.6461C23.293 58.6503 23.2931 58.6545 23.2932 58.6587C23.2933 58.6629 23.2934 58.667 23.2936 58.6712C23.2937 58.6754 23.2938 58.6795 23.2939 58.6836C23.294 58.6878 23.2942 58.6919 23.2943 58.696C23.2944 58.7002 23.2945 58.7043 23.2946 58.7084C23.2947 58.7125 23.2949 58.7166 23.295 58.7207C23.2951 58.7248 23.2952 58.7289 23.2953 58.7329C23.2954 58.737 23.2955 58.7411 23.2957 58.7451C23.2958 58.7492 23.2959 58.7532 23.296 58.7572C23.2961 58.7613 23.2962 58.7653 23.2963 58.7693C23.2965 58.7733 23.2966 58.7774 23.2967 58.7814C23.2968 58.7854 23.2969 58.7893 23.297 58.7933C23.2971 58.7973 23.2972 58.8013 23.2974 58.8052C23.2975 58.8092 23.2976 58.8132 23.2977 58.8171C23.2978 58.8211 23.2979 58.825 23.298 58.8289C23.2981 58.8329 23.2983 58.8368 23.2984 58.8407C23.2985 58.8446 23.2986 58.8485 23.2987 58.8524C23.2988 58.8563 23.2989 58.8602 23.299 58.864C23.2991 58.8679 23.2992 58.8718 23.2994 58.8756C23.2995 58.8795 23.2996 58.8833 23.2997 58.8872C23.2998 58.891 23.2999 58.8948 23.3 58.8986C23.3001 58.9025 23.3002 58.9063 23.3003 58.9101C23.3004 58.9139 23.3005 58.9177 23.3007 58.9214C23.3008 58.9252 23.3009 58.929 23.301 58.9327C23.3011 58.9365 23.3012 58.9403 23.3013 58.944C23.3014 58.9477 23.3015 58.9515 23.3016 58.9552C23.3017 58.9589 23.3018 58.9626 23.3019 58.9663C23.302 58.97 23.3021 58.9737 23.3022 58.9774C23.3023 58.9811 23.3024 58.9848 23.3025 58.9884C23.3027 58.9921 23.3028 58.9958 23.3029 58.9994C23.303 59.0031 23.3031 59.0067 23.3032 59.0103C23.3033 59.014 23.3034 59.0176 23.3035 59.0212C23.3036 59.0248 23.3037 59.0284 23.3038 59.032C23.3039 59.0356 23.304 59.0391 23.3041 59.0427C23.3042 59.0463 23.3043 59.0498 23.3044 59.0534C23.3045 59.0569 23.3046 59.0605 23.3047 59.064C23.3048 59.0675 23.3049 59.071 23.305 59.0746C23.3051 59.0781 23.3052 59.0816 23.3053 59.0851C23.3054 59.0885 23.3055 59.092 23.3056 59.0955C23.3057 59.099 23.3058 59.1024 23.3059 59.1059C23.306 59.1093 23.3061 59.1128 23.3062 59.1162C23.3063 59.1196 23.3064 59.123 23.3065 59.1264C23.3066 59.1299 23.3066 59.1333 23.3067 59.1366C23.3068 59.14 23.3069 59.1434 23.307 59.1468C23.3071 59.1501 23.3072 59.1535 23.3073 59.1569C23.3074 59.1602 23.3075 59.1635 23.3076 59.1669C23.3077 59.1702 23.3078 59.1735 23.3079 59.1768C23.308 59.1801 23.3081 59.1834 23.3082 59.1867C23.3083 59.19 23.3083 59.1933 23.3084 59.1965C23.3085 59.1998 23.3086 59.2031 23.3087 59.2063C23.3088 59.2095 23.3089 59.2128 23.309 59.216C23.3091 59.2192 23.3092 59.2224 23.3093 59.2256C23.3094 59.2289 23.3094 59.232 23.3095 59.2352C23.3096 59.2384 23.3097 59.2416 23.3098 59.2447C23.3099 59.2479 23.31 59.2511 23.3101 59.2542C23.3102 59.2573 23.3102 59.2605 23.3103 59.2636C23.3104 59.2667 23.3105 59.2698 23.3106 59.2729C23.3107 59.276 23.3108 59.2791 23.3109 59.2822C23.3109 59.2852 23.311 59.2883 23.3111 59.2914C23.3112 59.2944 23.3113 59.2975 23.3114 59.3005C23.3115 59.3035 23.3116 59.3065 23.3116 59.3096C23.3117 59.3126 23.3118 59.3156 23.3119 59.3186C23.312 59.3215 23.3121 59.3245 23.3121 59.3275C23.3122 59.3305 23.3123 59.3334 23.3124 59.3364C23.3125 59.3393 23.3126 59.3422 23.3126 59.3452C23.3127 59.3481 23.3128 59.351 23.3129 59.3539C23.313 59.3568 23.3131 59.3597 23.3131 59.3626C23.3132 59.3655 23.3133 59.3683 23.3134 59.3712C23.3135 59.374 23.3135 59.3769 23.3136 59.3797C23.3137 59.3826 23.3138 59.3854 23.3139 59.3882C23.3139 59.391 23.314 59.3938 23.3141 59.3966C23.3142 59.3994 23.3143 59.4022 23.3143 59.405C23.3144 59.4077 23.3145 59.4105 23.3146 59.4132C23.3146 59.416 23.3147 59.4187 23.3148 59.4214C23.3149 59.4242 23.315 59.4269 23.315 59.4296C23.3151 59.4323 23.3152 59.435 23.3153 59.4376C23.3153 59.4403 23.3154 59.443 23.3155 59.4456C23.3156 59.4483 23.3156 59.4509 23.3157 59.4536C23.3158 59.4562 23.3159 59.4588 23.3159 59.4614C23.316 59.464 23.3161 59.4666 23.3162 59.4692C23.3162 59.4718 23.3163 59.4744 23.3164 59.4769C23.3164 59.4795 23.3165 59.4821 23.3166 59.4846C23.3167 59.4871 23.3167 59.4897 23.3168 59.4922C23.3169 59.4947 23.3169 59.4972 23.317 59.4997C23.3171 59.5022 23.3172 59.5047 23.3172 59.5072C23.3173 59.5096 23.3174 59.5121 23.3174 59.5145C23.3175 59.517 23.3176 59.5194 23.3176 59.5218C23.3177 59.5243 23.3178 59.5267 23.3179 59.5291C23.3179 59.5315 23.318 59.5339 23.3181 59.5362C23.3181 59.5386 23.3182 59.541 23.3183 59.5433C23.3183 59.5457 23.3184 59.548 23.3185 59.5503C23.3185 59.5527 23.3186 59.555 23.3187 59.5573C23.3187 59.5596 23.3188 59.5619 23.3188 59.5642C23.3189 59.5665 23.319 59.5687 23.319 59.571C23.3191 59.5732 23.3192 59.5755 23.3192 59.5777C23.3193 59.5799 23.3194 59.5822 23.3194 59.5844C23.3195 59.5866 23.3195 59.5888 23.3196 59.591C23.3197 59.5931 23.3197 59.5953 23.3198 59.5975C23.3198 59.5996 23.3199 59.6018 23.32 59.6039C23.32 59.6061 23.3201 59.6082 23.3202 59.6103C23.3202 59.6124 23.3203 59.6145 23.3203 59.6166C23.3204 59.6187 23.3204 59.6207 23.3205 59.6228C23.3206 59.6249 23.3206 59.6269 23.3207 59.629C23.3207 59.631 23.3208 59.633 23.3209 59.635C23.3209 59.637 23.321 59.639 23.321 59.641C23.3211 59.643 23.3211 59.645 23.3212 59.6469C23.3212 59.6489 23.3213 59.6509 23.3214 59.6528C23.3214 59.6547 23.3215 59.6567 23.3215 59.6586C23.3216 59.6605 23.3216 59.6624 23.3217 59.6643C23.3217 59.6662 23.3218 59.668 23.3218 59.6699C23.3219 59.6717 23.3219 59.6736 23.322 59.6754C23.322 59.6773 23.3221 59.6791 23.3221 59.6809C23.3222 59.6827 23.3223 59.6845 23.3223 59.6863C23.3224 59.6881 23.3224 59.6899 23.3225 59.6916C23.3225 59.6934 23.3226 59.6951 23.3226 59.6969C23.3227 59.6986 23.3227 59.7003 23.3227 59.702L27.3227 59.6905C27.3227 59.6888 27.3226 59.6871 27.3226 59.6854C27.3225 59.6836 27.3225 59.6819 27.3224 59.6801C27.3224 59.6784 27.3223 59.6766 27.3223 59.6748C27.3222 59.673 27.3222 59.6712 27.3221 59.6694C27.3221 59.6676 27.322 59.6658 27.322 59.6639C27.3219 59.6621 27.3219 59.6603 27.3218 59.6584C27.3218 59.6565 27.3217 59.6547 27.3217 59.6528C27.3216 59.6509 27.3216 59.649 27.3215 59.6471C27.3214 59.6452 27.3214 59.6432 27.3213 59.6413C27.3213 59.6394 27.3212 59.6374 27.3212 59.6355C27.3211 59.6335 27.3211 59.6315 27.321 59.6295C27.3209 59.6275 27.3209 59.6255 27.3208 59.6235C27.3208 59.6215 27.3207 59.6195 27.3207 59.6175C27.3206 59.6154 27.3205 59.6134 27.3205 59.6113C27.3204 59.6093 27.3204 59.6072 27.3203 59.6051C27.3203 59.603 27.3202 59.6009 27.3201 59.5988C27.3201 59.5967 27.32 59.5946 27.32 59.5924C27.3199 59.5903 27.3198 59.5881 27.3198 59.586C27.3197 59.5838 27.3196 59.5817 27.3196 59.5795C27.3195 59.5773 27.3195 59.5751 27.3194 59.5729C27.3193 59.5707 27.3193 59.5685 27.3192 59.5662C27.3191 59.564 27.3191 59.5617 27.319 59.5595C27.319 59.5572 27.3189 59.555 27.3188 59.5527C27.3188 59.5504 27.3187 59.5481 27.3186 59.5458C27.3186 59.5435 27.3185 59.5412 27.3184 59.5389C27.3184 59.5365 27.3183 59.5342 27.3182 59.5318C27.3182 59.5295 27.3181 59.5271 27.318 59.5247C27.318 59.5224 27.3179 59.52 27.3178 59.5176C27.3178 59.5152 27.3177 59.5128 27.3176 59.5103C27.3176 59.5079 27.3175 59.5055 27.3174 59.503C27.3174 59.5006 27.3173 59.4981 27.3172 59.4957C27.3171 59.4932 27.3171 59.4907 27.317 59.4882C27.3169 59.4857 27.3169 59.4832 27.3168 59.4807C27.3167 59.4782 27.3166 59.4757 27.3166 59.4731C27.3165 59.4706 27.3164 59.468 27.3164 59.4655C27.3163 59.4629 27.3162 59.4603 27.3161 59.4577C27.3161 59.4551 27.316 59.4525 27.3159 59.4499C27.3158 59.4473 27.3158 59.4447 27.3157 59.4421C27.3156 59.4394 27.3155 59.4368 27.3155 59.4341C27.3154 59.4315 27.3153 59.4288 27.3152 59.4261C27.3152 59.4235 27.3151 59.4208 27.315 59.4181C27.3149 59.4154 27.3149 59.4127 27.3148 59.4099C27.3147 59.4072 27.3146 59.4045 27.3146 59.4017C27.3145 59.399 27.3144 59.3962 27.3143 59.3935C27.3142 59.3907 27.3142 59.3879 27.3141 59.3851C27.314 59.3823 27.3139 59.3795 27.3138 59.3767C27.3138 59.3739 27.3137 59.3711 27.3136 59.3682C27.3135 59.3654 27.3134 59.3626 27.3134 59.3597C27.3133 59.3568 27.3132 59.354 27.3131 59.3511C27.313 59.3482 27.313 59.3453 27.3129 59.3424C27.3128 59.3395 27.3127 59.3366 27.3126 59.3337C27.3125 59.3308 27.3125 59.3278 27.3124 59.3249C27.3123 59.3219 27.3122 59.319 27.3121 59.316C27.312 59.313 27.312 59.3101 27.3119 59.3071C27.3118 59.3041 27.3117 59.3011 27.3116 59.2981C27.3115 59.295 27.3115 59.292 27.3114 59.289C27.3113 59.286 27.3112 59.2829 27.3111 59.2799C27.311 59.2768 27.3109 59.2737 27.3108 59.2707C27.3108 59.2676 27.3107 59.2645 27.3106 59.2614C27.3105 59.2583 27.3104 59.2552 27.3103 59.2521C27.3102 59.249 27.3101 59.2458 27.3101 59.2427C27.31 59.2396 27.3099 59.2364 27.3098 59.2332C27.3097 59.2301 27.3096 59.2269 27.3095 59.2237C27.3094 59.2205 27.3093 59.2174 27.3092 59.2142C27.3092 59.211 27.3091 59.2077 27.309 59.2045C27.3089 59.2013 27.3088 59.1981 27.3087 59.1948C27.3086 59.1916 27.3085 59.1883 27.3084 59.185C27.3083 59.1818 27.3082 59.1785 27.3081 59.1752C27.3081 59.1719 27.308 59.1686 27.3079 59.1653C27.3078 59.162 27.3077 59.1587 27.3076 59.1554C27.3075 59.152 27.3074 59.1487 27.3073 59.1454C27.3072 59.142 27.3071 59.1387 27.307 59.1353C27.3069 59.1319 27.3068 59.1285 27.3067 59.1251C27.3066 59.1218 27.3065 59.1184 27.3064 59.115C27.3063 59.1115 27.3062 59.1081 27.3061 59.1047C27.306 59.1013 27.306 59.0978 27.3059 59.0944C27.3058 59.0909 27.3057 59.0875 27.3056 59.084C27.3055 59.0805 27.3054 59.0771 27.3053 59.0736C27.3052 59.0701 27.3051 59.0666 27.305 59.0631C27.3049 59.0596 27.3048 59.056 27.3047 59.0525C27.3046 59.049 27.3045 59.0454 27.3044 59.0419C27.3043 59.0383 27.3042 59.0348 27.3041 59.0312C27.304 59.0276 27.3039 59.0241 27.3038 59.0205C27.3037 59.0169 27.3036 59.0133 27.3035 59.0097C27.3034 59.0061 27.3033 59.0025 27.3032 58.9988C27.303 58.9952 27.3029 58.9916 27.3028 58.9879C27.3027 58.9843 27.3026 58.9806 27.3025 58.977C27.3024 58.9733 27.3023 58.9696 27.3022 58.9659C27.3021 58.9622 27.302 58.9585 27.3019 58.9548C27.3018 58.9511 27.3017 58.9474 27.3016 58.9437C27.3015 58.94 27.3014 58.9362 27.3013 58.9325C27.3012 58.9288 27.3011 58.925 27.301 58.9212C27.3008 58.9175 27.3007 58.9137 27.3006 58.9099C27.3005 58.9062 27.3004 58.9024 27.3003 58.8986C27.3002 58.8948 27.3001 58.891 27.3 58.8871C27.2999 58.8833 27.2998 58.8795 27.2997 58.8757C27.2996 58.8718 27.2994 58.868 27.2993 58.8641C27.2992 58.8603 27.2991 58.8564 27.299 58.8525C27.2989 58.8487 27.2988 58.8448 27.2987 58.8409C27.2986 58.837 27.2985 58.8331 27.2983 58.8292C27.2982 58.8253 27.2981 58.8214 27.298 58.8174C27.2979 58.8135 27.2978 58.8096 27.2977 58.8056C27.2976 58.8017 27.2975 58.7977 27.2973 58.7938C27.2972 58.7898 27.2971 58.7858 27.297 58.7818C27.2969 58.7779 27.2968 58.7739 27.2967 58.7699C27.2966 58.7659 27.2964 58.7619 27.2963 58.7578C27.2962 58.7538 27.2961 58.7498 27.296 58.7458C27.2959 58.7417 27.2958 58.7377 27.2956 58.7336C27.2955 58.7296 27.2954 58.7255 27.2953 58.7214C27.2952 58.7174 27.2951 58.7133 27.295 58.7092C27.2948 58.7051 27.2947 58.701 27.2946 58.6969C27.2945 58.6928 27.2944 58.6887 27.2943 58.6845C27.2941 58.6804 27.294 58.6763 27.2939 58.6722C27.2938 58.668 27.2937 58.6639 27.2935 58.6597C27.2934 58.6555 27.2933 58.6514 27.2932 58.6472C27.2931 58.643 27.293 58.6388 27.2928 58.6346C27.2927 58.6305 27.2926 58.6263 27.2925 58.622C27.2924 58.6178 27.2922 58.6136 27.2921 58.6094C27.292 58.6052 27.2919 58.6009 27.2918 58.5967C27.2916 58.5924 27.2915 58.5882 27.2914 58.5839C27.2913 58.5797 27.2912 58.5754 27.291 58.5711C27.2909 58.5668 27.2908 58.5626 27.2907 58.5583C27.2906 58.554 27.2904 58.5497 27.2903 58.5454C27.2902 58.541 27.2901 58.5367 27.2899 58.5324C27.2898 58.5281 27.2897 58.5237 27.2896 58.5194C27.2895 58.515 27.2893 58.5107 27.2892 58.5063C27.2891 58.502 27.289 58.4976 27.2888 58.4932C27.2887 58.4888 27.2886 58.4845 27.2885 58.4801C27.2883 58.4757 27.2882 58.4713 27.2881 58.4669C27.288 58.4625 27.2878 58.458 27.2877 58.4536C27.2876 58.4492 27.2875 58.4448 27.2873 58.4403C27.2872 58.4359 27.2871 58.4314 27.287 58.427C27.2868 58.4225 27.2867 58.4181 27.2866 58.4136C27.2865 58.4091 27.2863 58.4046 27.2862 58.4001C27.2861 58.3956 27.2859 58.3912 27.2858 58.3866C27.2857 58.3821 27.2856 58.3776 27.2854 58.3731C27.2853 58.3686 27.2852 58.3641 27.2851 58.3595C27.2849 58.355 27.2848 58.3504 27.2847 58.3459C27.2845 58.3413 27.2844 58.3368 27.2843 58.3322C27.2842 58.3277 27.284 58.3231 27.2839 58.3185C27.2838 58.3139 27.2836 58.3093 27.2835 58.3047C27.2834 58.3001 27.2832 58.2955 27.2831 58.2909C27.283 58.2863 27.2828 58.2817 27.2827 58.2771C27.2826 58.2724 27.2825 58.2678 27.2823 58.2631C27.2822 58.2585 27.2821 58.2539 27.2819 58.2492C27.2818 58.2445 27.2817 58.2399 27.2815 58.2352C27.2814 58.2305 27.2813 58.2259 27.2811 58.2212C27.281 58.2165 27.2809 58.2118 27.2807 58.2071C27.2806 58.2024 27.2805 58.1977 27.2803 58.193C27.2802 58.1882 27.2801 58.1835 27.2799 58.1788C27.2798 58.174 27.2797 58.1693 27.2795 58.1646C27.2794 58.1598 27.2793 58.1551 27.2791 58.1503C27.279 58.1455 27.2789 58.1408 27.2787 58.136C27.2786 58.1312 27.2785 58.1264 27.2783 58.1217C27.2782 58.1169 27.278 58.1121 27.2779 58.1073C27.2778 58.1025 27.2776 58.0977 27.2775 58.0928C27.2774 58.088 27.2772 58.0832 27.2771 58.0784C27.277 58.0735 27.2768 58.0687 27.2767 58.0639C27.2765 58.059 27.2764 58.0542 27.2763 58.0493C27.2761 58.0444 27.276 58.0396 27.2759 58.0347C27.2757 58.0298 27.2756 58.0249 27.2754 58.0201C27.2753 58.0152 27.2752 58.0103 27.275 58.0054C27.2749 58.0005 27.2747 57.9956 27.2746 57.9906C27.2745 57.9857 27.2743 57.9808 27.2742 57.9759C27.2741 57.971 27.2739 57.966 27.2738 57.9611C27.2736 57.9561 27.2735 57.9512 27.2734 57.9462C27.2732 57.9413 27.2731 57.9363 27.2729 57.9314C27.2728 57.9264 27.2726 57.9214 27.2725 57.9164C27.2724 57.9114 27.2722 57.9065 27.2721 57.9015C27.2719 57.8965 27.2718 57.8915 27.2717 57.8865C27.2715 57.8815 27.2714 57.8764 27.2712 57.8714C27.2711 57.8664 27.271 57.8614 27.2708 57.8563C27.2707 57.8513 27.2705 57.8463 27.2704 57.8412C27.2702 57.8362 27.2701 57.8311 27.27 57.8261C27.2698 57.821 27.2697 57.8159 27.2695 57.8109C27.2694 57.8058 27.2692 57.8007 27.2691 57.7956C27.2689 57.7905 27.2688 57.7854 27.2687 57.7804C27.2685 57.7753 27.2684 57.7701 27.2682 57.765C27.2681 57.7599 27.2679 57.7548 27.2678 57.7497C27.2676 57.7446 27.2675 57.7394 27.2674 57.7343C27.2672 57.7292 27.2671 57.724 27.2669 57.7189C27.2668 57.7137 27.2666 57.7086 27.2665 57.7034C27.2663 57.6983 27.2662 57.6931 27.266 57.6879C27.2659 57.6828 27.2657 57.6776 27.2656 57.6724C27.2655 57.6672 27.2653 57.662 27.2652 57.6568C27.265 57.6516 27.2649 57.6464 27.2647 57.6412C27.2646 57.636 27.2644 57.6308 27.2643 57.6256C27.2641 57.6204 27.264 57.6151 27.2638 57.6099C27.2637 57.6047 27.2635 57.5994 27.2634 57.5942C27.2632 57.589 27.2631 57.5837 27.2629 57.5784C27.2628 57.5732 27.2626 57.5679 27.2625 57.5627C27.2623 57.5574 27.2622 57.5521 27.262 57.5469C27.2619 57.5416 27.2617 57.5363 27.2616 57.531C27.2614 57.5257 27.2613 57.5204 27.2611 57.5151C27.261 57.5098 27.2608 57.5045 27.2607 57.4992C27.2605 57.4939 27.2604 57.4886 27.2602 57.4833C27.2601 57.4779 27.2599 57.4726 27.2598 57.4673C27.2596 57.4619 27.2595 57.4566 27.2593 57.4512C27.2592 57.4459 27.259 57.4406 27.2589 57.4352C27.2587 57.4298 27.2586 57.4245 27.2584 57.4191C27.2583 57.4137 27.2581 57.4084 27.258 57.403C27.2578 57.3976 27.2577 57.3922 27.2575 57.3869C27.2574 57.3815 27.2572 57.3761 27.2571 57.3707C27.2569 57.3653 27.2568 57.3599 27.2566 57.3545C27.2564 57.349 27.2563 57.3436 27.2561 57.3382C27.256 57.3328 27.2558 57.3274 27.2557 57.3219C27.2555 57.3165 27.2554 57.3111 27.2552 57.3056C27.2551 57.3002 27.2549 57.2947 27.2548 57.2893C27.2546 57.2838 27.2544 57.2784 27.2543 57.2729C27.2541 57.2675 27.254 57.262 27.2538 57.2565C27.2537 57.2511 27.2535 57.2456 27.2534 57.2401C27.2532 57.2346 27.2531 57.2291 27.2529 57.2236C27.2527 57.2181 27.2526 57.2127 27.2524 57.2072C27.2523 57.2017 27.2521 57.1961 27.252 57.1906C27.2518 57.1851 27.2517 57.1796 27.2515 57.1741C27.2513 57.1686 27.2512 57.163 27.251 57.1575C27.2509 57.152 27.2507 57.1464 27.2506 57.1409C27.2504 57.1354 27.2502 57.1298 27.2501 57.1243C27.2499 57.1187 27.2498 57.1132 27.2496 57.1076C27.2495 57.102 27.2493 57.0965 27.2491 57.0909C27.249 57.0853 27.2488 57.0798 27.2487 57.0742C27.2485 57.0686 27.2484 57.063 27.2482 57.0574C27.248 57.0519 27.2479 57.0463 27.2477 57.0407C27.2476 57.0351 27.2474 57.0295 27.2472 57.0239C27.2471 57.0183 27.2469 57.0127 27.2468 57.007C27.2466 57.0014 27.2464 56.9958 27.2463 56.9902C27.2461 56.9846 27.246 56.9789 27.2458 56.9733C27.2457 56.9677 27.2455 56.962 27.2453 56.9564C27.2452 56.9507 27.245 56.9451 27.2449 56.9395C27.2447 56.9338 27.2445 56.9281 27.2444 56.9225C27.2442 56.9168 27.2441 56.9112 27.2439 56.9055C27.2437 56.8998 27.2436 56.8942 27.2434 56.8885C27.2432 56.8828 27.2431 56.8771 27.2429 56.8715C27.2428 56.8658 27.2426 56.8601 27.2424 56.8544C27.2423 56.8487 27.2421 56.843 27.242 56.8373C27.2418 56.8316 27.2416 56.8259 27.2415 56.8202C27.2413 56.8145 27.2412 56.8088 27.241 56.803C27.2408 56.7973 27.2407 56.7916 27.2405 56.7859C27.2403 56.7802 27.2402 56.7744 27.24 56.7687C27.2399 56.763 27.2397 56.7572 27.2395 56.7515C27.2394 56.7457 27.2392 56.74 27.239 56.7343C27.2389 56.7285 27.2387 56.7228 27.2386 56.717C27.2384 56.7112 27.2382 56.7055 27.2381 56.6997C27.2379 56.694 27.2377 56.6882 27.2376 56.6824C27.2374 56.6766 27.2372 56.6709 27.2371 56.6651C27.2369 56.6593 27.2368 56.6535 27.2366 56.6477C27.2364 56.6419 27.2363 56.6362 27.2361 56.6304C27.2359 56.6246 27.2358 56.6188 27.2356 56.613C27.2354 56.6072 27.2353 56.6014 27.2351 56.5956C27.235 56.5897 27.2348 56.5839 27.2346 56.5781C27.2345 56.5723 27.2343 56.5665 27.2341 56.5607C27.234 56.5548 27.2338 56.549 27.2336 56.5432C27.2335 56.5374 27.2333 56.5315 27.2331 56.5257C27.233 56.5198 27.2328 56.514 27.2326 56.5082C27.2325 56.5023 27.2323 56.4965 27.2321 56.4906C27.232 56.4848 27.2318 56.4789 27.2316 56.4731C27.2315 56.4672 27.2313 56.4613 27.2312 56.4555C27.231 56.4496 27.2308 56.4438 27.2307 56.4379C27.2305 56.432 27.2303 56.4261 27.2302 56.4203C27.23 56.4144 27.2298 56.4085 27.2297 56.4026C27.2295 56.3967 27.2293 56.3909 27.2292 56.385C27.229 56.3791 27.2288 56.3732 27.2287 56.3673C27.2285 56.3614 27.2283 56.3555 27.2282 56.3496C27.228 56.3437 27.2278 56.3378 27.2277 56.3319C27.2275 56.326 27.2273 56.3201 27.2272 56.3141C27.227 56.3082 27.2268 56.3023 27.2266 56.2964C27.2265 56.2905 27.2263 56.2845 27.2261 56.2786C27.226 56.2727 27.2258 56.2668 27.2256 56.2608C27.2255 56.2549 27.2253 56.249 27.2251 56.243C27.225 56.2371 27.2248 56.2312 27.2246 56.2252C27.2245 56.2193 27.2243 56.2133 27.2241 56.2074C27.224 56.2014 27.2238 56.1955 27.2236 56.1895C27.2235 56.1836 27.2233 56.1776 27.2231 56.1716C27.2229 56.1657 27.2228 56.1597 27.2226 56.1538C27.2224 56.1478 27.2223 56.1418 27.2221 56.1359C27.2219 56.1299 27.2218 56.1239 27.2216 56.1179C27.2214 56.112 27.2213 56.106 27.2211 56.1C27.2209 56.094 27.2207 56.088 27.2206 56.0821C27.2204 56.0761 27.2202 56.0701 27.2201 56.0641C27.2199 56.0581 27.2197 56.0521 27.2196 56.0461C27.2194 56.0401 27.2192 56.0341 27.2191 56.0281C27.2189 56.0221 27.2187 56.0161 27.2185 56.0101C27.2184 56.0041 27.2182 55.9981 27.218 55.9921C27.2179 55.9861 27.2177 55.9801 27.2175 55.974C27.2174 55.968 27.2172 55.962 27.217 55.956C27.2168 55.95 27.2167 55.944 27.2165 55.9379C27.2163 55.9319 27.2162 55.9259 27.216 55.9199C27.2158 55.9138 27.2156 55.9078 27.2155 55.9018C27.2153 55.8957 27.2151 55.8897 27.215 55.8837C27.2148 55.8776 27.2146 55.8716 27.2145 55.8655C27.2143 55.8595 27.2141 55.8535 27.2139 55.8474C27.2138 55.8414 27.2136 55.8353 27.2134 55.8293C27.2133 55.8232 27.2131 55.8172 27.2129 55.8111C27.2127 55.8051 27.2126 55.799 27.2124 55.793C27.2122 55.7869 27.2121 55.7808 27.2119 55.7748C27.2117 55.7687 27.2115 55.7627 27.2114 55.7566C27.2112 55.7505 27.211 55.7445 27.2109 55.7384C27.2107 55.7323 27.2105 55.7263 27.2103 55.7202C27.2102 55.7141 27.21 55.708 27.2098 55.702C27.2096 55.6959 27.2095 55.6898 27.2093 55.6837C27.2091 55.6777 27.209 55.6716 27.2088 55.6655C27.2086 55.6594 27.2084 55.6533 27.2083 55.6472C27.2081 55.6412 27.2079 55.6351 27.2078 55.629C27.2076 55.6229 27.2074 55.6168 27.2072 55.6107C27.2071 55.6046 27.2069 55.5985 27.2067 55.5924C27.2065 55.5863 27.2064 55.5802 27.2062 55.5741C27.206 55.568 27.2059 55.5619 27.2057 55.5558C27.2055 55.5497 27.2053 55.5436 27.2052 55.5375C27.205 55.5314 27.2048 55.5253 27.2046 55.5192C27.2045 55.5131 27.2043 55.507 27.2041 55.5009C27.204 55.4948 27.2038 55.4887 27.2036 55.4826C27.2034 55.4765 27.2033 55.4703 27.2031 55.4642C27.2029 55.4581 27.2027 55.452 27.2026 55.4459C27.2024 55.4398 27.2022 55.4337 27.2021 55.4275C27.2019 55.4214 27.2017 55.4153 27.2015 55.4092C27.2014 55.4031 27.2012 55.3969 27.201 55.3908C27.2008 55.3847 27.2007 55.3786 27.2005 55.3724C27.2003 55.3663 27.2001 55.3602 27.2 55.3541C27.1998 55.3479 27.1996 55.3418 27.1995 55.3357C27.1993 55.3295 27.1991 55.3234 27.1989 55.3173C27.1988 55.3111 27.1986 55.305 27.1984 55.2989C27.1982 55.2927 27.1981 55.2866 27.1979 55.2805C27.1977 55.2743 27.1975 55.2682 27.1974 55.2621C27.1972 55.2559 27.197 55.2498 27.1968 55.2437C27.1967 55.2375 27.1965 55.2314 27.1963 55.2252C27.1962 55.2191 27.196 55.213 27.1958 55.2068C27.1956 55.2007 27.1955 55.1945 27.1953 55.1884C27.1951 55.1822 27.1949 55.1761 27.1948 55.17C27.1946 55.1638 27.1944 55.1577 27.1942 55.1515C27.1941 55.1454 27.1939 55.1392 27.1937 55.1331C27.1935 55.1269 27.1934 55.1208 27.1932 55.1146C27.193 55.1085 27.1928 55.1023 27.1927 55.0962C27.1925 55.09 27.1923 55.0839 27.1921 55.0777C27.192 55.0716 27.1918 55.0654 27.1916 55.0593C27.1915 55.0531 27.1913 55.047 27.1911 55.0408C27.1909 55.0347 27.1908 55.0285 27.1906 55.0224C27.1904 55.0162 27.1902 55.0101 27.1901 55.0039C27.1899 54.9978 27.1897 54.9916 27.1895 54.9855C27.1894 54.9793 27.1892 54.9732 27.189 54.967C27.1888 54.9608 27.1887 54.9547 27.1885 54.9485C27.1883 54.9424 27.1881 54.9362 27.188 54.9301C27.1878 54.9239 27.1876 54.9178 27.1874 54.9116C27.1873 54.9054 27.1871 54.8993 27.1869 54.8931C27.1867 54.887 27.1866 54.8808 27.1864 54.8747C27.1862 54.8685 27.1861 54.8624 27.1859 54.8562C27.1857 54.85 27.1855 54.8439 27.1854 54.8377C27.1852 54.8316 27.185 54.8254 27.1848 54.8193C27.1847 54.8131 27.1845 54.807 27.1843 54.8008C27.1841 54.7946 27.184 54.7885 27.1838 54.7823C27.1836 54.7762 27.1834 54.77 27.1833 54.7639C27.1831 54.7577 27.1829 54.7516 27.1827 54.7454C27.1826 54.7392 27.1824 54.7331 27.1822 54.7269C27.182 54.7208 27.1819 54.7146 27.1817 54.7085C27.1815 54.7023 27.1813 54.6962 27.1812 54.69C27.181 54.6839 27.1808 54.6777 27.1807 54.6716C27.1805 54.6654 27.1803 54.6592 27.1801 54.6531C27.18 54.6469 27.1798 54.6408 27.1796 54.6346C27.1794 54.6285 27.1793 54.6223 27.1791 54.6162C27.1789 54.61 27.1787 54.6039 27.1786 54.5977C27.1784 54.5916 27.1782 54.5854 27.178 54.5793C27.1779 54.5731 27.1777 54.567 27.1775 54.5609C27.1773 54.5547 27.1772 54.5486 27.177 54.5424C27.1768 54.5363 27.1766 54.5301 27.1765 54.524C27.1763 54.5178 27.1761 54.5117 27.176 54.5055C27.1758 54.4994 27.1756 54.4933 27.1754 54.4871C27.1753 54.481 27.1751 54.4748 27.1749 54.4687C27.1747 54.4626 27.1746 54.4564 27.1744 54.4503C27.1742 54.4441 27.174 54.438 27.1739 54.4319C27.1737 54.4257 27.1735 54.4196 27.1733 54.4134C27.1732 54.4073 27.173 54.4012 27.1728 54.395C27.1726 54.3889 27.1725 54.3828 27.1723 54.3766C27.1721 54.3705 27.172 54.3644 27.1718 54.3583C27.1716 54.3521 27.1714 54.346 27.1713 54.3399C27.1711 54.3337 27.1709 54.3276 27.1707 54.3215C27.1706 54.3154 27.1704 54.3092 27.1702 54.3031C27.17 54.297 27.1699 54.2909 27.1697 54.2847C27.1695 54.2786 27.1694 54.2725 27.1692 54.2664C27.169 54.2603 27.1688 54.2541 27.1687 54.248C27.1685 54.2419 27.1683 54.2358 27.1681 54.2297C27.168 54.2236 27.1678 54.2175 27.1676 54.2113C27.1675 54.2052 27.1673 54.1991 27.1671 54.193C27.1669 54.1869 27.1668 54.1808 27.1666 54.1747C27.1664 54.1686 27.1662 54.1625 27.1661 54.1564C27.1659 54.1503 27.1657 54.1442 27.1655 54.1381C27.1654 54.132 27.1652 54.1259 27.165 54.1198C27.1649 54.1137 27.1647 54.1076 27.1645 54.1015C27.1643 54.0954 27.1642 54.0893 27.164 54.0832C27.1638 54.0771 27.1637 54.071 27.1635 54.0649C27.1633 54.0588 27.1631 54.0527 27.163 54.0467C27.1628 54.0406 27.1626 54.0345 27.1624 54.0284C27.1623 54.0223 27.1621 54.0162 27.1619 54.0102C27.1618 54.0041 27.1616 53.998 27.1614 53.9919C27.1612 53.9859 27.1611 53.9798 27.1609 53.9737C27.1607 53.9676 27.1606 53.9616 27.1604 53.9555C27.1602 53.9494 27.16 53.9434 27.1599 53.9373C27.1597 53.9312 27.1595 53.9252 27.1594 53.9191C27.1592 53.913 27.159 53.907 27.1588 53.9009C27.1587 53.8949 27.1585 53.8888 27.1583 53.8828C27.1582 53.8767 27.158 53.8707 27.1578 53.8646C27.1576 53.8586 27.1575 53.8525 27.1573 53.8465C27.1571 53.8404 27.157 53.8344 27.1568 53.8283C27.1566 53.8223 27.1564 53.8162 27.1563 53.8102C27.1561 53.8042 27.1559 53.7981 27.1558 53.7921C27.1556 53.7861 27.1554 53.78 27.1552 53.774C27.1551 53.768 27.1549 53.762 27.1547 53.7559C27.1546 53.7499 27.1544 53.7439 27.1542 53.7379C27.154 53.7318 27.1539 53.7258 27.1537 53.7198C27.1535 53.7138 27.1534 53.7078 27.1532 53.7018C27.153 53.6958 27.1529 53.6898 27.1527 53.6837C27.1525 53.6777 27.1523 53.6717 27.1522 53.6657C27.152 53.6597 27.1518 53.6537 27.1517 53.6477C27.1515 53.6417 27.1513 53.6357 27.1512 53.6298C27.151 53.6238 27.1508 53.6178 27.1507 53.6118C27.1505 53.6058 27.1503 53.5998 27.1501 53.5938C27.15 53.5878 27.1498 53.5819 27.1496 53.5759C27.1495 53.5699 27.1493 53.5639 27.1491 53.558C27.149 53.552 27.1488 53.546 27.1486 53.5401C27.1485 53.5341 27.1483 53.5281 27.1481 53.5222C27.1479 53.5162 27.1478 53.5103 27.1476 53.5043C27.1474 53.4983 27.1473 53.4924 27.1471 53.4864C27.1469 53.4805 27.1468 53.4745 27.1466 53.4686C27.1464 53.4627 27.1463 53.4567 27.1461 53.4508C27.1459 53.4448 27.1458 53.4389 27.1456 53.433C27.1454 53.427 27.1453 53.4211 27.1451 53.4152C27.1449 53.4093 27.1447 53.4033 27.1446 53.3974C27.1444 53.3915 27.1442 53.3856 27.1441 53.3797C27.1439 53.3737 27.1437 53.3678 27.1436 53.3619C27.1434 53.356 27.1432 53.3501 27.1431 53.3442C27.1429 53.3383 27.1427 53.3324 27.1426 53.3265C27.1424 53.3206 27.1422 53.3147 27.1421 53.3088C27.1419 53.3029 27.1417 53.297 27.1416 53.2912C27.1414 53.2853 27.1412 53.2794 27.1411 53.2735C27.1409 53.2676 27.1407 53.2618 27.1406 53.2559C27.1404 53.25 27.1402 53.2441 27.1401 53.2383C27.1399 53.2324 27.1397 53.2266 27.1396 53.2207C27.1394 53.2148 27.1392 53.209 27.1391 53.2031C27.1389 53.1973 27.1388 53.1914 27.1386 53.1856C27.1384 53.1797 27.1383 53.1739 27.1381 53.1681C27.1379 53.1622 27.1378 53.1564 27.1376 53.1506C27.1374 53.1447 27.1373 53.1389 27.1371 53.1331C27.1369 53.1273 27.1368 53.1214 27.1366 53.1156C27.1364 53.1098 27.1363 53.104 27.1361 53.0982C27.1359 53.0924 27.1358 53.0866 27.1356 53.0808C27.1355 53.075 27.1353 53.0692 27.1351 53.0634C27.135 53.0576 27.1348 53.0518 27.1346 53.046C27.1345 53.0402 27.1343 53.0344 27.1341 53.0286C27.134 53.0228 27.1338 53.0171 27.1337 53.0113C27.1335 53.0055 27.1333 52.9998 27.1332 52.994C27.133 52.9882 27.1328 52.9825 27.1327 52.9767C27.1325 52.9709 27.1323 52.9652 27.1322 52.9594C27.132 52.9537 27.1319 52.9479 27.1317 52.9422C27.1315 52.9365 27.1314 52.9307 27.1312 52.925C27.131 52.9193 27.1309 52.9135 27.1307 52.9078C27.1306 52.9021 27.1304 52.8963 27.1302 52.8906C27.1301 52.8849 27.1299 52.8792 27.1298 52.8735C27.1296 52.8678 27.1294 52.8621 27.1293 52.8564C27.1291 52.8507 27.1289 52.845 27.1288 52.8393C27.1286 52.8336 27.1285 52.8279 27.1283 52.8222C27.1281 52.8165 27.128 52.8108 27.1278 52.8052C27.1277 52.7995 27.1275 52.7938 27.1273 52.7881C27.1272 52.7825 27.127 52.7768 27.1269 52.7711C27.1267 52.7655 27.1265 52.7598 27.1264 52.7542C27.1262 52.7485 27.1261 52.7429 27.1259 52.7372C27.1257 52.7316 27.1256 52.726 27.1254 52.7203C27.1253 52.7147 27.1251 52.7091 27.1249 52.7034C27.1248 52.6978 27.1246 52.6922 27.1245 52.6866C27.1243 52.681 27.1241 52.6753 27.124 52.6697C27.1238 52.6641 27.1237 52.6585 27.1235 52.6529C27.1233 52.6473 27.1232 52.6417 27.123 52.6362C27.1229 52.6306 27.1227 52.625 27.1226 52.6194C27.1224 52.6138 27.1222 52.6082 27.1221 52.6027C27.1219 52.5971 27.1218 52.5915 27.1216 52.586C27.1215 52.5804 27.1213 52.5749 27.1211 52.5693C27.121 52.5638 27.1208 52.5582 27.1207 52.5527C27.1205 52.5471 27.1204 52.5416 27.1202 52.5361C27.12 52.5305 27.1199 52.525 27.1197 52.5195C27.1196 52.5139 27.1194 52.5084 27.1193 52.5029C27.1191 52.4974 27.1189 52.4919 27.1188 52.4864C27.1186 52.4809 27.1185 52.4754 27.1183 52.4699C27.1182 52.4644 27.118 52.4589 27.1179 52.4534C27.1177 52.448 27.1175 52.4425 27.1174 52.437C27.1172 52.4315 27.1171 52.4261 27.1169 52.4206C27.1168 52.4151 27.1166 52.4097 27.1165 52.4042C27.1163 52.3988 27.1162 52.3933 27.116 52.3879C27.1158 52.3824 27.1157 52.377 27.1155 52.3716C27.1154 52.3661 27.1152 52.3607 27.1151 52.3553C27.1149 52.3499 27.1148 52.3444 27.1146 52.339C27.1145 52.3336 27.1143 52.3282 27.1142 52.3228C27.114 52.3174 27.1139 52.312 27.1137 52.3066C27.1136 52.3012 27.1134 52.2959 27.1132 52.2905C27.1131 52.2851 27.1129 52.2797 27.1128 52.2743C27.1126 52.269 27.1125 52.2636 27.1123 52.2583C27.1122 52.2529 27.112 52.2475 27.1119 52.2422C27.1117 52.2369 27.1116 52.2315 27.1114 52.2262C27.1113 52.2208 27.1111 52.2155 27.111 52.2102C27.1108 52.2049 27.1107 52.1995 27.1105 52.1942C27.1104 52.1889 27.1102 52.1836 27.1101 52.1783C27.1099 52.173 27.1098 52.1677 27.1096 52.1624C27.1095 52.1571 27.1093 52.1518 27.1092 52.1466C27.109 52.1413 27.1089 52.136 27.1087 52.1307C27.1086 52.1255 27.1084 52.1202 27.1083 52.1149C27.1081 52.1097 27.108 52.1044 27.1078 52.0992C27.1077 52.094 27.1075 52.0887 27.1074 52.0835C27.1072 52.0782 27.1071 52.073 27.1069 52.0678C27.1068 52.0626 27.1066 52.0574 27.1065 52.0521C27.1064 52.0469 27.1062 52.0417 27.1061 52.0365C27.1059 52.0313 27.1058 52.0261 27.1056 52.021C27.1055 52.0158 27.1053 52.0106 27.1052 52.0054C27.105 52.0002 27.1049 51.9951 27.1047 51.9899C27.1046 51.9848 27.1044 51.9796 27.1043 51.9745C27.1042 51.9693 27.104 51.9642 27.1039 51.959C27.1037 51.9539 27.1036 51.9488 27.1034 51.9436L23.1034 51.9551ZM23.3227 59.702C23.322 59.6749 23.3245 59.6407 23.3404 59.5939C23.358 59.5425 23.3983 59.4597 23.4812 59.3784C23.5705 59.2907 23.6619 59.2516 23.7075 59.2398C23.7425 59.2307 23.6852 59.2545 23.4884 59.225L22.992 63.1786C24.2548 63.3683 25.4585 63.113 26.3217 62.2659C27.1238 61.4787 27.3444 60.4575 27.3227 59.6905L23.3227 59.702ZM23.8304 59.3071C12.0408 55.372 3.6351 44.2947 3.26636 31.2687L-0.733628 31.2802C-0.317125 45.9932 9.19913 58.6068 22.65 63.0964L23.8304 59.3071ZM3.26636 31.2687C2.80948 15.1298 14.8144 2.74466 30.9598 2.69826L30.8466 -1.30014C12.4921 -1.24739 -1.25301 12.933 -0.733628 31.2802L3.26636 31.2687ZM15.2028 45.2692C14.8544 45.6286 14.4278 45.7695 14.092 45.7997C13.7997 45.826 13.5854 45.7703 13.5183 45.7515C13.4101 45.7211 13.3525 45.6848 13.5333 45.7735L15.2209 42.192C15.1482 42.1564 14.837 41.9959 14.5083 41.9037C14.2627 41.8349 13.157 41.5601 12.2943 42.45L15.2028 45.2692ZM13.0029 45.4005C12.7665 45.1713 12.647 44.891 12.6107 44.6304C12.5923 44.4991 12.5887 44.3297 12.6304 44.1337C12.6679 43.9577 12.7707 43.6303 13.0691 43.3225L15.9775 46.1417C16.6384 45.4599 16.632 44.5956 16.5737 44.1774C16.4981 43.6357 16.2448 43.0434 15.7513 42.565L13.0029 45.4005ZM13.5783 42.9465C13.7614 42.8531 13.9603 42.8013 14.156 42.7884C14.343 42.7762 14.4909 42.8018 14.5794 42.8235C14.6239 42.8344 14.6574 42.8454 14.6778 42.8525C14.6981 42.8597 14.7096 42.8647 14.7096 42.8647C14.7099 42.8648 14.7082 42.8641 14.7041 42.8622C14.6999 42.8603 14.694 42.8576 14.6858 42.8536C14.6675 42.845 14.6472 42.8351 14.6136 42.8186L12.926 46.4C13.0064 46.4394 13.3387 46.612 13.719 46.7053C14.1728 46.8166 14.814 46.8513 15.4684 46.5177L13.5783 42.9465ZM15.5333 43.7101C15.5046 43.6559 15.5693 43.7507 15.5987 43.9615C15.6149 44.0771 15.6391 44.3571 15.5194 44.6983C15.3803 45.0948 15.0904 45.4429 14.6936 45.6452L12.8035 42.074C11.5914 42.6921 11.5669 43.9211 11.6357 44.4145C11.7043 44.9063 11.9029 45.3132 12.0063 45.5085L15.5333 43.7101ZM13.7995 44.2735C13.7177 44.3579 13.5681 44.4913 13.3418 44.5999C13.1017 44.715 12.8462 44.7682 12.6023 44.7689C12.192 44.77 11.9311 44.6187 12.0015 44.6532L13.6891 41.0718C13.5059 40.9821 13.0558 40.7688 12.4892 40.7705C11.7523 40.7726 11.2175 41.1176 10.891 41.4544L13.7995 44.2735ZM12.0015 44.6532C12.0328 44.6686 11.9133 44.6177 11.7576 44.4668C11.5977 44.3119 11.2494 43.8968 11.2309 43.242L15.2309 43.2305C15.2088 42.4508 14.7944 41.911 14.506 41.6314C14.2218 41.3559 13.9113 41.1807 13.6891 41.0718L12.0015 44.6532ZM11.4167 42.3474C11.5017 42.1669 11.6488 41.9541 11.8854 41.7748C12.1244 41.5938 12.3885 41.4974 12.6321 41.4618C13.0763 41.3968 13.3812 41.537 13.4532 41.5723L11.7656 45.1537C12.0912 45.3133 12.6479 45.5152 13.3099 45.4184C14.101 45.3027 14.7246 44.8053 15.045 44.1252L11.4167 42.3474ZM13.4532 41.5723C13.4393 41.5655 13.4996 41.5931 13.5879 41.6567C13.6755 41.7199 13.8608 41.8682 14.0239 42.1272C14.2053 42.4153 14.3059 42.7564 14.3018 43.1042C14.2981 43.42 14.2096 43.6465 14.1594 43.7529L10.5311 41.975C10.2913 42.4839 10.1156 43.342 10.6522 44.1943C11.0399 44.81 11.6244 45.0846 11.7656 45.1537L13.4532 41.5723ZM17.9268 48.7602C17.7487 48.944 17.5123 49.088 17.2399 49.1609C16.9776 49.2312 16.743 49.2199 16.5698 49.1859C16.2509 49.1235 16.0641 48.9753 15.9769 48.8908L18.7253 46.0554C18.3811 45.7217 17.8765 45.387 17.2433 45.2629C16.5398 45.1251 15.6729 45.2658 15.0184 45.9411L17.9268 48.7602ZM15.9769 48.8908C15.7405 48.6616 15.621 48.3814 15.5847 48.1207C15.5664 47.9894 15.5627 47.82 15.6045 47.624C15.6419 47.448 15.7448 47.1207 16.0431 46.8128L18.9516 49.632C19.6124 48.9502 19.606 48.0859 19.5477 47.6677C19.4721 47.126 19.2188 46.5337 18.7253 46.0554L15.9769 48.8908ZM15.6832 47.3335C15.8708 46.9353 16.2186 46.6108 16.6605 46.4557C17.0504 46.3189 17.3809 46.3583 17.5514 46.3955C17.8718 46.4653 18.0435 46.6097 18.118 46.6819L15.3696 49.5173C15.7012 49.8387 16.1907 50.1697 16.7942 50.3012C17.1061 50.3691 17.5694 50.4082 18.0715 50.232C18.6256 50.0375 19.0649 49.6346 19.3115 49.1114L15.6832 47.3335ZM17.8061 46.433C18.0231 46.5743 18.2604 46.8445 18.3595 47.2395C18.4058 47.4242 18.4229 47.6444 18.38 47.885C18.3401 48.1085 18.2283 48.4492 17.9268 48.7602L15.0184 45.9411C14.3341 46.647 14.3401 47.563 14.4793 48.1181C14.6488 48.7941 15.0825 49.3761 15.6815 49.7663L17.8061 46.433ZM15.9896 47.2659C15.8079 47.3586 15.5894 47.4209 15.3497 47.4291C15.115 47.4371 14.9161 47.3914 14.7698 47.3376C14.5097 47.2418 14.3932 47.1126 14.4274 47.1458L17.1758 44.3104C16.953 44.0944 16.5812 43.7785 16.0684 43.5897C15.4755 43.3715 14.7662 43.3549 14.0995 43.6948L15.9896 47.2659ZM14.0381 46.6273C13.9339 46.4305 13.9106 46.2713 13.9073 46.1553C13.9054 46.0881 13.9084 45.9699 13.9463 45.8168C13.9782 45.6878 14.0742 45.372 14.3686 45.0682L17.2771 47.8874C17.6322 47.521 17.7724 47.1113 17.8324 46.869C17.8983 46.6026 17.9132 46.3516 17.9073 46.1438C17.8961 45.7466 17.8014 45.2752 17.5652 44.8289L14.0381 46.6273ZM14.8778 44.6922C15.0595 44.5996 15.278 44.5373 15.5177 44.5291C15.7524 44.5211 15.9512 44.5667 16.0975 44.6206C16.3577 44.7163 16.4742 44.8456 16.44 44.8123L13.6916 47.6478C13.9144 47.8637 14.2862 48.1797 14.799 48.3684C15.3918 48.5866 16.1012 48.6033 16.7679 48.2634L14.8778 44.6922ZM16.44 44.8123C16.6641 45.0296 16.8541 45.3697 16.8663 45.8031C16.8792 46.2589 16.6654 46.9213 15.9896 47.2659L14.0995 43.6948C13.1772 44.165 12.8455 45.0778 12.8663 45.8146C12.8866 46.5292 13.2104 47.1813 13.6916 47.6478L16.44 44.8123Z" fill="black"/>
</svg>
