<svg width="50" height="50" viewBox="0 0 50 50" fill="none" xmlns="http://www.w3.org/2000/svg">
<g filter="url(#filter0_d_115_50)">
<path d="M43 0C44.5938 0 46 1.40625 46 3.09375V39C46 40.6875 44.5938 42 43 42H6.90625C5.3125 42 4 40.6875 4 39V3.09375C4 1.40625 5.3125 0 6.90625 0H43ZM16.6562 36V16.0312H10.4688V36H16.6562ZM13.5625 13.2188C15.5312 13.2188 17.125 11.625 17.125 9.65625C17.125 7.6875 15.5312 6 13.5625 6C11.5 6 9.90625 7.6875 9.90625 9.65625C9.90625 11.625 11.5 13.2188 13.5625 13.2188ZM40 36V25.0312C40 19.6875 38.7812 15.4688 32.5 15.4688C29.5 15.4688 27.4375 17.1562 26.5938 18.75H26.5V16.0312H20.5938V36H26.7812V26.1562C26.7812 23.5312 27.25 21 30.5312 21C33.7188 21 33.7188 24 33.7188 26.25V36H40Z" fill="#F96FFC"/>
<path d="M16.6562 36V37H17.6562V36H16.6562ZM16.6562 16.0312H17.6562V15.0312H16.6562V16.0312ZM10.4688 16.0312V15.0312H9.46875V16.0312H10.4688ZM10.4688 36H9.46875V37H10.4688V36ZM40 36V37H41V36H40ZM26.5938 18.75V19.75H27.1958L27.4775 19.2179L26.5938 18.75ZM26.5 18.75H25.5V19.75H26.5V18.75ZM26.5 16.0312H27.5V15.0312H26.5V16.0312ZM20.5938 16.0312V15.0312H19.5938V16.0312H20.5938ZM20.5938 36H19.5938V37H20.5938V36ZM26.7812 36V37H27.7812V36H26.7812ZM33.7188 36H32.7188V37H33.7188V36ZM43 1C44.0217 1 45 1.93858 45 3.09375H47C47 0.873917 45.1658 -1 43 -1V1ZM45 3.09375V39H47V3.09375H45ZM45 39C45 40.1151 44.0618 41 43 41V43C45.1257 43 47 41.2599 47 39H45ZM43 41H6.90625V43H43V41ZM6.90625 41C5.88539 41 5 40.156 5 39H3C3 41.219 4.73961 43 6.90625 43V41ZM5 39V3.09375H3V39H5ZM5 3.09375C5 1.89676 5.9246 1 6.90625 1V-1C4.7004 -1 3 0.91574 3 3.09375H5ZM6.90625 1H43V-1H6.90625V1ZM17.6562 36V16.0312H15.6562V36H17.6562ZM16.6562 15.0312H10.4688V17.0312H16.6562V15.0312ZM9.46875 16.0312V36H11.4688V16.0312H9.46875ZM10.4688 37H16.6562V35H10.4688V37ZM13.5625 14.2188C16.0835 14.2188 18.125 12.1773 18.125 9.65625H16.125C16.125 11.0727 14.979 12.2188 13.5625 12.2188V14.2188ZM18.125 9.65625C18.125 7.16918 16.1169 5 13.5625 5V7C14.9456 7 16.125 8.20582 16.125 9.65625H18.125ZM13.5625 5C10.9311 5 8.90625 7.15198 8.90625 9.65625H10.9062C10.9062 8.22302 12.0689 7 13.5625 7V5ZM8.90625 9.65625C8.90625 12.1942 10.9648 14.2188 13.5625 14.2188V12.2188C12.0352 12.2188 10.9062 11.0558 10.9062 9.65625H8.90625ZM41 36V25.0312H39V36H41ZM41 25.0312C41 22.3306 40.7024 19.6901 39.4505 17.7115C38.1344 15.6311 35.8945 14.4688 32.5 14.4688V16.4688C35.3868 16.4688 36.8969 17.4158 37.7604 18.7807C38.6883 20.2474 39 22.3881 39 25.0312H41ZM32.5 14.4688C29.1056 14.4688 26.7155 16.3827 25.71 18.2821L27.4775 19.2179C28.1595 17.9298 29.8944 16.4688 32.5 16.4688V14.4688ZM26.5938 17.75H26.5V19.75H26.5938V17.75ZM27.5 18.75V16.0312H25.5V18.75H27.5ZM26.5 15.0312H20.5938V17.0312H26.5V15.0312ZM19.5938 16.0312V36H21.5938V16.0312H19.5938ZM20.5938 37H26.7812V35H20.5938V37ZM27.7812 36V26.1562H25.7812V36H27.7812ZM27.7812 26.1562C27.7812 24.8567 27.9073 23.7949 28.3024 23.0748C28.4865 22.7395 28.7243 22.4882 29.0434 22.3125C29.3691 22.1331 29.8389 22 30.5312 22V20C29.583 20 28.7637 20.1833 28.0786 20.5606C27.387 20.9415 26.8924 21.4871 26.5491 22.1127C25.8896 23.3144 25.7812 24.8308 25.7812 26.1562H27.7812ZM30.5312 22C31.1675 22 31.5518 22.1475 31.7973 22.3209C32.0454 22.496 32.2399 22.7596 32.3875 23.1416C32.7056 23.9648 32.7188 25.074 32.7188 26.25H34.7188C34.7188 25.176 34.7319 23.6602 34.2531 22.4209C34.0023 21.7716 33.5992 21.1447 32.9507 20.6869C32.2998 20.2275 31.4888 20 30.5312 20V22ZM32.7188 26.25V36H34.7188V26.25H32.7188ZM33.7188 37H40V35H33.7188V37Z" fill="black"/>
</g>
<defs>
<filter id="filter0_d_115_50" x="0" y="0" width="50" height="50" filterUnits="userSpaceOnUse" color-interpolation-filters="sRGB">
<feFlood flood-opacity="0" result="BackgroundImageFix"/>
<feColorMatrix in="SourceAlpha" type="matrix" values="0 0 0 0 0 0 0 0 0 0 0 0 0 0 0 0 0 0 127 0" result="hardAlpha"/>
<feOffset dy="4"/>
<feGaussianBlur stdDeviation="2"/>
<feComposite in2="hardAlpha" operator="out"/>
<feColorMatrix type="matrix" values="0 0 0 0 0 0 0 0 0 0 0 0 0 0 0 0 0 0 0.25 0"/>
<feBlend mode="normal" in2="BackgroundImageFix" result="effect1_dropShadow_115_50"/>
<feBlend mode="normal" in="SourceGraphic" in2="effect1_dropShadow_115_50" result="shape"/>
</filter>
</defs>
</svg>
