<svg width="56" height="56" viewBox="0 0 56 56" fill="none" xmlns="http://www.w3.org/2000/svg">
<path d="M52 0C54.125 0 56 1.875 56 4.125V52C56 54.25 54.125 56 52 56H3.875C1.75 56 0 54.25 0 52V4.125C0 1.875 1.75 0 3.875 0H52ZM16.875 48V21.375H8.625V48H16.875ZM12.75 17.625C15.375 17.625 17.5 15.5 17.5 12.875C17.5 10.25 15.375 8 12.75 8C10 8 7.875 10.25 7.875 12.875C7.875 15.5 10 17.625 12.75 17.625ZM48 48V33.375C48 26.25 46.375 20.625 38 20.625C34 20.625 31.25 22.875 30.125 25H30V21.375H22.125V48H30.375V34.875C30.375 31.375 31 28 35.375 28C39.625 28 39.625 32 39.625 35V48H48Z" fill="black"/>
<path d="M16.875 48V49H17.875V48H16.875ZM16.875 21.375H17.875V20.375H16.875V21.375ZM8.625 21.375V20.375H7.625V21.375H8.625ZM8.625 48H7.625V49H8.625V48ZM48 48V49H49V48H48ZM30.125 25V26H30.7271L31.0088 25.4679L30.125 25ZM30 25H29V26H30V25ZM30 21.375H31V20.375H30V21.375ZM22.125 21.375V20.375H21.125V21.375H22.125ZM22.125 48H21.125V49H22.125V48ZM30.375 48V49H31.375V48H30.375ZM39.625 48H38.625V49H39.625V48ZM52 1C53.553 1 55 2.40733 55 4.125H57C57 1.34267 54.697 -1 52 -1V1ZM55 4.125V52H57V4.125H55ZM55 52C55 53.6775 53.5931 55 52 55V57C54.6569 57 57 54.8225 57 52H55ZM52 55H3.875V57H52V55ZM3.875 55C2.32289 55 1 53.7185 1 52H-1C-1 54.7815 1.17711 57 3.875 57V55ZM1 52V4.125H-1V52H1ZM1 4.125C1 2.36551 2.3621 1 3.875 1V-1C1.1379 -1 -1 1.38449 -1 4.125H1ZM3.875 1H52V-1H3.875V1ZM17.875 48V21.375H15.875V48H17.875ZM16.875 20.375H8.625V22.375H16.875V20.375ZM7.625 21.375V48H9.625V21.375H7.625ZM8.625 49H16.875V47H8.625V49ZM12.75 18.625C15.9273 18.625 18.5 16.0523 18.5 12.875H16.5C16.5 14.9477 14.8227 16.625 12.75 16.625V18.625ZM18.5 12.875C18.5 9.73168 15.9607 7 12.75 7V9C14.7893 9 16.5 10.7683 16.5 12.875H18.5ZM12.75 7C9.4311 7 6.875 9.71448 6.875 12.875H8.875C8.875 10.7855 10.5689 9 12.75 9V7ZM6.875 12.875C6.875 16.0692 9.46478 18.625 12.75 18.625V16.625C10.5352 16.625 8.875 14.9308 8.875 12.875H6.875ZM49 48V33.375H47V48H49ZM49 33.375C49 29.7838 48.6008 26.3464 46.9857 23.7935C45.3063 21.1389 42.4413 19.625 38 19.625V21.625C41.9337 21.625 44.0687 22.9236 45.2955 24.8628C46.5867 26.9036 47 29.8412 47 33.375H49ZM38 19.625C33.6056 19.625 30.528 22.1015 29.2412 24.5321L31.0088 25.4679C31.972 23.6485 34.3944 21.625 38 21.625V19.625ZM30.125 24H30V26H30.125V24ZM31 25V21.375H29V25H31ZM30 20.375H22.125V22.375H30V20.375ZM21.125 21.375V48H23.125V21.375H21.125ZM22.125 49H30.375V47H22.125V49ZM31.375 48V34.875H29.375V48H31.375ZM31.375 34.875C31.375 33.138 31.5401 31.6465 32.111 30.6061C32.383 30.1106 32.7429 29.7265 33.2305 29.458C33.7245 29.1859 34.4092 29 35.375 29V27C34.1533 27 33.1192 27.236 32.2656 27.7061C31.4055 28.1798 30.7889 28.8582 30.3577 29.6439C29.5224 31.166 29.375 33.112 29.375 34.875H31.375ZM35.375 29C36.2768 29 36.8604 29.21 37.2553 29.4888C37.6528 29.7694 37.947 30.1815 38.161 30.7354C38.6118 31.9023 38.625 33.449 38.625 35H40.625C40.625 33.551 40.6382 31.5977 40.0265 30.0146C39.7093 29.1935 39.2066 28.4181 38.4087 27.8549C37.6084 27.29 36.5982 27 35.375 27V29ZM38.625 35V48H40.625V35H38.625ZM39.625 49H48V47H39.625V49Z" fill="black"/>
</svg>
