<svg width="104" height="69" viewBox="0 0 104 69" fill="none" xmlns="http://www.w3.org/2000/svg">
<g filter="url(#filter0_d_115_60)">
<path d="M94.6188 17.1924L82.598 47.598L52.1924 59.6188L64.2132 29.2132L94.6188 17.1924Z" fill="#E100E5"/>
</g>
<path d="M76.2803 5.28758L75.9543 37.9815L51.8761 60.1003L52.2021 27.4064L76.2803 5.28758Z" fill="#FB34FF"/>
<g filter="url(#filter1_d_115_60)">
<path d="M9.19239 17.1924L39.598 29.2132L51.6188 59.6188L21.2132 47.598L9.19239 17.1924Z" fill="#F5B7FF"/>
</g>
<path d="M27.8761 5.28759L51.9543 27.4064L52.2803 60.1003L28.2021 37.9815L27.8761 5.28759Z" fill="#FD94FF"/>
<path d="M52 0L65 30L52 60L39 30L52 0Z" fill="#F96FFC"/>
<g filter="url(#filter2_d_115_60)">
<ellipse cx="52" cy="42.5" rx="17" ry="17.5" fill="#F96FFC"/>
</g>
<path d="M27.0252 42.972L27.2047 42.7028L35.5785 39.443L36.2364 41.1477L36.0869 41.3869L29.1187 44.0187V44.1682L36.1168 46.7402L35.6981 48.385L35.429 48.5944L27.0252 45.3944V42.972ZM46.8909 35.5551C48.3863 35.5551 49.5327 35.934 50.3302 36.6916C51.1476 37.4492 51.5564 38.466 51.5564 39.7421C51.5564 40.9981 51.3171 42.0249 50.8386 42.8224C50.38 43.6199 49.7022 44.248 48.805 44.7065C47.9277 45.1651 46.8909 45.3944 45.6947 45.3944H44.2592V45.4243L44.3788 50H41.3283L41.5078 45.6935L41.3283 35.585L46.8909 35.5551ZM48.4162 40.2206C48.4162 39.4031 48.2068 38.805 47.7881 38.4262C47.3894 38.0274 46.7614 37.8181 45.904 37.7981L44.3788 37.8878L44.319 43.0617L46.3526 43.1813C47.7283 42.7626 48.4162 41.7757 48.4162 40.2206ZM59.5338 50H56.4833L56.6627 45.9925L56.6328 45.1551L52.0272 35.585H55.2571L55.5562 36.572L58.0085 42.0748H58.2478L60.9394 36.6617L61.3581 35.585H64.4982L59.444 45.0953L59.3842 45.9925L59.5338 50ZM77.7388 42.972V45.3944L69.335 48.5944L69.0659 48.385L68.6472 46.7402L75.6453 44.1682V44.0187L68.6771 41.3869L68.5276 41.1477L69.1855 39.443L77.5593 42.7028L77.7388 42.972Z" fill="black"/>
<defs>
<filter id="filter0_d_115_60" x="48.1924" y="17.1924" width="50.4264" height="50.4264" filterUnits="userSpaceOnUse" color-interpolation-filters="sRGB">
<feFlood flood-opacity="0" result="BackgroundImageFix"/>
<feColorMatrix in="SourceAlpha" type="matrix" values="0 0 0 0 0 0 0 0 0 0 0 0 0 0 0 0 0 0 127 0" result="hardAlpha"/>
<feOffset dy="4"/>
<feGaussianBlur stdDeviation="2"/>
<feComposite in2="hardAlpha" operator="out"/>
<feColorMatrix type="matrix" values="0 0 0 0 0 0 0 0 0 0 0 0 0 0 0 0 0 0 0.25 0"/>
<feBlend mode="normal" in2="BackgroundImageFix" result="effect1_dropShadow_115_60"/>
<feBlend mode="normal" in="SourceGraphic" in2="effect1_dropShadow_115_60" result="shape"/>
</filter>
<filter id="filter1_d_115_60" x="5.19238" y="17.1924" width="50.4264" height="50.4264" filterUnits="userSpaceOnUse" color-interpolation-filters="sRGB">
<feFlood flood-opacity="0" result="BackgroundImageFix"/>
<feColorMatrix in="SourceAlpha" type="matrix" values="0 0 0 0 0 0 0 0 0 0 0 0 0 0 0 0 0 0 127 0" result="hardAlpha"/>
<feOffset dy="4"/>
<feGaussianBlur stdDeviation="2"/>
<feComposite in2="hardAlpha" operator="out"/>
<feColorMatrix type="matrix" values="0 0 0 0 0 0 0 0 0 0 0 0 0 0 0 0 0 0 0.25 0"/>
<feBlend mode="normal" in2="BackgroundImageFix" result="effect1_dropShadow_115_60"/>
<feBlend mode="normal" in="SourceGraphic" in2="effect1_dropShadow_115_60" result="shape"/>
</filter>
<filter id="filter2_d_115_60" x="31" y="25" width="42" height="43" filterUnits="userSpaceOnUse" color-interpolation-filters="sRGB">
<feFlood flood-opacity="0" result="BackgroundImageFix"/>
<feColorMatrix in="SourceAlpha" type="matrix" values="0 0 0 0 0 0 0 0 0 0 0 0 0 0 0 0 0 0 127 0" result="hardAlpha"/>
<feOffset dy="4"/>
<feGaussianBlur stdDeviation="2"/>
<feComposite in2="hardAlpha" operator="out"/>
<feColorMatrix type="matrix" values="0 0 0 0 0 0 0 0 0 0 0 0 0 0 0 0 0 0 0.25 0"/>
<feBlend mode="normal" in2="BackgroundImageFix" result="effect1_dropShadow_115_60"/>
<feBlend mode="normal" in="SourceGraphic" in2="effect1_dropShadow_115_60" result="shape"/>
</filter>
</defs>
</svg>
