<svg width="65" height="61" viewBox="0 0 65 61" fill="none" xmlns="http://www.w3.org/2000/svg">
<path d="M2.03927 57.7225L1.56281 59.3722L3.23274 58.9725L18.5592 55.3047C23.0081 57.3929 27.8629 58.625 32.8661 58.625C49.8104 58.625 64 45.7551 64 29.875C64 22.0529 60.3676 14.9271 54.5795 9.52301C48.8968 4.09194 41.1486 1 32.8661 1C16.0406 1 2.13393 13.8839 2.13393 29.75C2.13393 34.7954 3.57688 39.5872 6.06942 43.7687L2.03927 57.7225ZM13.6008 43.2868L13.7473 42.7977L13.437 42.3923L12.7925 41.5501C10.4906 37.9563 9.22321 33.9046 9.22321 29.75C9.22321 17.7445 19.8218 7.75 33 7.75C39.318 7.75 45.2324 10.0348 49.7284 14.2311C54.242 18.4437 56.9107 23.9392 56.9107 29.875C56.9107 41.8671 46.0587 51.875 32.8661 51.875C28.628 51.875 24.5155 50.7991 20.7811 48.761L20.0015 48.2759L19.6402 48.0511L19.2276 48.1556L11.5619 50.0976L13.6008 43.2868ZM47.0154 34.7525L46.9832 34.7344L46.9497 34.7188C46.1558 34.3483 42.5014 32.7048 41.7873 32.4382C41.4653 32.3179 40.9566 32.1332 40.4076 32.1935C39.7668 32.2638 39.2676 32.6299 38.8827 33.1688L38.8685 33.1887L38.8552 33.2092C38.6998 33.451 38.2837 33.9554 37.7988 34.5211C37.6451 34.7004 37.4854 34.8848 37.3334 35.0604C37.1022 35.3274 36.8886 35.5741 36.7403 35.7517C36.5919 35.8459 36.5442 35.8512 36.5428 35.8514L36.5426 35.8514L36.5423 35.8514L36.5408 35.8514C36.5385 35.8512 36.5301 35.8505 36.514 35.8464C36.4802 35.838 36.4125 35.8149 36.3011 35.7525L36.2638 35.7316L36.2248 35.7139C34.0261 34.719 32.305 33.8506 30.7759 32.6883C29.2624 31.5378 27.9014 30.071 26.4837 27.8477C26.5129 27.8173 26.55 27.7798 26.5968 27.7346C26.6407 27.6922 26.6883 27.6471 26.7391 27.5989C27.2164 27.1466 27.981 26.4219 28.6634 25.0876C28.8849 24.67 28.9563 24.2619 28.9241 23.871C28.8963 23.5342 28.7902 23.2384 28.7281 23.0654C28.7248 23.0562 28.7216 23.0472 28.7185 23.0387C28.6668 22.8939 28.5162 22.56 28.35 22.195C28.2518 21.9793 28.1366 21.728 28.0125 21.4575C27.9122 21.2386 27.8061 21.0072 27.6986 20.7719C27.2093 19.701 26.6871 18.5422 26.4318 17.887L26.4169 17.8489L26.399 17.8122C26.0248 17.0437 25.5977 16.4972 25.0222 16.2128C24.5352 15.9722 24.0248 15.9908 23.8216 15.9983C23.7953 15.9992 23.7742 16 23.7589 16H23.7566H23.7542H23.7519H23.7495H23.7471H23.7447H23.7424H23.74H23.7376H23.7352H23.7328H23.7305H23.7281H23.7257H23.7233H23.7209H23.7185H23.7161H23.7137H23.7112H23.7088H23.7064H23.704H23.7016H23.6991H23.6967H23.6943H23.6919H23.6894H23.687H23.6845H23.6821H23.6796H23.6772H23.6747H23.6723H23.6698H23.6674H23.6649H23.6624H23.66H23.6575H23.655H23.6525H23.6501H23.6476H23.6451H23.6426H23.6401H23.6376H23.6351H23.6326H23.6301H23.6276H23.6251H23.6226H23.6201H23.6176H23.6151H23.6126H23.6101H23.6076H23.605H23.6025H23.6H23.5974H23.5949H23.5924H23.5898H23.5873H23.5848H23.5822H23.5797H23.5771H23.5746H23.572H23.5695H23.5669H23.5644H23.5618H23.5592H23.5567H23.5541H23.5515H23.549H23.5464H23.5438H23.5412H23.5387H23.5361H23.5335H23.5309H23.5283H23.5257H23.5232H23.5206H23.518H23.5154H23.5128H23.5102H23.5076H23.505H23.5024H23.4998H23.4971H23.4945H23.4919H23.4893H23.4867H23.4841H23.4815H23.4788H23.4762H23.4736H23.471H23.4683H23.4657H23.4631H23.4604H23.4578H23.4552H23.4525H23.4499H23.4472H23.4446H23.442H23.4393H23.4367H23.434H23.4314H23.4287H23.4261H23.4234H23.4207H23.4181H23.4154H23.4128H23.4101H23.4074H23.4048H23.4021H23.3994H23.3968H23.3941H23.3914H23.3888H23.3861H23.3834H23.3807H23.378H23.3754H23.3727H23.37H23.3673H23.3646H23.3619H23.3593H23.3566H23.3539H23.3512H23.3485H23.3458H23.3431H23.3404H23.3377H23.335H23.3323H23.3296H23.3269H23.3242H23.3215H23.3188H23.3161H23.3134H23.3107H23.308H23.3053H23.3026H23.2999H23.2971H23.2944H23.2917H23.289H23.2863H23.2836H23.2809H23.2781H23.2754H23.2727H23.27H23.2673H23.2645H23.2618H23.2591H23.2564H23.2536H23.2509H23.2482H23.2455H23.2427H23.24H23.2373H23.2346H23.2318H23.2291H23.2264H23.2236H23.2209H23.2182H23.2154H23.2127H23.21H23.2072H23.2045H23.2018H23.199H23.1963H23.1935H23.1908H23.1881H23.1853H23.1826H23.1798H23.1771H23.1744H23.1716H23.1689H23.1661H23.1634H23.1607H23.1579H23.1552H23.1524H23.1497H23.1469H23.1442H23.1415H23.1387H23.136H23.1332H23.1305H23.1277H23.125H23.1222H23.1195H23.1167H23.114H23.1113H23.1085H23.1058H23.103H23.1003H23.0975H23.0948H23.092H23.0893H23.0865H23.0838H23.081H23.0783H23.0756H23.0728H23.0701H23.0673H23.0646H23.0618H23.0591H23.0563H23.0536H23.0508H23.0481H23.0453H23.0426H23.0399H23.0371H23.0344H23.0316H23.0289H23.0261H23.0234H23.0207H23.0179H23.0152H23.0124H23.0097H23.0069H23.0042H23.0015H22.9987H22.996H22.9932H22.9905H22.9878H22.985H22.9823H22.9795H22.9768H22.9741H22.9713H22.9686H22.9659H22.9631H22.9604H22.9577H22.9549H22.9522H22.9495H22.9467H22.944H22.9413H22.9386H22.9358H22.9331H22.9304H22.9276H22.9249H22.9222H22.9195H22.9167H22.914H22.9113H22.9086H22.9059H22.9031H22.9004H22.8977H22.895H22.8923H22.8896H22.8868H22.8841H22.8814H22.8787H22.876H22.8733H22.8706H22.8679H22.8652H22.8625H22.8598H22.8571H22.8543H22.8516H22.8489H22.8462H22.8435H22.8408H22.8382H22.8355H22.8328H22.8301H22.8274H22.8247H22.822H22.8193H22.8166H22.8139H22.8113H22.8086H22.8059H22.8032H22.8005H22.7978H22.7952H22.7925H22.7898H22.7871H22.7845H22.7818H22.7791H22.7765H22.7738H22.7711H22.7685H22.7658H22.7631H22.7605H22.7578H22.7552H22.7525H22.7499H22.7472H22.7446H22.7419H22.7393H22.7366H22.734H22.7313H22.7287H22.726H22.7234H22.7208H22.7181H22.7155H22.7129H22.7102H22.7076H22.705H22.7024H22.6997H22.6971H22.6945H22.6919H22.6893H22.6866H22.684H22.6814H22.6788H22.6762H22.6736H22.671H22.6684H22.6658H22.6632H22.6606H22.658H22.6554H22.6528H22.6502H22.6476H22.6451H22.6425H22.6399H22.6373H22.6347H22.6322H22.6296H22.627H22.6245H22.6219H22.6193H22.6168H22.6142H22.6116H22.6091H22.6065H22.604H22.6014H22.5989H22.5963H22.5938H22.5913H22.5887H22.5862H22.5837H22.5811H22.5786H22.5761H22.5735H22.571H22.5685H22.566H22.5635H22.561H22.5584H22.5559H22.5534H22.5509H22.5484H22.5459H22.5434H22.5409H22.5384H22.536H22.5335H22.531H22.5285H22.526H22.5235H22.5211H22.5186H22.5161H22.5137H22.5112H22.5087H22.5063H22.5038H22.5014H22.4989H22.4965H22.494H22.4916H22.4892H22.4867H22.4843H22.4819H22.4794H22.477H22.4746H22.4722H22.4697H22.4673H22.4649H22.4625H22.4601H22.4577H22.4553H22.4529H22.4505H22.4481H22.4457H22.4433H22.441H22.4386H22.4362H22.4338H22.4314H22.4291H22.4267H22.4244H22.422H22.4196C21.7251 16 20.5944 16.1678 19.6648 17.209C19.6061 17.2747 19.5341 17.3507 19.4517 17.4378C18.65 18.2843 16.8661 20.168 16.8661 23.625C16.8661 25.6028 17.5798 27.4564 18.3025 28.8384C19.0313 30.2321 19.8122 31.2267 20.033 31.5014L20.0778 31.5572L20.1099 31.5871C20.116 31.5943 20.133 31.614 20.1643 31.6524C20.2182 31.7185 20.2893 31.8081 20.3835 31.9269L20.3839 31.9274C20.5692 32.161 20.8252 32.4838 21.145 32.8701C21.7853 33.6436 22.6825 34.6734 23.8086 35.7887C26.0509 38.0093 29.2377 40.6054 33.1538 42.1743C35.5206 43.1836 37.2404 43.7477 38.7058 44.001C40.1889 44.2574 41.3685 44.1878 42.6348 43.9924C43.5135 43.9013 44.717 43.4173 45.7529 42.7946C46.7837 42.175 47.9263 41.2536 48.3889 40.131C48.7596 39.2313 48.9534 38.3823 49.013 37.6959C49.0426 37.3554 49.0414 37.029 49.0003 36.7426C48.9798 36.5997 48.9462 36.4444 48.8892 36.2928C48.8563 36.2054 48.8058 36.0924 48.7265 35.9768C48.4954 35.5303 48.0931 35.3002 47.8679 35.1801C47.7507 35.1176 47.6186 35.0546 47.5027 34.9992C47.4785 34.9877 47.455 34.9765 47.4324 34.9657C47.2911 34.8978 47.1548 34.8306 47.0154 34.7525Z" fill="black" stroke="black" stroke-width="2"/>
</svg>
