<svg width="61" height="62" viewBox="0 0 61 62" fill="none" xmlns="http://www.w3.org/2000/svg">
<g filter="url(#filter0_d_115_55)">
<path d="M47.7143 9.21875C52.2143 13.8125 55 19.8281 55 26.3906C55 39.7344 44.0714 50.6719 30.8929 50.6719C26.9286 50.6719 23.0714 49.5781 19.5357 47.7188L7 51L10.3214 38.4219C8.28571 34.8125 7.10714 30.6562 7.10714 26.2812C7.10714 12.9375 17.8214 2 30.8929 2C37.3214 2 43.3214 4.625 47.7143 9.21875ZM30.8929 46.5156C41.8214 46.5156 50.9286 37.4375 50.9286 26.3906C50.9286 20.9219 48.6786 15.8906 44.9286 12.0625C41.1786 8.23438 36.25 6.15625 31 6.15625C20.0714 6.15625 11.1786 15.2344 11.1786 26.2812C11.1786 30.1094 12.25 33.8281 14.1786 37.1094L14.7143 37.875L12.6786 45.3125L20.1786 43.2344L20.8214 43.6719C23.9286 45.5312 27.3571 46.5156 30.8929 46.5156ZM41.8214 31.4219C42.3571 31.75 42.7857 31.8594 42.8929 32.1875C43.1071 32.4062 43.1071 33.6094 42.5714 35.0312C42.0357 36.4531 39.6786 37.7656 38.6071 37.875C36.6786 38.2031 35.1786 38.0938 31.4286 36.3438C25.4286 33.7188 21.5714 27.5938 21.25 27.2656C20.9286 26.8281 18.8929 23.9844 18.8929 20.9219C18.8929 17.9688 20.3929 16.5469 20.9286 15.8906C21.4643 15.2344 22.1071 15.125 22.5357 15.125C22.8571 15.125 23.2857 15.125 23.6071 15.125C24.0357 15.125 24.4643 15.0156 25 16.2188C25.4286 17.4219 26.7143 20.375 26.8214 20.7031C26.9286 21.0312 27.0357 21.3594 26.8214 21.7969C25.75 24.0938 24.4643 23.9844 25.1071 25.0781C27.4643 29.125 29.7143 30.5469 33.25 32.2969C33.7857 32.625 34.1071 32.5156 34.5357 32.1875C34.8571 31.75 36.0357 30.3281 36.3571 29.7812C36.7857 29.125 37.2143 29.2344 37.75 29.4531C38.2857 29.6719 41.1786 31.0938 41.8214 31.4219Z" fill="#F96FFC"/>
<path d="M6.03314 50.7447L5.5957 52.4013L7.25322 51.9674L19.4173 48.7834C22.9804 50.5979 26.8736 51.6719 30.8929 51.6719C44.6286 51.6719 56 40.2817 56 26.3906C56 19.5374 53.0905 13.2799 48.4328 8.52319C43.855 3.73842 37.5972 1 30.8929 1C17.2498 1 6.10714 12.4048 6.10714 26.2812C6.10714 30.6929 7.25808 34.8875 9.25202 38.5549L6.03314 50.7447ZM15.6788 38.139L15.8027 37.6863L15.5336 37.3017L15.0209 36.5689C13.19 33.4409 12.1786 29.9083 12.1786 26.2812C12.1786 15.7707 20.6396 7.15625 31 7.15625C35.9774 7.15625 40.6496 9.1234 44.2142 12.7623C47.7968 16.4195 49.9286 21.2051 49.9286 26.3906C49.9286 36.8872 41.2672 45.5156 30.8929 45.5156C27.5564 45.5156 24.313 44.5903 21.3597 42.8286L20.7412 42.4077L20.3581 42.1469L19.9115 42.2707L14.1078 43.8788L15.6788 38.139ZM42.3437 30.5691L42.3106 30.5488L42.2761 30.5312C41.6435 30.2083 38.7106 28.7652 38.128 28.5273L38.1272 28.527C37.8761 28.4244 37.4102 28.2342 36.8942 28.2962C36.2788 28.3701 35.8356 28.7511 35.5199 29.2345L35.507 29.2542L35.495 29.2745C35.3756 29.4777 35.0489 29.9115 34.6593 30.4086C34.5381 30.5633 34.4114 30.7234 34.2902 30.8764C34.1124 31.101 33.9465 31.3106 33.8273 31.4661C33.8246 31.4679 33.8219 31.4697 33.8193 31.4713C33.806 31.4641 33.7903 31.4552 33.7723 31.4441L33.7339 31.4206L33.6936 31.4006C31.9386 30.532 30.5804 29.7813 29.3759 28.7799C28.1932 27.7966 27.1215 26.5393 26.0012 24.6261C26.0151 24.6109 26.0306 24.5942 26.0479 24.5758C26.0829 24.5389 26.1208 24.4996 26.1615 24.4574C26.546 24.0587 27.1702 23.4117 27.7241 22.2274C28.1114 21.4279 27.8951 20.7682 27.7808 20.4195C27.7778 20.4103 27.7749 20.4014 27.772 20.3927C27.7165 20.2228 27.4679 19.6298 27.1837 18.9521C27.1086 18.7731 27.0311 18.5882 26.954 18.4036C26.5623 17.466 26.1454 16.4542 25.942 15.8832L25.9291 15.847L25.9135 15.812C25.6153 15.1423 25.2589 14.622 24.7388 14.341C24.279 14.0924 23.7844 14.1167 23.6408 14.1237C23.6254 14.1244 23.614 14.125 23.6071 14.125H23.6053H23.6034H23.6015H23.5996H23.5977H23.5958H23.5939H23.592H23.5901H23.5882H23.5863H23.5844H23.5825H23.5805H23.5786H23.5767H23.5748H23.5729H23.5709H23.569H23.5671H23.5651H23.5632H23.5613H23.5593H23.5574H23.5554H23.5535H23.5515H23.5496H23.5476H23.5457H23.5437H23.5418H23.5398H23.5378H23.5359H23.5339H23.5319H23.5299H23.528H23.526H23.524H23.522H23.5201H23.5181H23.5161H23.5141H23.5121H23.5101H23.5081H23.5061H23.5041H23.5021H23.5001H23.4981H23.4961H23.4941H23.4921H23.4901H23.4881H23.486H23.484H23.482H23.48H23.478H23.4759H23.4739H23.4719H23.4698H23.4678H23.4658H23.4637H23.4617H23.4597H23.4576H23.4556H23.4535H23.4515H23.4494H23.4474H23.4453H23.4433H23.4412H23.4392H23.4371H23.4351H23.433H23.4309H23.4289H23.4268H23.4247H23.4227H23.4206H23.4185H23.4165H23.4144H23.4123H23.4102H23.4081H23.4061H23.404H23.4019H23.3998H23.3977H23.3956H23.3935H23.3914H23.3894H23.3873H23.3852H23.3831H23.381H23.3789H23.3768H23.3747H23.3726H23.3705H23.3683H23.3662H23.3641H23.362H23.3599H23.3578H23.3557H23.3536H23.3514H23.3493H23.3472H23.3451H23.343H23.3408H23.3387H23.3366H23.3345H23.3323H23.3302H23.3281H23.326H23.3238H23.3217H23.3196H23.3174H23.3153H23.3131H23.311H23.3089H23.3067H23.3046H23.3024H23.3003H23.2981H23.296H23.2939H23.2917H23.2896H23.2874H23.2853H23.2831H23.281H23.2788H23.2766H23.2745H23.2723H23.2702H23.268H23.2659H23.2637H23.2615H23.2594H23.2572H23.2551H23.2529H23.2507H23.2486H23.2464H23.2442H23.2421H23.2399H23.2377H23.2355H23.2334H23.2312H23.229H23.2269H23.2247H23.2225H23.2203H23.2182H23.216H23.2138H23.2116H23.2095H23.2073H23.2051H23.2029H23.2007H23.1986H23.1964H23.1942H23.192H23.1898H23.1876H23.1855H23.1833H23.1811H23.1789H23.1767H23.1745H23.1723H23.1702H23.168H23.1658H23.1636H23.1614H23.1592H23.157H23.1548H23.1526H23.1505H23.1483H23.1461H23.1439H23.1417H23.1395H23.1373H23.1351H23.1329H23.1307H23.1285H23.1263H23.1241H23.1219H23.1198H23.1176H23.1154H23.1132H23.111H23.1088H23.1066H23.1044H23.1022H23.1H23.0978H23.0956H23.0934H23.0912H23.089H23.0868H23.0846H23.0824H23.0802H23.078H23.0758H23.0736H23.0714H23.0692H23.067H23.0648H23.0626H23.0604H23.0582H23.056H23.0539H23.0517H23.0495H23.0473H23.0451H23.0429H23.0407H23.0385H23.0363H23.0341H23.0319H23.0297H23.0275H23.0253H23.0231H23.0209H23.0187H23.0165H23.0143H23.0121H23.0099H23.0077H23.0056H23.0034H23.0012H22.999H22.9968H22.9946H22.9924H22.9902H22.988H22.9858H22.9836H22.9815H22.9793H22.9771H22.9749H22.9727H22.9705H22.9683H22.9661H22.964H22.9618H22.9596H22.9574H22.9552H22.953H22.9508H22.9487H22.9465H22.9443H22.9421H22.9399H22.9378H22.9356H22.9334H22.9312H22.929H22.9269H22.9247H22.9225H22.9203H22.9182H22.916H22.9138H22.9116H22.9095H22.9073H22.9051H22.903H22.9008H22.8986H22.8965H22.8943H22.8921H22.89H22.8878H22.8856H22.8835H22.8813H22.8792H22.877H22.8748H22.8727H22.8705H22.8684H22.8662H22.8641H22.8619H22.8598H22.8576H22.8554H22.8533H22.8512H22.849H22.8469H22.8447H22.8426H22.8404H22.8383H22.8361H22.834H22.8319H22.8297H22.8276H22.8254H22.8233H22.8212H22.819H22.8169H22.8148H22.8126H22.8105H22.8084H22.8063H22.8041H22.802H22.7999H22.7978H22.7956H22.7935H22.7914H22.7893H22.7872H22.7851H22.7829H22.7808H22.7787H22.7766H22.7745H22.7724H22.7703H22.7682H22.7661H22.764H22.7619H22.7598H22.7577H22.7556H22.7535H22.7514H22.7493H22.7472H22.7451H22.7431H22.741H22.7389H22.7368H22.7347H22.7326H22.7306H22.7285H22.7264H22.7243H22.7223H22.7202H22.7181H22.7161H22.714H22.7119H22.7099H22.7078H22.7057H22.7037H22.7016H22.6996H22.6975H22.6955H22.6934H22.6914H22.6893H22.6873H22.6852H22.6832H22.6812H22.6791H22.6771H22.675H22.673H22.671H22.669H22.6669H22.6649H22.6629H22.6609H22.6588H22.6568H22.6548H22.6528H22.6508H22.6488H22.6468H22.6447H22.6427H22.6407H22.6387H22.6367H22.6347H22.6327H22.6308H22.6288H22.6268H22.6248H22.6228H22.6208H22.6188H22.6169H22.6149H22.6129H22.6109H22.609H22.607H22.605H22.6031H22.6011H22.5991H22.5972H22.5952H22.5933H22.5913H22.5894H22.5874H22.5855H22.5835H22.5816H22.5797H22.5777H22.5758H22.5739H22.5719H22.57H22.5681H22.5662H22.5642H22.5623H22.5604H22.5585H22.5566H22.5547H22.5528H22.5509H22.549H22.5471H22.5452H22.5433H22.5414H22.5395H22.5376H22.5357C21.9214 14.125 20.9417 14.2932 20.1539 15.2582C20.1068 15.3159 20.0491 15.3827 19.983 15.4591C19.336 16.2071 17.8929 17.8755 17.8929 20.9219C17.8929 22.6614 18.4667 24.2923 19.0487 25.5095C19.6355 26.7368 20.2647 27.6135 20.4441 27.8577L20.4861 27.9148L20.5131 27.9424C20.5195 27.9506 20.5313 27.9659 20.5497 27.9906C20.5922 28.0475 20.6484 28.1251 20.724 28.2293L20.7245 28.23C20.8728 28.4345 21.0782 28.7178 21.3349 29.0569C21.8489 29.736 22.5697 30.6411 23.4751 31.6217C25.2742 33.5704 27.8443 35.8644 31.0166 37.255C32.9151 38.1404 34.3122 38.6439 35.5151 38.8713C36.7386 39.1026 37.7142 39.0394 38.7454 38.8658C39.5066 38.7773 40.5033 38.3307 41.3396 37.7809C42.1829 37.2264 43.1257 36.3964 43.5072 35.3838C43.8062 34.5903 43.9622 33.8422 44.0103 33.2374C44.0341 32.9373 44.0333 32.6486 43.9999 32.394C43.9832 32.2671 43.9557 32.1272 43.9082 31.9891C43.8821 31.913 43.8404 31.809 43.7723 31.6992C43.5718 31.2794 43.2191 31.0561 43.0217 30.9409C42.9229 30.8833 42.8113 30.825 42.7187 30.7767C42.6998 30.7668 42.6817 30.7573 42.6646 30.7484C42.5528 30.6897 42.449 30.6336 42.3437 30.5691Z" stroke="black" stroke-width="2"/>
</g>
<defs>
<filter id="filter0_d_115_55" x="0.191406" y="0" width="60.8086" height="61.8026" filterUnits="userSpaceOnUse" color-interpolation-filters="sRGB">
<feFlood flood-opacity="0" result="BackgroundImageFix"/>
<feColorMatrix in="SourceAlpha" type="matrix" values="0 0 0 0 0 0 0 0 0 0 0 0 0 0 0 0 0 0 127 0" result="hardAlpha"/>
<feOffset dy="4"/>
<feGaussianBlur stdDeviation="2"/>
<feComposite in2="hardAlpha" operator="out"/>
<feColorMatrix type="matrix" values="0 0 0 0 0 0 0 0 0 0 0 0 0 0 0 0 0 0 0.25 0"/>
<feBlend mode="normal" in2="BackgroundImageFix" result="effect1_dropShadow_115_55"/>
<feBlend mode="normal" in="SourceGraphic" in2="effect1_dropShadow_115_55" result="shape"/>
</filter>
</defs>
</svg>
